<?xml version="1.0" encoding="utf-8"?>
<!-- Generator: Adobe Illustrator 21.0.0, SVG Export Plug-In . SVG Version: 6.00 Build 0)  -->
<svg version="1.1" id="Layer_1" xmlns="http://www.w3.org/2000/svg" xmlns:xlink="http://www.w3.org/1999/xlink" x="0px" y="0px"
	 viewBox="0 0 285 151.5" style="enable-background:new 0 0 285 151.5;" xml:space="preserve">
<style type="text/css">
	.st0{enable-background:new    ;}
	.st1{fill:#231F20;}
</style>
<title>LG_logo</title>
<g>
	<path d="M135.9,13.7C89.8,13.7,93,57,93,80.8h11.1c14.2,16.7,39.2,18.7,55.9,4.5c1.6-1.4,3.1-2.9,4.5-4.5H179
		C178.9,57,175.2,13.7,135.9,13.7z M134.2,88.2c-18.3,0-33.2-14.9-33.2-33.2s14.9-33.2,33.2-33.2s33.2,14.9,33.2,33.2c0,0,0,0,0,0
		C167.4,73.3,152.6,88.2,134.2,88.2L134.2,88.2z"/>
	<circle cx="115.9" cy="66" r="5.7"/>
	<circle cx="153.1" cy="61.9" r="5.7"/>
	<g class="st0">
		<path class="st1" d="M16.6,133v-32.2h8.2v25.4h13.5v6.9H16.6z"/>
	</g>
	<g class="st0">
		<path class="st1" d="M45.7,105.6c-2.9,0-4.7-1.5-4.7-4.2c0-2.8,1.8-4.3,4.7-4.3c2.9,0,4.7,1.5,4.7,4.3
			C50.4,104.1,48.6,105.6,45.7,105.6z M41.7,133v-23.5l7.9-1V133H41.7z"/>
	</g>
	<g class="st0">
		<path class="st1" d="M64.6,133.8c-5.9,0-9.1-2.4-8.8-8.7l0.4-9.1l-3.6-0.6l0.2-5l3.6-1.2l0.1-5.5h7.7l-0.1,5.7h6l-0.2,6.2h-6.4
			l-0.3,8.6c-0.1,2.2,1.2,3.1,3.1,3.1c1,0,2.1-0.3,3.1-0.6l0.9,6.2C68.6,133.5,67,133.8,64.6,133.8z"/>
	</g>
	<g class="st0">
		<path class="st1" d="M84,133.8c-5.9,0-9.1-2.4-8.8-8.7l0.4-9.1l-3.6-0.6l0.2-5l3.6-1.2l0.1-5.5h7.7l-0.1,5.7h6l-0.2,6.2h-6.4
			l-0.3,8.6c-0.1,2.2,1.2,3.1,3.1,3.1c1,0,2.1-0.3,3.1-0.6l0.9,6.2C88,133.5,86.5,133.8,84,133.8z"/>
	</g>
	<g class="st0">
		<path class="st1" d="M93.4,133V98.9l7.9-1v35H93.4z"/>
	</g>
	<g class="st0">
		<path class="st1" d="M113,122.9c0.3,3.2,2.5,5,6.3,5c2.6,0,5.4-0.9,7.8-2.3l0.8,6.1c-2.4,1.2-5.9,2-9.3,2
			c-8.1,0-13.4-4.5-13.4-12.5c0-7.8,5.4-12.9,13-12.9c6.8,0,10.5,4.1,10.5,10c0,1.3-0.2,3.2-0.5,4.2l-15.2,0.3V122.9z M121.4,118.8
			c0-0.1,0-0.4,0-0.5c0-2.8-1.2-4.6-3.7-4.6c-2.7,0-4.4,2.4-4.6,5.1L121.4,118.8z"/>
	</g>
	<g class="st0">
		<path class="st1" d="M161.4,133.8c-10.3,0-17.3-6.1-17.3-16.7c0-10.6,6.8-17,17.4-17c4.1,0,9,0.9,12.1,2.8l-2.6,6.9
			c-3-1.8-6.2-2.7-9.3-2.7c-5.8,0-9.5,3.9-9.5,9.8c0,6.4,3.2,10.3,9.4,10.3c1.9,0,3.8-0.4,5.2-1v-4.7h-7.9v-6.5h15.4v15.9
			C170.7,132.7,166.1,133.8,161.4,133.8z"/>
	</g>
	<g class="st0">
		<path class="st1" d="M187.5,133h-7.9v-23.5l7.9-1v3.5c1.4-2.4,3.2-3.7,5.8-3.7c1.3,0,2.7,0.3,4,1l-1.6,7c-0.9-0.5-2-0.7-3-0.7
			c-2,0-3.7,1-5.2,3.5V133z"/>
	</g>
	<g class="st0">
		<path class="st1" d="M205.9,122.9c0.3,3.2,2.5,5,6.3,5c2.6,0,5.4-0.9,7.8-2.3l0.8,6.1c-2.4,1.2-5.9,2-9.3,2
			c-8.1,0-13.4-4.5-13.4-12.5c0-7.8,5.4-12.9,13-12.9c6.8,0,10.5,4.1,10.5,10c0,1.3-0.2,3.2-0.5,4.2l-15.2,0.3V122.9z M214.2,118.8
			c0-0.1,0-0.4,0-0.5c0-2.8-1.2-4.6-3.7-4.6c-2.7,0-4.4,2.4-4.6,5.1L214.2,118.8z"/>
	</g>
	<g class="st0">
		<path class="st1" d="M235.7,133.8c-5.9,0-9.1-2.4-8.8-8.7l0.4-9.1l-3.6-0.6l0.2-5l3.6-1.2l0.1-5.5h7.7l-0.1,5.7h6l-0.2,6.2h-6.4
			l-0.3,8.6c-0.1,2.2,1.2,3.1,3.1,3.1c1,0,2.1-0.3,3.1-0.6l0.9,6.2C239.6,133.5,238.1,133.8,235.7,133.8z"/>
	</g>
	<g class="st0">
		<path class="st1" d="M257.8,130.1c-1.7,2-3.6,3.7-6.9,3.7c-4.1,0-7.3-2.9-7.3-6.6c0-4.5,3.4-8.2,14.2-8.5v-0.5
			c0-2.5-1.3-3.7-4.2-3.7c-2.5,0-5.4,1-8.1,2.4l-1.6-5.8c2.5-1.3,6.5-2.8,11-2.8c8.3,0,11,3.8,10.9,10.5l-0.1,7.1c0,1.6,0.3,1.8,2,2
			l-0.8,5.7c-5.2,0.7-7.8-0.7-8.9-3.3H257.8z M257.8,122.3c-4.9,0.6-6.7,1.5-6.7,3.6c0,1.5,1.2,2.6,3,2.6c1.6,0,2.9-0.7,3.7-1.6
			V122.3z"/>
	</g>
</g>
</svg>
