<?xml version="1.0" encoding="UTF-8" standalone="no"?>
<!DOCTYPE svg PUBLIC "-//W3C//DTD SVG 1.1//EN" "http://www.w3.org/Graphics/SVG/1.1/DTD/svg11.dtd">
<svg width="100%" height="100%" viewBox="0 0 513 107" version="1.1" xmlns="http://www.w3.org/2000/svg" xmlns:xlink="http://www.w3.org/1999/xlink" xml:space="preserve" style="fill-rule:evenodd;clip-rule:evenodd;stroke-linejoin:round;stroke-miterlimit:1.41421;">
    <g transform="matrix(1,0,0,1,-311.328,-762.328)">
        <g transform="matrix(4.16667,0,0,4.16667,0,0)">
            <g>
                <path d="M111.499,204.689L111.499,205.42L112.451,205.42L112.451,205.85L111.499,205.85L111.499,206.905L110.949,206.905L110.949,204.261L112.633,204.261L112.633,204.689L111.499,204.689Z" style="fill:rgb(63,48,88);fill-rule:nonzero;"/>
                <path d="M114.558,205.901L114.272,205.092C114.255,205.05 114.237,205 114.218,204.943C114.199,204.886 114.181,204.824 114.164,204.757C114.147,204.825 114.129,204.888 114.11,204.945C114.091,205.003 114.074,205.053 114.057,205.096L113.772,205.901L114.558,205.901ZM115.476,206.905L115.052,206.905C115.004,206.905 114.966,206.894 114.936,206.872C114.906,206.849 114.884,206.82 114.869,206.785L114.691,206.28L113.637,206.28L113.459,206.785C113.447,206.815 113.425,206.843 113.395,206.868C113.365,206.893 113.326,206.905 113.28,206.905L112.852,206.905L113.885,204.261L114.445,204.261L115.476,206.905Z" style="fill:rgb(63,48,88);fill-rule:nonzero;"/>
                <path d="M117.821,206.255C117.851,206.255 117.877,206.266 117.897,206.288L118.114,206.519C118.007,206.655 117.875,206.758 117.716,206.829C117.558,206.899 117.369,206.934 117.15,206.934C116.952,206.934 116.774,206.901 116.616,206.833C116.458,206.766 116.324,206.672 116.214,206.552C116.103,206.431 116.018,206.289 115.958,206.124C115.899,205.958 115.869,205.778 115.869,205.582C115.869,205.451 115.883,205.326 115.912,205.208C115.94,205.089 115.982,204.98 116.037,204.881C116.091,204.781 116.157,204.691 116.235,204.611C116.312,204.531 116.399,204.462 116.496,204.406C116.593,204.349 116.699,204.306 116.814,204.277C116.929,204.247 117.051,204.232 117.181,204.232C117.278,204.232 117.37,204.24 117.457,204.257C117.544,204.274 117.625,204.298 117.701,204.328C117.776,204.359 117.845,204.396 117.909,204.439C117.973,204.482 118.03,204.529 118.081,204.58L117.897,204.831C117.886,204.847 117.872,204.861 117.855,204.873C117.838,204.886 117.815,204.892 117.786,204.892C117.757,204.892 117.728,204.881 117.698,204.861C117.668,204.84 117.632,204.817 117.589,204.791C117.545,204.766 117.491,204.743 117.426,204.722C117.361,204.701 117.279,204.691 117.179,204.691C117.069,204.691 116.967,204.711 116.875,204.751C116.783,204.791 116.703,204.849 116.637,204.925C116.571,205.001 116.52,205.094 116.483,205.205C116.447,205.316 116.429,205.441 116.429,205.582C116.429,205.724 116.448,205.851 116.488,205.962C116.527,206.073 116.581,206.167 116.65,206.244C116.719,206.32 116.799,206.378 116.891,206.418C116.982,206.457 117.08,206.477 117.185,206.477C117.247,206.477 117.303,206.474 117.353,206.468C117.404,206.462 117.451,206.452 117.494,206.437C117.537,206.422 117.578,206.404 117.616,206.38C117.654,206.357 117.693,206.328 117.732,206.293C117.745,206.282 117.759,206.273 117.773,206.266C117.788,206.258 117.804,206.255 117.821,206.255Z" style="fill:rgb(63,48,88);fill-rule:nonzero;"/>
                <path d="M120.694,204.702L119.921,204.702L119.921,206.905L119.373,206.905L119.373,204.702L118.6,204.702L118.6,204.261L120.694,204.261L120.694,204.702Z" style="fill:rgb(63,48,88);fill-rule:nonzero;"/>
                <path d="M123.124,206.255C123.154,206.255 123.18,206.266 123.201,206.288L123.418,206.519C123.311,206.655 123.178,206.758 123.019,206.829C122.861,206.899 122.672,206.934 122.453,206.934C122.255,206.934 122.077,206.901 121.92,206.833C121.762,206.766 121.627,206.672 121.517,206.552C121.406,206.431 121.321,206.289 121.262,206.124C121.202,205.958 121.172,205.778 121.172,205.582C121.172,205.451 121.187,205.326 121.215,205.208C121.244,205.089 121.285,204.98 121.34,204.881C121.395,204.781 121.461,204.691 121.538,204.611C121.615,204.531 121.702,204.462 121.799,204.406C121.896,204.349 122.002,204.306 122.117,204.277C122.232,204.247 122.354,204.232 122.484,204.232C122.582,204.232 122.674,204.24 122.761,204.257C122.847,204.274 122.929,204.298 123.004,204.328C123.079,204.359 123.149,204.396 123.212,204.439C123.276,204.482 123.334,204.529 123.385,204.58L123.201,204.831C123.19,204.847 123.176,204.861 123.159,204.873C123.142,204.886 123.119,204.892 123.089,204.892C123.06,204.892 123.031,204.881 123.001,204.861C122.971,204.84 122.935,204.817 122.892,204.791C122.849,204.766 122.795,204.743 122.73,204.722C122.665,204.701 122.582,204.691 122.483,204.691C122.372,204.691 122.271,204.711 122.178,204.751C122.086,204.791 122.007,204.849 121.94,204.925C121.874,205.001 121.823,205.094 121.787,205.205C121.75,205.316 121.732,205.441 121.732,205.582C121.732,205.724 121.752,205.851 121.791,205.962C121.831,206.073 121.885,206.167 121.953,206.244C122.022,206.32 122.102,206.378 122.194,206.418C122.286,206.457 122.384,206.477 122.488,206.477C122.55,206.477 122.606,206.474 122.657,206.468C122.707,206.462 122.754,206.452 122.797,206.437C122.84,206.422 122.881,206.404 122.919,206.38C122.957,206.357 122.996,206.328 123.035,206.293C123.048,206.282 123.062,206.273 123.077,206.266C123.091,206.258 123.107,206.255 123.124,206.255Z" style="fill:rgb(63,48,88);fill-rule:nonzero;"/>
                <path d="M126.291,204.261L126.291,206.905L125.74,206.905L125.74,205.766L124.576,205.766L124.576,206.905L124.025,206.905L124.025,204.261L124.576,204.261L124.576,205.384L125.74,205.384L125.74,204.261L126.291,204.261Z" style="fill:rgb(63,48,88);fill-rule:nonzero;"/>
                <path d="M127.795,204.689L127.795,205.369L128.677,205.369L128.677,205.783L127.795,205.783L127.795,206.477L128.929,206.477L128.929,206.905L127.245,206.905L127.245,204.261L128.929,204.261L128.929,204.689L127.795,204.689Z" style="fill:rgb(63,48,88);fill-rule:nonzero;"/>
                <path d="M131.437,206.255C131.468,206.255 131.493,206.266 131.514,206.288L131.731,206.519C131.624,206.655 131.491,206.758 131.332,206.829C131.174,206.899 130.985,206.934 130.767,206.934C130.569,206.934 130.391,206.901 130.233,206.833C130.075,206.766 129.94,206.672 129.83,206.552C129.719,206.431 129.634,206.289 129.575,206.124C129.515,205.958 129.485,205.778 129.485,205.582C129.485,205.451 129.5,205.326 129.528,205.208C129.557,205.089 129.598,204.98 129.653,204.881C129.708,204.781 129.774,204.691 129.851,204.611C129.928,204.531 130.015,204.462 130.112,204.406C130.21,204.349 130.316,204.306 130.43,204.277C130.545,204.247 130.668,204.232 130.798,204.232C130.895,204.232 130.987,204.24 131.074,204.257C131.161,204.274 131.242,204.298 131.317,204.328C131.392,204.359 131.462,204.396 131.526,204.439C131.589,204.482 131.647,204.529 131.698,204.58L131.514,204.831C131.503,204.847 131.489,204.861 131.472,204.873C131.455,204.886 131.432,204.892 131.403,204.892C131.373,204.892 131.344,204.881 131.314,204.861C131.284,204.84 131.248,204.817 131.205,204.791C131.162,204.766 131.108,204.743 131.043,204.722C130.978,204.701 130.895,204.691 130.796,204.691C130.685,204.691 130.584,204.711 130.491,204.751C130.399,204.791 130.32,204.849 130.254,204.925C130.187,205.001 130.136,205.094 130.1,205.205C130.063,205.316 130.045,205.441 130.045,205.582C130.045,205.724 130.065,205.851 130.104,205.962C130.144,206.073 130.198,206.167 130.266,206.244C130.335,206.32 130.415,206.378 130.507,206.418C130.599,206.457 130.697,206.477 130.801,206.477C130.863,206.477 130.919,206.474 130.97,206.468C131.02,206.462 131.067,206.452 131.11,206.437C131.153,206.422 131.194,206.404 131.232,206.38C131.27,206.357 131.309,206.328 131.348,206.293C131.361,206.282 131.375,206.273 131.39,206.266C131.404,206.258 131.42,206.255 131.437,206.255Z" style="fill:rgb(63,48,88);fill-rule:nonzero;"/>
                <path d="M132.985,205.353L133.093,205.353C133.183,205.353 133.248,205.325 133.288,205.269L133.957,204.374C133.988,204.332 134.023,204.302 134.06,204.286C134.098,204.269 134.144,204.261 134.199,204.261L134.673,204.261L133.831,205.345C133.776,205.416 133.72,205.466 133.661,205.497C133.704,205.514 133.742,205.536 133.776,205.563C133.81,205.59 133.843,205.627 133.875,205.672L134.738,206.905L134.252,206.905C134.22,206.905 134.193,206.903 134.171,206.898C134.148,206.893 134.129,206.886 134.111,206.878C134.094,206.869 134.08,206.859 134.068,206.846C134.056,206.833 134.044,206.818 134.033,206.801L133.353,205.85C133.33,205.817 133.303,205.794 133.271,205.78C133.24,205.766 133.195,205.759 133.138,205.759L132.985,205.759L132.985,206.905L132.439,206.905L132.439,204.261L132.985,204.261L132.985,205.353Z" style="fill:rgb(63,48,88);fill-rule:nonzero;"/>
                <path d="M137.423,205.577C137.594,205.577 137.72,205.536 137.799,205.453C137.879,205.37 137.918,205.257 137.918,205.114C137.918,205.048 137.908,204.988 137.888,204.934C137.868,204.88 137.838,204.834 137.797,204.796C137.757,204.758 137.705,204.728 137.643,204.708C137.581,204.687 137.508,204.677 137.423,204.677L137.077,204.677L137.077,205.577L137.423,205.577ZM137.423,204.261C137.604,204.261 137.76,204.282 137.892,204.325C138.024,204.367 138.132,204.427 138.217,204.503C138.302,204.578 138.365,204.669 138.406,204.773C138.447,204.878 138.467,204.991 138.467,205.114C138.467,205.244 138.446,205.363 138.403,205.471C138.361,205.579 138.296,205.672 138.21,205.75C138.124,205.828 138.015,205.888 137.884,205.931C137.753,205.974 137.599,205.996 137.423,205.996L137.077,205.996L137.077,206.905L136.53,206.905L136.53,204.261L137.423,204.261Z" style="fill:rgb(63,48,88);fill-rule:nonzero;"/>
                <path d="M141.77,205.582C141.77,205.775 141.737,205.955 141.672,206.12C141.607,206.285 141.516,206.428 141.397,206.548C141.279,206.668 141.136,206.763 140.97,206.831C140.804,206.9 140.619,206.934 140.416,206.934C140.213,206.934 140.028,206.9 139.862,206.831C139.696,206.763 139.553,206.668 139.434,206.548C139.315,206.428 139.223,206.285 139.158,206.12C139.093,205.955 139.06,205.775 139.06,205.582C139.06,205.389 139.093,205.21 139.158,205.046C139.223,204.881 139.315,204.739 139.434,204.618C139.553,204.498 139.696,204.404 139.862,204.335C140.028,204.266 140.213,204.232 140.416,204.232C140.619,204.232 140.804,204.266 140.97,204.335C141.136,204.404 141.279,204.498 141.397,204.619C141.516,204.74 141.607,204.883 141.672,205.047C141.737,205.212 141.77,205.39 141.77,205.582ZM141.211,205.582C141.211,205.444 141.192,205.32 141.156,205.21C141.119,205.1 141.067,205.006 140.998,204.929C140.93,204.852 140.846,204.793 140.749,204.752C140.651,204.711 140.54,204.691 140.416,204.691C140.292,204.691 140.181,204.711 140.082,204.752C139.984,204.793 139.901,204.852 139.832,204.929C139.763,205.006 139.711,205.1 139.674,205.21C139.638,205.32 139.62,205.444 139.62,205.582C139.62,205.722 139.638,205.847 139.674,205.957C139.711,206.067 139.763,206.16 139.832,206.236C139.901,206.313 139.984,206.372 140.082,206.412C140.181,206.453 140.292,206.473 140.416,206.473C140.54,206.473 140.651,206.453 140.749,206.412C140.846,206.372 140.93,206.313 140.998,206.236C141.067,206.16 141.119,206.067 141.156,205.957C141.192,205.847 141.211,205.722 141.211,205.582Z" style="fill:rgb(63,48,88);fill-rule:nonzero;"/>
                <path d="M144.04,206.461L144.04,206.905L142.471,206.905L142.471,204.261L143.018,204.261L143.018,206.461L144.04,206.461Z" style="fill:rgb(63,48,88);fill-rule:nonzero;"/>
                <rect x="144.773" y="204.261" width="0.55" height="2.644" style="fill:rgb(63,48,88);fill-rule:nonzero;"/>
                <path d="M148.149,204.702L147.377,204.702L147.377,206.905L146.828,206.905L146.828,204.702L146.055,204.702L146.055,204.261L148.149,204.261L148.149,204.702Z" style="fill:rgb(63,48,88);fill-rule:nonzero;"/>
                <rect x="148.779" y="204.261" width="0.55" height="2.644" style="fill:rgb(63,48,88);fill-rule:nonzero;"/>
                <path d="M152.084,206.255C152.114,206.255 152.14,206.266 152.161,206.288L152.377,206.519C152.27,206.655 152.138,206.758 151.979,206.829C151.821,206.899 151.632,206.934 151.413,206.934C151.215,206.934 151.037,206.901 150.879,206.833C150.721,206.766 150.587,206.672 150.477,206.552C150.366,206.431 150.281,206.289 150.222,206.124C150.162,205.958 150.132,205.778 150.132,205.582C150.132,205.451 150.147,205.326 150.175,205.208C150.204,205.089 150.245,204.98 150.3,204.881C150.355,204.781 150.421,204.691 150.498,204.611C150.575,204.531 150.662,204.462 150.759,204.406C150.856,204.349 150.962,204.306 151.077,204.277C151.192,204.247 151.314,204.232 151.444,204.232C151.542,204.232 151.634,204.24 151.72,204.257C151.807,204.274 151.888,204.298 151.964,204.328C152.039,204.359 152.109,204.396 152.172,204.439C152.236,204.482 152.294,204.529 152.345,204.58L152.161,204.831C152.15,204.847 152.136,204.861 152.119,204.873C152.102,204.886 152.079,204.892 152.049,204.892C152.02,204.892 151.991,204.881 151.961,204.861C151.931,204.84 151.895,204.817 151.852,204.791C151.809,204.766 151.754,204.743 151.689,204.722C151.624,204.701 151.542,204.691 151.443,204.691C151.332,204.691 151.231,204.711 151.138,204.751C151.046,204.791 150.967,204.849 150.9,204.925C150.834,205.001 150.783,205.094 150.746,205.205C150.71,205.316 150.692,205.441 150.692,205.582C150.692,205.724 150.711,205.851 150.751,205.962C150.79,206.073 150.845,206.167 150.913,206.244C150.982,206.32 151.062,206.378 151.154,206.418C151.245,206.457 151.344,206.477 151.448,206.477C151.51,206.477 151.566,206.474 151.617,206.468C151.667,206.462 151.714,206.452 151.757,206.437C151.8,206.422 151.841,206.404 151.879,206.38C151.917,206.357 151.956,206.328 151.995,206.293C152.008,206.282 152.022,206.273 152.037,206.266C152.051,206.258 152.067,206.255 152.084,206.255Z" style="fill:rgb(63,48,88);fill-rule:nonzero;"/>
                <path d="M153.632,205.353L153.74,205.353C153.83,205.353 153.895,205.325 153.935,205.269L154.603,204.374C154.635,204.332 154.67,204.302 154.707,204.286C154.745,204.269 154.791,204.261 154.846,204.261L155.32,204.261L154.478,205.345C154.423,205.416 154.366,205.466 154.308,205.497C154.351,205.514 154.389,205.536 154.423,205.563C154.457,205.59 154.49,205.627 154.521,205.672L155.385,206.905L154.899,206.905C154.867,206.905 154.84,206.903 154.818,206.898C154.795,206.893 154.775,206.886 154.758,206.878C154.741,206.869 154.727,206.859 154.715,206.846C154.702,206.833 154.691,206.818 154.68,206.801L154,205.85C153.977,205.817 153.95,205.794 153.918,205.78C153.887,205.766 153.842,205.759 153.785,205.759L153.632,205.759L153.632,206.905L153.085,206.905L153.085,204.261L153.632,204.261L153.632,205.353Z" style="fill:rgb(63,48,88);fill-rule:nonzero;"/>
                <path d="M157.114,205.888L157.114,206.905L156.567,206.905L156.567,205.888L155.607,204.261L156.088,204.261C156.135,204.261 156.173,204.272 156.202,204.295C156.23,204.317 156.253,204.346 156.27,204.381L156.704,205.214C156.733,205.27 156.759,205.322 156.783,205.371C156.807,205.419 156.828,205.468 156.846,205.517C156.863,205.468 156.883,205.419 156.905,205.37C156.928,205.321 156.953,205.269 156.981,205.214L157.411,204.381C157.426,204.352 157.447,204.325 157.477,204.299C157.506,204.274 157.543,204.261 157.59,204.261L158.074,204.261L157.114,205.888ZM157.642,203.508L157.054,204.03C157.04,204.041 157.028,204.049 157.015,204.056C157.003,204.063 156.991,204.068 156.978,204.072C156.965,204.075 156.951,204.078 156.936,204.079C156.921,204.08 156.904,204.081 156.886,204.081L156.522,204.081L156.886,203.587C156.899,203.569 156.913,203.554 156.925,203.544C156.938,203.534 156.952,203.526 156.967,203.52C156.982,203.515 157,203.511 157.019,203.51C157.039,203.509 157.061,203.508 157.087,203.508L157.642,203.508Z" style="fill:rgb(63,48,88);fill-rule:nonzero;"/>
                <path d="M160.317,206.255C160.348,206.255 160.373,206.266 160.394,206.288L160.611,206.519C160.504,206.655 160.371,206.758 160.212,206.829C160.054,206.899 159.865,206.934 159.647,206.934C159.448,206.934 159.271,206.901 159.113,206.833C158.955,206.766 158.82,206.672 158.71,206.552C158.599,206.431 158.514,206.289 158.455,206.124C158.395,205.958 158.365,205.778 158.365,205.582C158.365,205.451 158.38,205.326 158.408,205.208C158.437,205.089 158.478,204.98 158.533,204.881C158.588,204.781 158.654,204.691 158.731,204.611C158.808,204.531 158.895,204.462 158.992,204.406C159.089,204.349 159.195,204.306 159.31,204.277C159.425,204.247 159.548,204.232 159.677,204.232C159.775,204.232 159.867,204.24 159.954,204.257C160.04,204.274 160.122,204.298 160.197,204.328C160.272,204.359 160.342,204.396 160.406,204.439C160.469,204.482 160.527,204.529 160.578,204.58L160.394,204.831C160.383,204.847 160.369,204.861 160.352,204.873C160.335,204.886 160.312,204.892 160.283,204.892C160.253,204.892 160.224,204.881 160.194,204.861C160.164,204.84 160.128,204.817 160.085,204.791C160.042,204.766 159.988,204.743 159.923,204.722C159.858,204.701 159.775,204.691 159.676,204.691C159.565,204.691 159.464,204.711 159.371,204.751C159.279,204.791 159.2,204.849 159.134,204.925C159.067,205.001 159.016,205.094 158.98,205.205C158.943,205.316 158.925,205.441 158.925,205.582C158.925,205.724 158.945,205.851 158.984,205.962C159.024,206.073 159.078,206.167 159.146,206.244C159.215,206.32 159.295,206.378 159.387,206.418C159.479,206.457 159.577,206.477 159.681,206.477C159.743,206.477 159.799,206.474 159.85,206.468C159.9,206.462 159.947,206.452 159.99,206.437C160.033,206.422 160.074,206.404 160.112,206.38C160.15,206.357 160.189,206.328 160.228,206.293C160.241,206.282 160.255,206.273 160.27,206.266C160.284,206.258 160.3,206.255 160.317,206.255Z" style="fill:rgb(63,48,88);fill-rule:nonzero;"/>
                <path d="M163.584,204.261L163.584,206.905L163.033,206.905L163.033,205.766L161.869,205.766L161.869,206.905L161.319,206.905L161.319,204.261L161.869,204.261L161.869,205.384L163.033,205.384L163.033,204.261L163.584,204.261Z" style="fill:rgb(63,48,88);fill-rule:nonzero;"/>
                <path d="M168.138,205.582C168.138,205.775 168.105,205.953 168.04,206.115C167.975,206.278 167.884,206.417 167.765,206.534C167.647,206.65 167.504,206.741 167.338,206.807C167.171,206.872 166.987,206.905 166.784,206.905L165.767,206.905L165.767,204.261L166.784,204.261C166.987,204.261 167.171,204.294 167.338,204.359C167.504,204.425 167.647,204.517 167.765,204.634C167.884,204.751 167.975,204.89 168.04,205.052C168.105,205.214 168.138,205.39 168.138,205.582ZM167.576,205.582C167.576,205.444 167.558,205.319 167.522,205.209C167.485,205.098 167.433,205.005 167.365,204.928C167.297,204.852 167.214,204.793 167.116,204.751C167.019,204.71 166.908,204.689 166.784,204.689L166.317,204.689L166.317,206.477L166.784,206.477C166.908,206.477 167.019,206.457 167.116,206.416C167.214,206.375 167.297,206.316 167.365,206.239C167.433,206.162 167.485,206.068 167.522,205.958C167.558,205.847 167.576,205.722 167.576,205.582Z" style="fill:rgb(63,48,88);fill-rule:nonzero;"/>
                <rect x="168.84" y="204.261" width="0.55" height="2.644" style="fill:rgb(63,48,88);fill-rule:nonzero;"/>
                <path d="M171.777,204.768C171.76,204.796 171.743,204.816 171.725,204.829C171.708,204.841 171.685,204.848 171.657,204.848C171.63,204.848 171.601,204.838 171.57,204.82C171.539,204.801 171.503,204.78 171.462,204.759C171.421,204.737 171.373,204.716 171.32,204.698C171.266,204.679 171.204,204.669 171.132,204.669C171.006,204.669 170.911,204.698 170.848,204.754C170.785,204.811 170.753,204.884 170.753,204.975C170.753,205.034 170.77,205.082 170.805,205.12C170.84,205.159 170.885,205.192 170.942,205.22C170.998,205.248 171.062,205.272 171.134,205.294C171.206,205.316 171.279,205.34 171.354,205.366C171.43,205.392 171.503,205.423 171.575,205.458C171.647,205.494 171.711,205.538 171.767,205.591C171.824,205.645 171.869,205.71 171.904,205.787C171.938,205.864 171.956,205.958 171.956,206.069C171.956,206.189 171.935,206.302 171.893,206.407C171.851,206.512 171.791,206.604 171.712,206.682C171.633,206.76 171.535,206.822 171.419,206.867C171.303,206.912 171.172,206.934 171.025,206.934C170.941,206.934 170.857,206.926 170.774,206.909C170.691,206.892 170.611,206.868 170.533,206.838C170.456,206.808 170.384,206.771 170.316,206.729C170.248,206.686 170.188,206.639 170.137,206.586L170.297,206.328C170.311,206.308 170.328,206.292 170.35,206.279C170.372,206.267 170.395,206.26 170.42,206.26C170.452,206.26 170.487,206.272 170.523,206.297C170.56,206.321 170.602,206.348 170.649,206.377C170.697,206.406 170.752,206.433 170.814,206.457C170.877,206.481 170.952,206.493 171.039,206.493C171.167,206.493 171.265,206.464 171.335,206.406C171.405,206.348 171.44,206.261 171.44,206.145C171.44,206.079 171.423,206.024 171.388,205.983C171.353,205.942 171.308,205.907 171.252,205.879C171.196,205.851 171.133,205.827 171.061,205.807C170.989,205.787 170.916,205.765 170.841,205.741C170.765,205.717 170.692,205.687 170.62,205.653C170.548,205.619 170.485,205.574 170.429,205.518C170.373,205.463 170.328,205.393 170.293,205.311C170.258,205.228 170.241,205.125 170.241,205.003C170.241,204.904 170.26,204.809 170.299,204.717C170.338,204.624 170.395,204.542 170.471,204.471C170.546,204.399 170.639,204.341 170.748,204.298C170.858,204.254 170.984,204.232 171.127,204.232C171.286,204.232 171.433,204.257 171.569,204.306C171.704,204.355 171.819,204.423 171.912,204.511L171.777,204.768Z" style="fill:rgb(63,48,88);fill-rule:nonzero;"/>
                <path d="M173.3,205.353L173.407,205.353C173.497,205.353 173.562,205.325 173.602,205.269L174.271,204.374C174.303,204.332 174.337,204.302 174.375,204.286C174.413,204.269 174.459,204.261 174.513,204.261L174.987,204.261L174.145,205.345C174.091,205.416 174.034,205.466 173.976,205.497C174.018,205.514 174.057,205.536 174.091,205.563C174.125,205.59 174.157,205.627 174.189,205.672L175.053,206.905L174.566,206.905C174.535,206.905 174.508,206.903 174.485,206.898C174.463,206.893 174.443,206.886 174.426,206.878C174.409,206.869 174.394,206.859 174.382,206.846C174.37,206.833 174.359,206.818 174.348,206.801L173.668,205.85C173.645,205.817 173.617,205.794 173.586,205.78C173.554,205.766 173.51,205.759 173.453,205.759L173.3,205.759L173.3,206.905L172.753,206.905L172.753,204.261L173.3,204.261L173.3,205.353Z" style="fill:rgb(63,48,88);fill-rule:nonzero;"/>
                <path d="M176.619,206.468C176.707,206.468 176.787,206.453 176.857,206.423C176.928,206.394 176.987,206.351 177.036,206.297C177.085,206.242 177.122,206.176 177.147,206.098C177.173,206.02 177.185,205.933 177.185,205.836L177.185,204.261L177.732,204.261L177.732,205.836C177.732,205.996 177.706,206.143 177.655,206.278C177.603,206.412 177.529,206.527 177.433,206.625C177.337,206.722 177.221,206.798 177.083,206.852C176.946,206.907 176.791,206.934 176.619,206.934C176.446,206.934 176.291,206.907 176.153,206.852C176.015,206.798 175.898,206.722 175.802,206.625C175.706,206.527 175.632,206.412 175.581,206.278C175.529,206.143 175.503,205.996 175.503,205.836L175.503,204.261L176.05,204.261L176.05,205.836C176.05,205.933 176.063,206.02 176.088,206.098C176.114,206.176 176.151,206.242 176.199,206.297C176.248,206.351 176.308,206.394 176.378,206.423C176.449,206.453 176.529,206.468 176.619,206.468Z" style="fill:rgb(63,48,88);fill-rule:nonzero;"/>
                <path d="M180.499,204.462C180.499,204.489 180.495,204.518 180.486,204.546C180.477,204.575 180.463,204.601 180.446,204.626L179.142,206.477L180.463,206.477L180.463,206.905L178.44,206.905L178.44,206.692C178.44,206.667 178.444,206.641 178.453,206.616C178.461,206.592 178.473,206.569 178.489,206.548L179.798,204.689L178.533,204.689L178.533,204.261L180.499,204.261L180.499,204.462Z" style="fill:rgb(63,48,88);fill-rule:nonzero;"/>
                <path d="M181.816,206.905L181.266,206.905L181.266,204.261L181.816,204.261L181.816,206.905ZM182.344,203.508L181.756,204.03C181.742,204.041 181.73,204.049 181.718,204.056C181.705,204.063 181.693,204.068 181.68,204.072C181.667,204.075 181.653,204.078 181.638,204.079C181.623,204.08 181.606,204.081 181.588,204.081L181.224,204.081L181.588,203.587C181.601,203.569 181.615,203.554 181.627,203.544C181.64,203.534 181.654,203.526 181.669,203.52C181.684,203.515 181.702,203.511 181.721,203.51C181.741,203.509 181.763,203.508 181.789,203.508L182.344,203.508Z" style="fill:rgb(63,48,88);fill-rule:nonzero;"/>
            </g>
        </g>
        <g transform="matrix(4.16667,0,0,4.16667,0,0)">
            <path d="M98.427,189.057C96.17,185.403 92.141,182.959 87.531,182.959C80.455,182.959 74.719,188.696 74.719,195.772C74.719,202.848 80.455,208.583 87.531,208.583C92.13,208.583 96.151,206.152 98.411,202.512L86.338,195.826L98.427,189.057Z" style="fill:rgb(236,101,58);fill-rule:nonzero;"/>
        </g>
        <g transform="matrix(4.16667,0,0,4.16667,0,0)">
            <g transform="matrix(1,0,0,1,-0.24,107.52)">
                <path d="M114.382,83.469C114.382,82.787 114.294,82.172 114.117,81.623C113.941,81.074 113.687,80.609 113.355,80.228C113.024,79.846 112.619,79.552 112.139,79.347C111.66,79.142 111.114,79.04 110.502,79.04L108.363,79.04L108.363,87.907L110.502,87.907C111.114,87.907 111.66,87.805 112.139,87.6C112.619,87.395 113.024,87.101 113.355,86.719C113.687,86.338 113.941,85.873 114.117,85.324C114.294,84.775 114.382,84.156 114.382,83.469M117.656,83.469C117.656,84.466 117.485,85.386 117.141,86.228C116.797,87.07 116.313,87.799 115.688,88.414C115.064,89.029 114.311,89.509 113.431,89.852C112.551,90.196 111.574,90.368 110.502,90.368L105.146,90.368L105.146,76.579L110.502,76.579C111.574,76.579 112.551,76.753 113.431,77.1C114.311,77.447 115.064,77.927 115.688,78.538C116.313,79.15 116.797,79.877 117.141,80.719C117.485,81.562 117.656,82.478 117.656,83.469" style="fill:rgb(63,48,88);fill-rule:nonzero;"/>
            </g>
        </g>
        <g transform="matrix(4.16667,0,0,4.16667,0,0)">
            <g transform="matrix(1,0,0,1,-0.24,107.52)">
                <path d="M125.672,84.283C125.672,84.05 125.642,83.823 125.582,83.601C125.522,83.381 125.424,83.183 125.289,83.01C125.153,82.837 124.975,82.696 124.754,82.589C124.533,82.482 124.265,82.428 123.95,82.428C123.395,82.428 122.959,82.587 122.644,82.906C122.328,83.224 122.12,83.683 122.019,84.283L125.672,84.283ZM121.981,85.986C122.076,86.806 122.325,87.401 122.729,87.77C123.132,88.139 123.653,88.324 124.291,88.324C124.631,88.324 124.924,88.283 125.171,88.201C125.417,88.119 125.636,88.027 125.828,87.927C126.021,87.825 126.197,87.734 126.358,87.652C126.519,87.57 126.688,87.529 126.864,87.529C127.098,87.529 127.275,87.614 127.395,87.784L128.246,88.835C127.943,89.182 127.617,89.464 127.267,89.682C126.917,89.9 126.557,90.07 126.188,90.193C125.819,90.316 125.45,90.401 125.081,90.449C124.712,90.496 124.36,90.519 124.026,90.519C123.338,90.519 122.693,90.408 122.09,90.183C121.487,89.96 120.961,89.627 120.51,89.185C120.059,88.743 119.702,88.195 119.44,87.538C119.178,86.882 119.047,86.119 119.047,85.248C119.047,84.592 119.159,83.971 119.383,83.384C119.608,82.797 119.929,82.283 120.349,81.841C120.768,81.4 121.276,81.05 121.873,80.791C122.469,80.532 123.142,80.403 123.893,80.403C124.543,80.403 125.137,80.504 125.677,80.705C126.216,80.908 126.68,81.201 127.068,81.586C127.456,81.97 127.759,82.442 127.977,83C128.194,83.559 128.303,84.191 128.303,84.898C128.303,85.119 128.294,85.299 128.275,85.437C128.255,85.576 128.221,85.687 128.171,85.769C128.12,85.851 128.052,85.908 127.967,85.939C127.882,85.97 127.773,85.986 127.641,85.986L121.981,85.986Z" style="fill:rgb(63,48,88);fill-rule:nonzero;"/>
            </g>
        </g>
        <g transform="matrix(4.16667,0,0,4.16667,0,0)">
            <g transform="matrix(1,0,0,1,-0.24,107.52)">
                <path d="M130.243,90.368L130.243,80.554L132.06,80.554C132.426,80.554 132.666,80.718 132.779,81.046L132.94,81.576C133.104,81.406 133.275,81.25 133.451,81.108C133.628,80.966 133.819,80.843 134.024,80.739C134.229,80.635 134.45,80.553 134.686,80.493C134.923,80.433 135.183,80.403 135.467,80.403C136.06,80.403 136.551,80.556 136.939,80.862C137.326,81.168 137.621,81.576 137.824,82.087C137.988,81.785 138.188,81.526 138.425,81.311C138.661,81.097 138.916,80.923 139.191,80.791C139.465,80.658 139.756,80.56 140.062,80.497C140.368,80.434 140.672,80.403 140.975,80.403C141.536,80.403 142.035,80.487 142.47,80.654C142.906,80.821 143.27,81.064 143.563,81.382C143.857,81.701 144.079,82.092 144.23,82.556C144.382,83.019 144.457,83.545 144.457,84.131L144.457,90.368L141.524,90.368L141.524,84.131C141.524,83.116 141.088,82.608 140.218,82.608C139.82,82.608 139.491,82.739 139.229,83C138.967,83.263 138.836,83.639 138.836,84.131L138.836,90.368L135.902,90.368L135.902,84.131C135.902,83.57 135.792,83.176 135.571,82.949C135.35,82.722 135.025,82.608 134.597,82.608C134.331,82.608 134.08,82.668 133.844,82.787C133.607,82.908 133.385,83.068 133.177,83.27L133.177,90.368L130.243,90.368Z" style="fill:rgb(63,48,88);fill-rule:nonzero;"/>
            </g>
        </g>
        <g transform="matrix(4.16667,0,0,4.16667,0,0)">
            <g transform="matrix(1,0,0,1,-0.24,107.52)">
                <path d="M151.886,86.374C151.3,86.399 150.817,86.45 150.438,86.525C150.06,86.601 149.76,86.696 149.539,86.81C149.318,86.923 149.165,87.052 149.08,87.197C148.995,87.343 148.952,87.5 148.952,87.67C148.952,88.005 149.044,88.24 149.227,88.375C149.41,88.511 149.678,88.579 150.031,88.579C150.41,88.579 150.741,88.513 151.025,88.38C151.309,88.248 151.596,88.033 151.886,87.737L151.886,86.374ZM146.605,81.916C147.199,81.393 147.856,81.003 148.578,80.748C149.301,80.492 150.075,80.365 150.902,80.365C151.495,80.365 152.03,80.461 152.506,80.653C152.982,80.846 153.386,81.114 153.718,81.457C154.049,81.802 154.303,82.21 154.479,82.683C154.656,83.156 154.744,83.674 154.744,84.235L154.744,90.368L153.4,90.368C153.123,90.368 152.913,90.33 152.771,90.254C152.629,90.178 152.511,90.021 152.416,89.781L152.208,89.242C151.962,89.45 151.725,89.633 151.498,89.791C151.271,89.948 151.036,90.082 150.793,90.192C150.55,90.303 150.291,90.385 150.017,90.438C149.742,90.492 149.438,90.519 149.104,90.519C148.656,90.519 148.249,90.46 147.883,90.344C147.517,90.228 147.206,90.055 146.951,89.828C146.695,89.601 146.498,89.319 146.359,88.981C146.22,88.644 146.151,88.254 146.151,87.812C146.151,87.459 146.24,87.101 146.416,86.738C146.593,86.375 146.899,86.044 147.334,85.745C147.769,85.445 148.356,85.194 149.094,84.992C149.832,84.791 150.763,84.677 151.886,84.651L151.886,84.235C151.886,83.661 151.768,83.246 151.531,82.991C151.295,82.735 150.959,82.607 150.523,82.607C150.177,82.607 149.892,82.645 149.672,82.721C149.451,82.797 149.254,82.882 149.08,82.977C148.907,83.071 148.738,83.156 148.574,83.232C148.41,83.308 148.214,83.346 147.987,83.346C147.785,83.346 147.615,83.295 147.476,83.194C147.337,83.093 147.223,82.974 147.136,82.834L146.605,81.916Z" style="fill:rgb(63,48,88);fill-rule:nonzero;"/>
            </g>
        </g>
        <g transform="matrix(4.16667,0,0,4.16667,0,0)">
            <g transform="matrix(1,0,0,1,-0.24,107.52)">
                <path d="M163.043,83.185C162.822,82.945 162.583,82.775 162.324,82.674C162.065,82.573 161.794,82.523 161.51,82.523C161.239,82.523 160.989,82.575 160.762,82.679C160.535,82.783 160.338,82.949 160.171,83.176C160.003,83.403 159.873,83.693 159.778,84.046C159.684,84.4 159.636,84.822 159.636,85.314C159.636,86.261 159.786,86.944 160.085,87.363C160.385,87.783 160.813,87.993 161.368,87.993C161.721,87.993 162.026,87.914 162.281,87.756C162.537,87.599 162.791,87.368 163.043,87.065L163.043,83.185ZM165.977,80.554L165.977,89.497C165.977,90.103 165.857,90.664 165.617,91.182C165.377,91.699 165.035,92.144 164.59,92.517C164.146,92.889 163.605,93.18 162.967,93.392C162.33,93.603 161.614,93.709 160.819,93.709C160.365,93.709 159.948,93.676 159.57,93.609C159.191,93.543 158.846,93.453 158.534,93.34C158.221,93.226 157.942,93.094 157.696,92.942C157.45,92.791 157.232,92.63 157.043,92.459L157.725,91.371C157.8,91.245 157.897,91.147 158.013,91.078C158.13,91.008 158.279,90.974 158.462,90.974C158.633,90.974 158.784,91.01 158.917,91.082C159.049,91.155 159.194,91.237 159.352,91.329C159.51,91.42 159.696,91.502 159.911,91.575C160.125,91.647 160.399,91.684 160.734,91.684C161.119,91.684 161.456,91.628 161.747,91.518C162.037,91.408 162.278,91.258 162.471,91.068C162.663,90.879 162.807,90.662 162.901,90.415C162.996,90.169 163.043,89.911 163.043,89.64L163.043,89.195C162.86,89.378 162.68,89.535 162.503,89.668C162.327,89.8 162.143,89.909 161.95,89.994C161.757,90.08 161.549,90.141 161.325,90.179C161.102,90.217 160.848,90.236 160.564,90.236C159.952,90.236 159.401,90.119 158.912,89.886C158.423,89.652 158.008,89.321 157.668,88.892C157.327,88.463 157.065,87.945 156.882,87.34C156.699,86.734 156.608,86.059 156.608,85.314C156.608,84.627 156.709,83.982 156.911,83.379C157.112,82.777 157.398,82.253 157.767,81.808C158.136,81.363 158.579,81.013 159.097,80.758C159.614,80.502 160.185,80.374 160.81,80.374C161.106,80.374 161.374,80.4 161.614,80.45C161.854,80.501 162.073,80.573 162.272,80.668C162.471,80.763 162.655,80.874 162.825,81.004C162.996,81.133 163.16,81.277 163.317,81.435L163.44,81.046C163.554,80.718 163.794,80.554 164.16,80.554L165.977,80.554Z" style="fill:rgb(63,48,88);fill-rule:nonzero;"/>
            </g>
        </g>
        <g transform="matrix(4.16667,0,0,4.16667,0,0)">
            <g transform="matrix(1,0,0,1,-0.24,107.52)">
                <path d="M172.952,88.342C173.627,88.342 174.124,88.104 174.443,87.628C174.761,87.152 174.921,86.427 174.921,85.456C174.921,84.484 174.761,83.762 174.443,83.289C174.124,82.815 173.627,82.579 172.952,82.579C172.258,82.579 171.75,82.815 171.429,83.289C171.107,83.762 170.946,84.484 170.946,85.456C170.946,86.427 171.107,87.152 171.429,87.628C171.75,88.104 172.258,88.342 172.952,88.342M172.952,80.402C173.697,80.402 174.375,80.519 174.987,80.752C175.599,80.986 176.124,81.32 176.563,81.756C177.001,82.191 177.342,82.719 177.585,83.341C177.827,83.962 177.949,84.661 177.949,85.437C177.949,86.219 177.827,86.924 177.585,87.552C177.342,88.18 177.001,88.713 176.563,89.151C176.124,89.59 175.599,89.927 174.987,90.164C174.375,90.401 173.697,90.519 172.952,90.519C172.202,90.519 171.518,90.401 170.903,90.164C170.288,89.927 169.758,89.59 169.313,89.151C168.869,88.713 168.525,88.18 168.282,87.552C168.039,86.924 167.917,86.219 167.917,85.437C167.917,84.661 168.039,83.962 168.282,83.341C168.525,82.719 168.869,82.191 169.313,81.756C169.758,81.32 170.288,80.986 170.903,80.752C171.518,80.519 172.202,80.402 172.952,80.402" style="fill:rgb(63,48,88);fill-rule:nonzero;"/>
            </g>
        </g>
        <g transform="matrix(4.16667,0,0,4.16667,0,0)">
            <g transform="matrix(1,0,0,1,-0.24,107.52)">
                <path d="M185.851,83.185C185.63,82.945 185.391,82.775 185.132,82.674C184.873,82.573 184.602,82.523 184.318,82.523C184.047,82.523 183.797,82.575 183.57,82.679C183.343,82.783 183.146,82.949 182.979,83.176C182.811,83.403 182.681,83.693 182.586,84.046C182.492,84.4 182.444,84.822 182.444,85.314C182.444,86.261 182.594,86.944 182.893,87.363C183.193,87.783 183.621,87.993 184.176,87.993C184.529,87.993 184.834,87.914 185.089,87.756C185.345,87.599 185.599,87.368 185.851,87.065L185.851,83.185ZM188.785,80.554L188.785,89.497C188.785,90.103 188.665,90.664 188.425,91.182C188.185,91.699 187.843,92.144 187.398,92.517C186.954,92.889 186.413,93.18 185.775,93.392C185.138,93.603 184.422,93.709 183.627,93.709C183.173,93.709 182.756,93.676 182.378,93.609C181.999,93.543 181.654,93.453 181.342,93.34C181.029,93.226 180.75,93.094 180.504,92.942C180.258,92.791 180.04,92.63 179.851,92.459L180.533,91.371C180.608,91.245 180.705,91.147 180.821,91.078C180.938,91.008 181.087,90.974 181.27,90.974C181.441,90.974 181.592,91.01 181.725,91.082C181.857,91.155 182.002,91.237 182.16,91.329C182.318,91.42 182.504,91.502 182.719,91.575C182.933,91.647 183.207,91.684 183.542,91.684C183.927,91.684 184.264,91.628 184.555,91.518C184.845,91.408 185.086,91.258 185.279,91.068C185.471,90.879 185.615,90.662 185.709,90.415C185.804,90.169 185.851,89.911 185.851,89.64L185.851,89.195C185.668,89.378 185.488,89.535 185.311,89.668C185.135,89.8 184.951,89.909 184.758,89.994C184.565,90.08 184.357,90.141 184.133,90.179C183.91,90.217 183.656,90.236 183.372,90.236C182.76,90.236 182.209,90.119 181.72,89.886C181.231,89.652 180.816,89.321 180.476,88.892C180.135,88.463 179.873,87.945 179.69,87.34C179.507,86.734 179.416,86.059 179.416,85.314C179.416,84.627 179.517,83.982 179.719,83.379C179.92,82.777 180.206,82.253 180.575,81.808C180.944,81.363 181.387,81.013 181.905,80.758C182.422,80.502 182.993,80.374 183.618,80.374C183.914,80.374 184.182,80.4 184.422,80.45C184.662,80.501 184.881,80.573 185.08,80.668C185.279,80.763 185.463,80.874 185.633,81.004C185.804,81.133 185.968,81.277 186.125,81.435L186.248,81.046C186.362,80.718 186.602,80.554 186.968,80.554L188.785,80.554Z" style="fill:rgb(63,48,88);fill-rule:nonzero;"/>
            </g>
        </g>
        <g transform="matrix(4.16667,0,0,4.16667,0,0)">
            <g transform="matrix(1,0,0,1,-0.24,107.52)">
                <path d="M194.329,77.177C194.295,77.218 194.263,77.251 194.231,77.275C194.2,77.299 194.155,77.311 194.098,77.311C194.042,77.311 193.992,77.298 193.947,77.271C193.903,77.245 193.852,77.215 193.797,77.182C193.742,77.15 193.676,77.12 193.601,77.094C193.527,77.067 193.434,77.054 193.323,77.054C193.185,77.054 193.066,77.079 192.966,77.13C192.866,77.181 192.784,77.253 192.719,77.347C192.653,77.441 192.605,77.556 192.574,77.693C192.542,77.829 192.527,77.983 192.527,78.154C192.527,78.514 192.596,78.79 192.735,78.983C192.873,79.176 193.065,79.273 193.308,79.273C193.439,79.273 193.542,79.256 193.618,79.224C193.694,79.191 193.758,79.155 193.811,79.115C193.865,79.075 193.913,79.038 193.958,79.005C194.003,78.971 194.059,78.954 194.126,78.954C194.216,78.954 194.283,78.987 194.329,79.052L194.655,79.453C194.539,79.586 194.417,79.694 194.289,79.778C194.162,79.861 194.031,79.926 193.896,79.973C193.763,80.02 193.628,80.052 193.493,80.071C193.358,80.089 193.226,80.098 193.099,80.098C192.87,80.098 192.65,80.054 192.442,79.968C192.233,79.881 192.05,79.755 191.891,79.589C191.733,79.424 191.608,79.22 191.515,78.979C191.422,78.738 191.376,78.463 191.376,78.154C191.376,77.884 191.416,77.631 191.497,77.396C191.578,77.161 191.697,76.957 191.855,76.784C192.014,76.612 192.209,76.476 192.442,76.377C192.675,76.279 192.944,76.229 193.25,76.229C193.545,76.229 193.803,76.276 194.025,76.37C194.247,76.464 194.447,76.602 194.626,76.782L194.329,77.177Z" style="fill:rgb(63,48,88);fill-rule:nonzero;"/>
            </g>
        </g>
        <g transform="matrix(4.16667,0,0,4.16667,0,0)">
            <g transform="matrix(1,0,0,1,-0.24,107.52)">
                <path d="M198.064,76.735C198.064,76.812 198.051,76.887 198.024,76.96C197.998,77.032 197.962,77.091 197.919,77.137L196.352,79.207L198.028,79.207L198.028,80.039L195.06,80.039L195.06,79.583C195.06,79.537 195.072,79.48 195.096,79.409C195.12,79.339 195.157,79.275 195.205,79.214L196.786,77.119L195.161,77.119L195.161,76.286L198.064,76.286L198.064,76.735Z" style="fill:rgb(63,48,88);fill-rule:nonzero;"/>
            </g>
        </g>
    </g>
</svg>
