<?xml version="1.0" encoding="UTF-8" standalone="no"?>
<!DOCTYPE svg PUBLIC "-//W3C//DTD SVG 1.1//EN" "http://www.w3.org/Graphics/SVG/1.1/DTD/svg11.dtd">
<svg width="100%" height="100%" viewBox="0 0 513 107" version="1.1" xmlns="http://www.w3.org/2000/svg" xmlns:xlink="http://www.w3.org/1999/xlink" xml:space="preserve" style="fill-rule:evenodd;clip-rule:evenodd;stroke-linejoin:round;stroke-miterlimit:1.41421;">
    <g transform="matrix(1,0,0,1,-1519.66,-762.328)">
        <g transform="matrix(4.16667,0,0,4.16667,0,0)">
            <path d="M388.427,189.057C386.17,185.403 382.141,182.959 377.531,182.959C370.455,182.959 364.719,188.696 364.719,195.772C364.719,202.848 370.455,208.583 377.531,208.583C382.13,208.583 386.151,206.152 388.411,202.512L376.338,195.826L388.427,189.057Z" style="fill:rgb(236,101,58);fill-rule:nonzero;"/>
        </g>
        <g transform="matrix(4.16667,0,0,4.16667,0,0)">
            <path d="M404.365,191.122C404.365,190.402 404.271,189.756 404.082,189.182C403.892,188.607 403.621,188.122 403.267,187.725C402.914,187.327 402.484,187.021 401.976,186.807C401.469,186.592 400.892,186.484 400.249,186.484L397.826,186.484L397.826,195.768L400.249,195.768C400.892,195.768 401.469,195.663 401.976,195.451C402.484,195.24 402.914,194.935 403.267,194.533C403.621,194.133 403.892,193.645 404.082,193.072C404.271,192.498 404.365,191.848 404.365,191.122M407.281,191.122C407.281,192.125 407.111,193.048 406.774,193.891C406.436,194.732 405.961,195.457 405.345,196.062C404.73,196.668 403.99,197.141 403.126,197.481C402.261,197.822 401.302,197.992 400.249,197.992L394.969,197.992L394.969,184.261L400.249,184.261C401.302,184.261 402.261,184.432 403.126,184.771C403.99,185.113 404.73,185.588 405.345,186.196C405.961,186.805 406.436,187.529 406.774,188.368C407.111,189.207 407.281,190.125 407.281,191.122" style="fill:white;fill-rule:nonzero;"/>
        </g>
        <g transform="matrix(4.16667,0,0,4.16667,0,0)">
            <path d="M415.561,191.965C415.561,191.694 415.525,191.435 415.453,191.189C415.38,190.943 415.265,190.725 415.108,190.535C414.95,190.346 414.75,190.196 414.51,190.086C414.272,189.976 413.984,189.92 413.65,189.92C413.025,189.92 412.536,190.097 412.183,190.45C411.83,190.804 411.599,191.309 411.493,191.965L415.561,191.965ZM411.453,193.516C411.536,194.432 411.796,195.1 412.234,195.523C412.673,195.945 413.246,196.156 413.953,196.156C414.313,196.156 414.623,196.114 414.885,196.029C415.147,195.944 415.376,195.85 415.575,195.745C415.774,195.641 415.953,195.547 416.116,195.461C416.275,195.376 416.436,195.334 416.592,195.334C416.794,195.334 416.953,195.409 417.066,195.561L417.823,196.507C417.544,196.828 417.239,197.096 416.905,197.307C416.571,197.518 416.224,197.686 415.864,197.809C415.503,197.932 415.142,198.016 414.775,198.064C414.411,198.111 414.056,198.135 413.715,198.135C413.035,198.135 412.399,198.023 411.809,197.799C411.219,197.574 410.705,197.244 410.265,196.805C409.828,196.367 409.483,195.822 409.231,195.172C408.977,194.524 408.852,193.769 408.852,192.91C408.852,192.248 408.96,191.623 409.178,191.037C409.395,190.45 409.709,189.94 410.12,189.504C410.53,189.069 411.027,188.723 411.616,188.467C412.202,188.212 412.864,188.084 413.602,188.084C414.227,188.084 414.803,188.184 415.33,188.383C415.856,188.581 416.311,188.869 416.691,189.248C417.075,189.627 417.371,190.092 417.582,190.645C417.793,191.196 417.899,191.826 417.899,192.532C417.899,192.728 417.888,192.889 417.871,193.015C417.852,193.141 417.821,193.242 417.775,193.318C417.732,193.394 417.672,193.445 417.596,193.474C417.52,193.502 417.422,193.516 417.303,193.516L411.453,193.516Z" style="fill:white;fill-rule:nonzero;"/>
        </g>
        <g transform="matrix(4.16667,0,0,4.16667,0,0)">
            <path d="M419.99,197.992L419.99,188.236L421.598,188.236C421.927,188.236 422.144,188.387 422.252,188.689L422.403,189.324C422.574,189.147 422.748,188.983 422.928,188.832C423.108,188.679 423.303,188.549 423.51,188.439C423.719,188.328 423.944,188.242 424.187,188.179C424.429,188.115 424.693,188.084 424.977,188.084C425.576,188.084 426.072,188.244 426.463,188.562C426.854,188.881 427.15,189.304 427.352,189.835C427.51,189.525 427.705,189.26 427.934,189.035C428.165,188.811 428.418,188.63 428.691,188.491C428.967,188.352 429.256,188.25 429.562,188.183C429.869,188.117 430.176,188.084 430.485,188.084C431.034,188.084 431.519,188.166 431.943,188.33C432.365,188.494 432.72,188.736 433.008,189.054C433.295,189.373 433.513,189.763 433.665,190.222C433.816,190.683 433.892,191.207 433.892,191.794L433.892,197.992L431.28,197.992L431.28,191.794C431.28,190.652 430.791,190.081 429.813,190.081C429.592,190.081 429.388,190.117 429.203,190.189C429.016,190.263 428.852,190.371 428.711,190.516C428.568,190.662 428.459,190.842 428.379,191.055C428.301,191.27 428.261,191.516 428.261,191.794L428.261,197.992L425.649,197.992L425.649,191.794C425.649,191.176 425.527,190.736 425.285,190.473C425.042,190.212 424.683,190.081 424.211,190.081C423.908,190.081 423.623,190.152 423.354,190.294C423.086,190.435 422.836,190.633 422.601,190.885L422.601,197.992L419.99,197.992Z" style="fill:white;fill-rule:nonzero;"/>
        </g>
        <g transform="matrix(4.16667,0,0,4.16667,0,0)">
            <path d="M441.529,193.914C440.892,193.945 440.362,194 439.939,194.08C439.516,194.158 439.18,194.261 438.931,194.387C438.681,194.514 438.506,194.656 438.402,194.817C438.297,194.978 438.246,195.154 438.246,195.343C438.246,195.721 438.351,195.99 438.562,196.147C438.773,196.305 439.068,196.384 439.447,196.384C439.883,196.384 440.259,196.307 440.578,196.152C440.896,195.998 441.214,195.756 441.529,195.428L441.529,193.914ZM436.211,189.589C436.785,189.072 437.419,188.685 438.113,188.43C438.806,188.174 439.557,188.047 440.365,188.047C440.945,188.047 441.465,188.141 441.922,188.33C442.379,188.519 442.767,188.783 443.086,189.121C443.404,189.458 443.649,189.86 443.82,190.327C443.99,190.794 444.075,191.305 444.075,191.86L444.075,197.992L442.883,197.992C442.636,197.992 442.449,197.958 442.32,197.889C442.19,197.819 442.084,197.674 442.002,197.453L441.795,196.828C441.549,197.043 441.31,197.232 441.08,197.396C440.849,197.56 440.611,197.697 440.365,197.809C440.119,197.918 439.855,198.002 439.575,198.059C439.295,198.115 438.98,198.144 438.633,198.144C438.205,198.144 437.813,198.088 437.46,197.974C437.106,197.86 436.802,197.691 436.547,197.467C436.291,197.244 436.093,196.965 435.955,196.63C435.816,196.295 435.747,195.91 435.747,195.475C435.747,195.115 435.838,194.756 436.021,194.396C436.205,194.037 436.518,193.711 436.963,193.417C437.408,193.123 438.001,192.881 438.742,192.688C439.483,192.496 440.412,192.387 441.529,192.361L441.529,191.86C441.529,191.248 441.4,190.799 441.141,190.512C440.883,190.225 440.509,190.081 440.025,190.081C439.665,190.081 439.365,190.123 439.125,190.209C438.885,190.294 438.675,190.385 438.496,190.483C438.316,190.581 438.147,190.672 437.99,190.758C437.832,190.843 437.649,190.885 437.441,190.885C437.258,190.885 437.105,190.84 436.982,190.748C436.859,190.656 436.756,190.548 436.674,190.422L436.211,189.589Z" style="fill:white;fill-rule:nonzero;"/>
        </g>
        <g transform="matrix(4.16667,0,0,4.16667,0,0)">
            <path d="M452.63,190.781C452.391,190.498 452.123,190.297 451.83,190.179C451.537,190.064 451.23,190.006 450.908,190.006C450.592,190.006 450.305,190.064 450.047,190.179C449.787,190.297 449.565,190.478 449.379,190.724C449.193,190.97 449.049,191.279 448.949,191.652C448.848,192.024 448.797,192.466 448.797,192.976C448.797,193.482 448.84,193.914 448.925,194.273C449.01,194.633 449.135,194.929 449.299,195.163C449.463,195.396 449.663,195.566 449.9,195.674C450.137,195.781 450.409,195.835 450.719,195.835C451.122,195.835 451.473,195.744 451.769,195.56C452.065,195.377 452.352,195.115 452.63,194.775L452.63,190.781ZM455.233,188.236L455.233,197.207C455.233,197.806 455.119,198.358 454.892,198.863C454.664,199.368 454.336,199.804 453.908,200.174C453.479,200.543 452.957,200.832 452.342,201.04C451.727,201.248 451.033,201.351 450.264,201.351C449.828,201.351 449.426,201.319 449.057,201.253C448.689,201.186 448.351,201.097 448.045,200.988C447.738,200.877 447.465,200.746 447.221,200.595C446.979,200.443 446.762,200.283 446.573,200.112L447.179,199.137C447.248,199.017 447.335,198.926 447.44,198.863C447.543,198.801 447.678,198.768 447.842,198.768C447.999,198.768 448.145,198.808 448.276,198.886C448.409,198.966 448.557,199.052 448.721,199.147C448.885,199.242 449.082,199.328 449.313,199.408C449.543,199.486 449.835,199.525 450.189,199.525C450.592,199.525 450.947,199.467 451.253,199.35C451.559,199.234 451.815,199.074 452.02,198.873C452.225,198.671 452.377,198.437 452.479,198.172C452.579,197.908 452.63,197.627 452.63,197.33L452.63,196.724C452.441,196.927 452.252,197.097 452.063,197.24C451.873,197.383 451.676,197.5 451.471,197.595C451.266,197.689 451.043,197.76 450.803,197.802C450.564,197.847 450.299,197.869 450.008,197.869C449.402,197.869 448.859,197.756 448.376,197.529C447.893,197.302 447.483,196.974 447.146,196.549C446.809,196.123 446.549,195.609 446.369,195.007C446.19,194.404 446.1,193.728 446.1,192.976C446.1,192.289 446.199,191.646 446.399,191.047C446.597,190.447 446.879,189.926 447.245,189.484C447.611,189.043 448.053,188.695 448.57,188.439C449.088,188.183 449.662,188.055 450.293,188.055C450.885,188.055 451.383,188.155 451.783,188.353C452.184,188.552 452.541,188.819 452.858,189.154L452.981,188.689C453.081,188.386 453.299,188.236 453.633,188.236L455.233,188.236Z" style="fill:white;fill-rule:nonzero;"/>
        </g>
        <g transform="matrix(4.16667,0,0,4.16667,0,0)">
            <path d="M462.264,196.176C463.008,196.176 463.561,195.918 463.92,195.405C464.28,194.891 464.459,194.125 464.459,193.11C464.459,192.1 464.28,191.338 463.92,190.824C463.561,190.31 463.008,190.053 462.264,190.053C461.5,190.053 460.94,190.31 460.579,190.824C460.22,191.338 460.039,192.1 460.039,193.11C460.039,194.125 460.22,194.891 460.579,195.405C460.94,195.918 461.5,196.176 462.264,196.176M462.264,188.084C462.996,188.084 463.661,188.201 464.26,188.435C464.86,188.668 465.374,189 465.803,189.433C466.233,189.865 466.564,190.391 466.797,191.008C467.031,191.627 467.147,192.324 467.147,193.1C467.147,193.876 467.031,194.574 466.797,195.197C466.564,195.819 466.233,196.346 465.803,196.781C465.374,197.217 464.86,197.551 464.26,197.785C463.661,198.018 462.996,198.135 462.264,198.135C461.526,198.135 460.856,198.018 460.252,197.785C459.651,197.551 459.135,197.217 458.705,196.781C458.277,196.346 457.944,195.819 457.707,195.197C457.471,194.574 457.352,193.876 457.352,193.1C457.352,192.324 457.471,191.627 457.707,191.008C457.944,190.391 458.277,189.865 458.705,189.433C459.135,189 459.651,188.668 460.252,188.435C460.856,188.201 461.526,188.084 462.264,188.084" style="fill:white;fill-rule:nonzero;"/>
        </g>
        <g transform="matrix(4.16667,0,0,4.16667,0,0)">
            <path d="M475.305,190.781C475.065,190.498 474.799,190.297 474.505,190.179C474.211,190.064 473.905,190.006 473.582,190.006C473.267,190.006 472.98,190.064 472.721,190.179C472.463,190.297 472.241,190.478 472.054,190.724C471.867,190.97 471.725,191.279 471.623,191.652C471.523,192.024 471.472,192.466 471.472,192.976C471.472,193.482 471.515,193.914 471.6,194.273C471.686,194.633 471.81,194.929 471.974,195.163C472.138,195.396 472.338,195.566 472.575,195.674C472.811,195.781 473.084,195.835 473.393,195.835C473.797,195.835 474.147,195.744 474.444,195.56C474.741,195.377 475.028,195.115 475.305,194.775L475.305,190.781ZM477.908,188.236L477.908,197.207C477.908,197.806 477.793,198.358 477.567,198.863C477.34,199.368 477.012,199.804 476.582,200.174C476.154,200.543 475.631,200.832 475.016,201.04C474.401,201.248 473.709,201.351 472.94,201.351C472.504,201.351 472.102,201.319 471.733,201.253C471.364,201.186 471.026,201.097 470.72,200.988C470.414,200.877 470.139,200.746 469.897,200.595C469.654,200.443 469.438,200.283 469.248,200.112L469.854,199.137C469.923,199.017 470.01,198.926 470.114,198.863C470.218,198.801 470.352,198.768 470.516,198.768C470.674,198.768 470.819,198.808 470.951,198.886C471.084,198.966 471.233,199.052 471.397,199.147C471.561,199.242 471.758,199.328 471.989,199.408C472.218,199.486 472.51,199.525 472.864,199.525C473.267,199.525 473.621,199.467 473.928,199.35C474.235,199.234 474.49,199.074 474.695,198.873C474.9,198.671 475.053,198.437 475.154,198.172C475.254,197.908 475.305,197.627 475.305,197.33L475.305,196.724C475.116,196.927 474.926,197.097 474.737,197.24C474.547,197.383 474.35,197.5 474.146,197.595C473.941,197.689 473.718,197.76 473.479,197.802C473.239,197.847 472.973,197.869 472.684,197.869C472.078,197.869 471.534,197.756 471.051,197.529C470.569,197.302 470.159,196.974 469.821,196.549C469.483,196.123 469.225,195.609 469.045,195.007C468.866,194.404 468.776,193.728 468.776,192.976C468.776,192.289 468.874,191.646 469.073,191.047C469.272,190.447 469.554,189.926 469.92,189.484C470.285,189.043 470.728,188.695 471.244,188.439C471.762,188.183 472.336,188.055 472.967,188.055C473.561,188.055 474.057,188.155 474.457,188.353C474.859,188.552 475.217,188.819 475.532,189.154L475.655,188.689C475.756,188.386 475.973,188.236 476.308,188.236L477.908,188.236Z" style="fill:white;fill-rule:nonzero;"/>
        </g>
        <g transform="matrix(4.16667,0,0,4.16667,0,0)">
            <path d="M484.048,184.802C484.015,184.843 483.982,184.876 483.95,184.9C483.919,184.924 483.874,184.936 483.817,184.936C483.761,184.936 483.711,184.923 483.666,184.897C483.622,184.87 483.571,184.84 483.517,184.808C483.461,184.776 483.396,184.745 483.32,184.719C483.246,184.693 483.153,184.679 483.042,184.679C482.904,184.679 482.785,184.704 482.686,184.755C482.585,184.806 482.503,184.878 482.438,184.973C482.372,185.067 482.324,185.182 482.293,185.318C482.262,185.454 482.246,185.609 482.246,185.78C482.246,186.139 482.316,186.415 482.454,186.609C482.593,186.801 482.784,186.898 483.027,186.898C483.158,186.898 483.261,186.881 483.337,186.849C483.413,186.817 483.478,186.781 483.53,186.74C483.584,186.7 483.633,186.663 483.677,186.63C483.722,186.596 483.778,186.579 483.846,186.579C483.935,186.579 484.002,186.612 484.048,186.677L484.374,187.078C484.258,187.211 484.136,187.32 484.009,187.403C483.881,187.486 483.75,187.551 483.615,187.598C483.482,187.645 483.348,187.678 483.212,187.696C483.077,187.714 482.945,187.723 482.818,187.723C482.589,187.723 482.369,187.68 482.161,187.593C481.952,187.506 481.769,187.38 481.61,187.214C481.452,187.049 481.327,186.846 481.235,186.605C481.142,186.364 481.095,186.088 481.095,185.78C481.095,185.509 481.136,185.256 481.216,185.022C481.297,184.786 481.416,184.582 481.574,184.409C481.733,184.238 481.928,184.102 482.161,184.002C482.394,183.904 482.663,183.854 482.97,183.854C483.264,183.854 483.523,183.902 483.744,183.995C483.966,184.089 484.166,184.227 484.345,184.407L484.048,184.802Z" style="fill:white;fill-rule:nonzero;"/>
        </g>
        <g transform="matrix(4.16667,0,0,4.16667,0,0)">
            <path d="M487.783,184.36C487.783,184.437 487.769,184.512 487.743,184.585C487.717,184.657 487.681,184.716 487.637,184.762L486.071,186.832L487.747,186.832L487.747,187.665L484.779,187.665L484.779,187.209C484.779,187.163 484.791,187.105 484.815,187.035C484.839,186.964 484.876,186.9 484.924,186.839L486.505,184.744L484.88,184.744L484.88,183.912L487.783,183.912L487.783,184.36Z" style="fill:white;fill-rule:nonzero;"/>
        </g>
        <g transform="matrix(4.16667,0,0,4.16667,0,0)">
            <path d="M401.457,204.66L401.457,205.439L402.445,205.439L402.445,205.832L401.457,205.832L401.457,206.905L400.965,206.905L400.965,204.269L402.627,204.269L402.627,204.66L401.457,204.66Z" style="fill:white;fill-rule:nonzero;"/>
        </g>
        <g transform="matrix(4.16667,0,0,4.16667,0,0)">
            <path d="M404.568,205.91L404.248,205.033C404.232,204.994 404.215,204.949 404.198,204.894C404.181,204.842 404.164,204.784 404.147,204.723C404.131,204.784 404.115,204.842 404.098,204.896C404.081,204.95 404.064,204.997 404.048,205.037L403.73,205.91L404.568,205.91ZM405.434,206.905L405.054,206.905C405.012,206.905 404.977,206.894 404.951,206.873C404.924,206.851 404.904,206.826 404.89,206.794L404.694,206.256L403.602,206.256L403.406,206.794C403.396,206.822 403.377,206.847 403.349,206.871C403.321,206.893 403.287,206.905 403.245,206.905L402.862,206.905L403.899,204.269L404.399,204.269L405.434,206.905Z" style="fill:white;fill-rule:nonzero;"/>
        </g>
        <g transform="matrix(4.16667,0,0,4.16667,0,0)">
            <path d="M407.803,206.283C407.83,206.283 407.854,206.294 407.874,206.314L408.068,206.524C407.961,206.656 407.829,206.758 407.673,206.828C407.517,206.899 407.329,206.934 407.111,206.934C406.915,206.934 406.74,206.9 406.583,206.834C406.427,206.767 406.294,206.674 406.184,206.554C406.073,206.436 405.989,206.294 405.929,206.129C405.87,205.964 405.841,205.783 405.841,205.588C405.841,205.389 405.872,205.209 405.936,205.044C405.998,204.879 406.088,204.737 406.202,204.618C406.318,204.499 406.454,204.406 406.614,204.34C406.773,204.273 406.949,204.241 407.142,204.241C407.334,204.241 407.504,204.272 407.654,204.336C407.802,204.398 407.929,204.481 408.033,204.584L407.869,204.811C407.86,204.826 407.847,204.839 407.831,204.849C407.817,204.86 407.795,204.866 407.769,204.866C407.75,204.866 407.732,204.861 407.712,204.85C407.693,204.84 407.671,204.828 407.649,204.812C407.625,204.797 407.599,204.78 407.569,204.762C407.538,204.744 407.503,204.726 407.463,204.712C407.422,204.697 407.376,204.683 407.324,204.674C407.271,204.664 407.209,204.658 407.14,204.658C407.023,204.658 406.914,204.679 406.817,204.721C406.719,204.763 406.635,204.824 406.565,204.903C406.493,204.982 406.439,205.08 406.401,205.195C406.362,205.309 406.342,205.441 406.342,205.588C406.342,205.736 406.363,205.867 406.405,205.983C406.447,206.098 406.503,206.195 406.575,206.275C406.647,206.353 406.732,206.414 406.828,206.456C406.926,206.498 407.031,206.519 407.142,206.519C407.208,206.519 407.269,206.515 407.324,206.508C407.377,206.5 407.427,206.489 407.473,206.472C407.518,206.457 407.562,206.437 407.602,206.412C407.643,206.387 407.683,206.357 407.723,206.32C407.736,206.309 407.748,206.301 407.762,206.294C407.775,206.287 407.789,206.283 407.803,206.283" style="fill:white;fill-rule:nonzero;"/>
        </g>
        <g transform="matrix(4.16667,0,0,4.16667,0,0)">
            <path d="M410.609,204.673L409.815,204.673L409.815,206.905L409.325,206.905L409.325,204.673L408.53,204.673L408.53,204.27L410.609,204.27L410.609,204.673Z" style="fill:white;fill-rule:nonzero;"/>
        </g>
        <g transform="matrix(4.16667,0,0,4.16667,0,0)">
            <path d="M413.042,206.283C413.069,206.283 413.093,206.294 413.113,206.314L413.307,206.524C413.2,206.656 413.068,206.758 412.912,206.828C412.756,206.899 412.568,206.934 412.35,206.934C412.154,206.934 411.979,206.9 411.822,206.834C411.666,206.767 411.533,206.674 411.423,206.554C411.312,206.436 411.228,206.294 411.168,206.129C411.109,205.964 411.08,205.783 411.08,205.588C411.08,205.389 411.111,205.209 411.175,205.044C411.237,204.879 411.327,204.737 411.441,204.618C411.557,204.499 411.693,204.406 411.853,204.34C412.012,204.273 412.188,204.241 412.381,204.241C412.573,204.241 412.743,204.272 412.893,204.336C413.041,204.398 413.168,204.481 413.272,204.584L413.108,204.811C413.099,204.826 413.086,204.839 413.07,204.849C413.056,204.86 413.034,204.866 413.008,204.866C412.989,204.866 412.971,204.861 412.951,204.85C412.932,204.84 412.91,204.828 412.888,204.812C412.864,204.797 412.838,204.78 412.808,204.762C412.777,204.744 412.742,204.726 412.702,204.712C412.661,204.697 412.615,204.683 412.563,204.674C412.51,204.664 412.448,204.658 412.379,204.658C412.262,204.658 412.153,204.679 412.056,204.721C411.958,204.763 411.874,204.824 411.804,204.903C411.732,204.982 411.678,205.08 411.64,205.195C411.601,205.309 411.581,205.441 411.581,205.588C411.581,205.736 411.602,205.867 411.644,205.983C411.686,206.098 411.742,206.195 411.814,206.275C411.886,206.353 411.971,206.414 412.067,206.456C412.165,206.498 412.27,206.519 412.381,206.519C412.447,206.519 412.508,206.515 412.563,206.508C412.616,206.5 412.666,206.489 412.712,206.472C412.757,206.457 412.801,206.437 412.841,206.412C412.882,206.387 412.922,206.357 412.962,206.32C412.975,206.309 412.987,206.301 413.001,206.294C413.014,206.287 413.028,206.283 413.042,206.283" style="fill:white;fill-rule:nonzero;"/>
        </g>
        <g transform="matrix(4.16667,0,0,4.16667,0,0)">
            <path d="M416.229,204.27L416.229,206.906L415.737,206.906L415.737,205.754L414.501,205.754L414.501,206.906L414.008,206.906L414.008,204.27L414.501,204.27L414.501,205.405L415.737,205.405L415.737,204.27L416.229,204.27Z" style="fill:white;fill-rule:nonzero;"/>
        </g>
        <g transform="matrix(4.16667,0,0,4.16667,0,0)">
            <path d="M417.672,204.66L417.672,205.39L418.595,205.39L418.595,205.767L417.672,205.767L417.672,206.514L418.842,206.514L418.842,206.905L417.18,206.905L417.18,204.269L418.842,204.269L418.842,204.66L417.672,204.66Z" style="fill:white;fill-rule:nonzero;"/>
        </g>
        <g transform="matrix(4.16667,0,0,4.16667,0,0)">
            <path d="M421.394,206.283C421.421,206.283 421.445,206.294 421.465,206.314L421.659,206.524C421.552,206.656 421.42,206.758 421.264,206.828C421.108,206.899 420.92,206.934 420.702,206.934C420.506,206.934 420.331,206.9 420.174,206.834C420.018,206.767 419.885,206.674 419.775,206.554C419.664,206.436 419.58,206.294 419.52,206.129C419.461,205.964 419.432,205.783 419.432,205.588C419.432,205.389 419.463,205.209 419.527,205.044C419.589,204.879 419.679,204.737 419.793,204.618C419.909,204.499 420.045,204.406 420.205,204.34C420.364,204.273 420.54,204.241 420.733,204.241C420.925,204.241 421.095,204.272 421.245,204.336C421.393,204.398 421.52,204.481 421.624,204.584L421.46,204.811C421.451,204.826 421.438,204.839 421.422,204.849C421.408,204.86 421.386,204.866 421.36,204.866C421.341,204.866 421.323,204.861 421.303,204.85C421.284,204.84 421.262,204.828 421.24,204.812C421.216,204.797 421.19,204.78 421.16,204.762C421.129,204.744 421.094,204.726 421.054,204.712C421.013,204.697 420.967,204.683 420.915,204.674C420.862,204.664 420.8,204.658 420.731,204.658C420.614,204.658 420.505,204.679 420.408,204.721C420.31,204.763 420.226,204.824 420.156,204.903C420.084,204.982 420.03,205.08 419.992,205.195C419.953,205.309 419.933,205.441 419.933,205.588C419.933,205.736 419.954,205.867 419.996,205.983C420.038,206.098 420.094,206.195 420.166,206.275C420.238,206.353 420.323,206.414 420.419,206.456C420.517,206.498 420.622,206.519 420.733,206.519C420.799,206.519 420.86,206.515 420.915,206.508C420.968,206.5 421.018,206.489 421.064,206.472C421.109,206.457 421.153,206.437 421.193,206.412C421.234,206.387 421.274,206.357 421.314,206.32C421.327,206.309 421.339,206.301 421.353,206.294C421.366,206.287 421.38,206.283 421.394,206.283" style="fill:white;fill-rule:nonzero;"/>
        </g>
        <g transform="matrix(4.16667,0,0,4.16667,0,0)">
            <path d="M422.85,205.375L422.965,205.375C423.011,205.375 423.049,205.368 423.08,205.355C423.111,205.343 423.136,205.322 423.159,205.295L423.885,204.374C423.915,204.335 423.948,204.309 423.981,204.293C424.015,204.277 424.057,204.27 424.108,204.27L424.531,204.27L423.643,205.365C423.591,205.432 423.537,205.479 423.481,205.508C423.521,205.521 423.557,205.543 423.589,205.568C423.621,205.595 423.653,205.629 423.681,205.672L424.596,206.905L424.164,206.905C424.106,206.905 424.063,206.896 424.034,206.881C424.005,206.864 423.982,206.84 423.962,206.809L423.217,205.836C423.194,205.803 423.166,205.779 423.136,205.766C423.106,205.753 423.063,205.746 423.005,205.746L422.85,205.746L422.85,206.905L422.36,206.905L422.36,204.27L422.85,204.27L422.85,205.375Z" style="fill:white;fill-rule:nonzero;"/>
        </g>
        <g transform="matrix(4.16667,0,0,4.16667,0,0)">
            <path d="M427.33,205.596C427.42,205.596 427.498,205.584 427.564,205.562C427.632,205.539 427.687,205.507 427.731,205.465C427.775,205.423 427.809,205.371 427.831,205.312C427.852,205.252 427.863,205.185 427.863,205.111C427.863,205.04 427.852,204.977 427.831,204.919C427.809,204.862 427.776,204.813 427.732,204.774C427.688,204.733 427.634,204.702 427.566,204.682C427.5,204.66 427.421,204.65 427.33,204.65L426.963,204.65L426.963,205.596L427.33,205.596ZM427.33,204.27C427.506,204.27 427.658,204.291 427.787,204.332C427.916,204.373 428.022,204.432 428.105,204.506C428.189,204.579 428.252,204.668 428.293,204.772C428.333,204.875 428.353,204.989 428.353,205.111C428.353,205.239 428.332,205.356 428.29,205.461C428.247,205.568 428.184,205.658 428.099,205.736C428.014,205.813 427.907,205.871 427.779,205.914C427.65,205.957 427.501,205.978 427.33,205.978L426.963,205.978L426.963,206.906L426.473,206.906L426.473,204.27L427.33,204.27Z" style="fill:white;fill-rule:nonzero;"/>
        </g>
        <g transform="matrix(4.16667,0,0,4.16667,0,0)">
            <path d="M431.106,205.588C431.106,205.443 431.086,205.314 431.047,205.199C431.008,205.084 430.953,204.986 430.881,204.906C430.81,204.826 430.722,204.765 430.62,204.723C430.517,204.68 430.402,204.658 430.272,204.658C430.144,204.658 430.028,204.68 429.925,204.723C429.823,204.765 429.736,204.826 429.664,204.906C429.591,204.986 429.536,205.084 429.497,205.199C429.458,205.314 429.438,205.443 429.438,205.588C429.438,205.733 429.458,205.861 429.497,205.977C429.536,206.092 429.591,206.19 429.664,206.269C429.736,206.348 429.823,206.409 429.925,206.451C430.028,206.494 430.144,206.516 430.272,206.516C430.402,206.516 430.517,206.494 430.62,206.451C430.722,206.409 430.81,206.348 430.881,206.269C430.953,206.19 431.008,206.092 431.047,205.977C431.086,205.861 431.106,205.733 431.106,205.588M431.607,205.588C431.607,205.781 431.575,205.96 431.51,206.125C431.448,206.289 431.357,206.432 431.241,206.552C431.123,206.672 430.984,206.766 430.82,206.834C430.656,206.9 430.473,206.935 430.272,206.935C430.074,206.935 429.892,206.9 429.728,206.834C429.564,206.766 429.423,206.672 429.306,206.552C429.189,206.432 429.098,206.289 429.034,206.125C428.969,205.96 428.937,205.781 428.937,205.588C428.937,205.395 428.969,205.216 429.034,205.051C429.098,204.887 429.189,204.744 429.306,204.623C429.423,204.504 429.564,204.41 429.728,204.342C429.892,204.276 430.074,204.241 430.272,204.241C430.407,204.241 430.532,204.256 430.65,204.287C430.768,204.318 430.876,204.362 430.974,204.418C431.073,204.475 431.162,204.544 431.24,204.625C431.318,204.705 431.384,204.795 431.439,204.895C431.494,204.994 431.536,205.104 431.564,205.22C431.592,205.336 431.607,205.459 431.607,205.588" style="fill:white;fill-rule:nonzero;"/>
        </g>
        <g transform="matrix(4.16667,0,0,4.16667,0,0)">
            <path d="M433.946,206.5L433.946,206.905L432.402,206.905L432.402,204.27L432.892,204.27L432.892,206.5L433.946,206.5Z" style="fill:white;fill-rule:nonzero;"/>
        </g>
        <g transform="matrix(4.16667,0,0,4.16667,0,0)">
            <rect x="434.66" y="204.269" width="0.492" height="2.636" style="fill:white;fill-rule:nonzero;"/>
        </g>
        <g transform="matrix(4.16667,0,0,4.16667,0,0)">
            <path d="M437.946,204.673L437.152,204.673L437.152,206.905L436.662,206.905L436.662,204.673L435.867,204.673L435.867,204.27L437.946,204.27L437.946,204.673Z" style="fill:white;fill-rule:nonzero;"/>
        </g>
        <g transform="matrix(4.16667,0,0,4.16667,0,0)">
            <rect x="438.656" y="204.269" width="0.492" height="2.636" style="fill:white;fill-rule:nonzero;"/>
        </g>
        <g transform="matrix(4.16667,0,0,4.16667,0,0)">
            <path d="M441.911,206.283C441.938,206.283 441.962,206.294 441.982,206.314L442.176,206.524C442.069,206.656 441.937,206.758 441.781,206.828C441.625,206.899 441.437,206.934 441.219,206.934C441.023,206.934 440.848,206.9 440.691,206.834C440.535,206.767 440.402,206.674 440.292,206.554C440.181,206.436 440.097,206.294 440.037,206.129C439.978,205.964 439.949,205.783 439.949,205.588C439.949,205.389 439.98,205.209 440.044,205.044C440.106,204.879 440.196,204.737 440.31,204.618C440.426,204.499 440.562,204.406 440.722,204.34C440.881,204.273 441.057,204.241 441.25,204.241C441.442,204.241 441.612,204.272 441.762,204.336C441.91,204.398 442.037,204.481 442.141,204.584L441.977,204.811C441.968,204.826 441.955,204.839 441.939,204.849C441.925,204.86 441.903,204.866 441.877,204.866C441.858,204.866 441.84,204.861 441.82,204.85C441.801,204.84 441.779,204.828 441.757,204.812C441.733,204.797 441.707,204.78 441.677,204.762C441.646,204.744 441.611,204.726 441.571,204.712C441.53,204.697 441.484,204.683 441.432,204.674C441.379,204.664 441.317,204.658 441.248,204.658C441.131,204.658 441.022,204.679 440.925,204.721C440.827,204.763 440.743,204.824 440.673,204.903C440.601,204.982 440.547,205.08 440.509,205.195C440.47,205.309 440.45,205.441 440.45,205.588C440.45,205.736 440.471,205.867 440.513,205.983C440.555,206.098 440.611,206.195 440.683,206.275C440.755,206.353 440.84,206.414 440.936,206.456C441.034,206.498 441.139,206.519 441.25,206.519C441.316,206.519 441.377,206.515 441.432,206.508C441.485,206.5 441.535,206.489 441.581,206.472C441.626,206.457 441.67,206.437 441.71,206.412C441.751,206.387 441.791,206.357 441.831,206.32C441.844,206.309 441.856,206.301 441.87,206.294C441.883,206.287 441.897,206.283 441.911,206.283" style="fill:white;fill-rule:nonzero;"/>
        </g>
        <g transform="matrix(4.16667,0,0,4.16667,0,0)">
            <path d="M443.367,205.375L443.482,205.375C443.528,205.375 443.566,205.368 443.597,205.355C443.628,205.343 443.653,205.322 443.676,205.295L444.402,204.374C444.432,204.335 444.465,204.309 444.498,204.293C444.532,204.277 444.574,204.27 444.625,204.27L445.048,204.27L444.16,205.365C444.108,205.432 444.054,205.479 443.998,205.508C444.038,205.521 444.074,205.543 444.106,205.568C444.138,205.595 444.17,205.629 444.198,205.672L445.113,206.905L444.681,206.905C444.623,206.905 444.58,206.896 444.551,206.881C444.522,206.864 444.499,206.84 444.479,206.809L443.734,205.836C443.711,205.803 443.683,205.779 443.653,205.766C443.623,205.753 443.58,205.746 443.522,205.746L443.367,205.746L443.367,206.905L442.877,206.905L442.877,204.27L443.367,204.27L443.367,205.375Z" style="fill:white;fill-rule:nonzero;"/>
        </g>
        <g transform="matrix(4.16667,0,0,4.16667,0,0)">
            <path d="M447.399,203.514L446.808,204.035C446.784,204.057 446.76,204.071 446.739,204.076C446.717,204.08 446.689,204.082 446.655,204.082L446.329,204.082L446.71,203.588C446.722,203.573 446.734,203.559 446.747,203.547C446.758,203.537 446.772,203.53 446.787,203.526C446.801,203.52 446.817,203.518 446.835,203.516C446.852,203.515 446.874,203.514 446.897,203.514L447.399,203.514ZM446.872,205.885L446.872,206.906L446.383,206.906L446.383,205.885L445.423,204.27L445.855,204.27C445.898,204.27 445.931,204.281 445.957,204.301C445.981,204.323 446.003,204.348 446.019,204.379L446.501,205.26C446.528,205.313 446.552,205.362 446.574,205.408C446.595,205.453 446.615,205.5 446.631,205.546C446.647,205.5 446.666,205.453 446.686,205.408C446.707,205.362 446.73,205.313 446.757,205.26L447.237,204.379C447.25,204.353 447.27,204.328 447.296,204.305C447.323,204.282 447.357,204.27 447.399,204.27L447.833,204.27L446.872,205.885Z" style="fill:white;fill-rule:nonzero;"/>
        </g>
        <g transform="matrix(4.16667,0,0,4.16667,0,0)">
            <path d="M450.123,206.283C450.15,206.283 450.174,206.294 450.194,206.314L450.388,206.524C450.281,206.656 450.149,206.758 449.993,206.828C449.837,206.899 449.649,206.934 449.431,206.934C449.235,206.934 449.06,206.9 448.903,206.834C448.747,206.767 448.614,206.674 448.504,206.554C448.393,206.436 448.309,206.294 448.249,206.129C448.19,205.964 448.161,205.783 448.161,205.588C448.161,205.389 448.192,205.209 448.256,205.044C448.318,204.879 448.408,204.737 448.522,204.618C448.638,204.499 448.774,204.406 448.934,204.34C449.093,204.273 449.269,204.241 449.462,204.241C449.654,204.241 449.824,204.272 449.974,204.336C450.122,204.398 450.249,204.481 450.353,204.584L450.189,204.811C450.18,204.826 450.167,204.839 450.151,204.849C450.137,204.86 450.115,204.866 450.089,204.866C450.07,204.866 450.052,204.861 450.032,204.85C450.013,204.84 449.991,204.828 449.969,204.812C449.945,204.797 449.919,204.78 449.889,204.762C449.858,204.744 449.823,204.726 449.783,204.712C449.742,204.697 449.696,204.683 449.644,204.674C449.591,204.664 449.529,204.658 449.46,204.658C449.343,204.658 449.234,204.679 449.137,204.721C449.039,204.763 448.955,204.824 448.885,204.903C448.813,204.982 448.759,205.08 448.721,205.195C448.682,205.309 448.662,205.441 448.662,205.588C448.662,205.736 448.683,205.867 448.725,205.983C448.767,206.098 448.823,206.195 448.895,206.275C448.967,206.353 449.052,206.414 449.148,206.456C449.246,206.498 449.351,206.519 449.462,206.519C449.528,206.519 449.589,206.515 449.644,206.508C449.697,206.5 449.747,206.489 449.793,206.472C449.838,206.457 449.882,206.437 449.922,206.412C449.963,206.387 450.003,206.357 450.043,206.32C450.056,206.309 450.068,206.301 450.082,206.294C450.095,206.287 450.109,206.283 450.123,206.283" style="fill:white;fill-rule:nonzero;"/>
        </g>
        <g transform="matrix(4.16667,0,0,4.16667,0,0)">
            <path d="M453.311,204.27L453.311,206.906L452.818,206.906L452.818,205.754L451.582,205.754L451.582,206.906L451.089,206.906L451.089,204.27L451.582,204.27L451.582,205.405L452.818,205.405L452.818,204.27L453.311,204.27Z" style="fill:white;fill-rule:nonzero;"/>
        </g>
        <g transform="matrix(4.16667,0,0,4.16667,0,0)">
            <path d="M457.349,205.588C457.349,205.443 457.33,205.314 457.292,205.199C457.254,205.084 457.199,204.986 457.126,204.907C457.054,204.828 456.966,204.767 456.864,204.725C456.761,204.682 456.646,204.66 456.517,204.66L456.004,204.66L456.004,206.516L456.517,206.516C456.646,206.516 456.761,206.494 456.864,206.451C456.966,206.409 457.054,206.348 457.126,206.269C457.199,206.19 457.254,206.092 457.292,205.977C457.33,205.861 457.349,205.733 457.349,205.588M457.853,205.588C457.853,205.781 457.821,205.959 457.756,206.119C457.692,206.281 457.601,206.42 457.485,206.537C457.368,206.654 457.227,206.744 457.063,206.809C456.9,206.873 456.717,206.905 456.517,206.905L455.512,206.905L455.512,204.27L456.517,204.27C456.717,204.27 456.9,204.303 457.063,204.367C457.227,204.433 457.368,204.524 457.485,204.639C457.601,204.756 457.692,204.895 457.756,205.056C457.821,205.217 457.853,205.395 457.853,205.588" style="fill:white;fill-rule:nonzero;"/>
        </g>
        <g transform="matrix(4.16667,0,0,4.16667,0,0)">
            <rect x="458.648" y="204.269" width="0.492" height="2.636" style="fill:white;fill-rule:nonzero;"/>
        </g>
        <g transform="matrix(4.16667,0,0,4.16667,0,0)">
            <path d="M461.496,204.75C461.481,204.775 461.467,204.793 461.45,204.805C461.434,204.816 461.413,204.822 461.389,204.822C461.363,204.822 461.336,204.812 461.306,204.794C461.276,204.775 461.24,204.754 461.199,204.73C461.158,204.708 461.109,204.688 461.055,204.668C460.999,204.649 460.934,204.641 460.858,204.641C460.791,204.641 460.731,204.648 460.68,204.664C460.629,204.682 460.586,204.704 460.552,204.732C460.517,204.762 460.491,204.797 460.474,204.838C460.457,204.879 460.448,204.924 460.448,204.972C460.448,205.033 460.466,205.086 460.501,205.127C460.535,205.168 460.581,205.203 460.638,205.232C460.695,205.262 460.76,205.287 460.833,205.311C460.906,205.334 460.98,205.358 461.058,205.385C461.134,205.41 461.208,205.441 461.281,205.476C461.354,205.51 461.419,205.555 461.476,205.607C461.533,205.66 461.579,205.725 461.614,205.801C461.648,205.877 461.666,205.971 461.666,206.08C461.666,206.199 461.645,206.311 461.604,206.414C461.564,206.518 461.505,206.608 461.426,206.686C461.348,206.763 461.252,206.824 461.14,206.867C461.026,206.912 460.896,206.935 460.751,206.935C460.667,206.935 460.585,206.926 460.503,206.91C460.422,206.894 460.344,206.87 460.269,206.84C460.194,206.809 460.124,206.773 460.059,206.73C459.993,206.687 459.934,206.641 459.884,206.588L460.027,206.354C460.04,206.336 460.056,206.322 460.075,206.311C460.095,206.299 460.115,206.293 460.137,206.293C460.167,206.293 460.2,206.306 460.235,206.33C460.27,206.355 460.312,206.383 460.361,206.413C460.41,206.443 460.467,206.471 460.531,206.496C460.597,206.521 460.675,206.533 460.766,206.533C460.905,206.533 461.014,206.5 461.09,206.434C461.167,206.368 461.205,206.273 461.205,206.148C461.205,206.08 461.187,206.023 461.153,205.979C461.118,205.936 461.072,205.898 461.016,205.869C460.958,205.84 460.893,205.814 460.82,205.793C460.747,205.773 460.673,205.75 460.598,205.727C460.522,205.702 460.448,205.673 460.376,205.639C460.303,205.604 460.237,205.561 460.181,205.506C460.124,205.451 460.078,205.383 460.043,205.301C460.009,205.219 459.991,205.117 459.991,204.997C459.991,204.901 460.011,204.808 460.049,204.717C460.087,204.625 460.142,204.545 460.215,204.475C460.288,204.404 460.378,204.348 460.485,204.305C460.592,204.262 460.715,204.241 460.853,204.241C461.009,204.241 461.152,204.266 461.283,204.314C461.414,204.362 461.526,204.431 461.618,204.518L461.496,204.75Z" style="fill:white;fill-rule:nonzero;"/>
        </g>
        <g transform="matrix(4.16667,0,0,4.16667,0,0)">
            <path d="M462.946,205.375L463.061,205.375C463.107,205.375 463.145,205.368 463.176,205.355C463.207,205.343 463.232,205.322 463.255,205.295L463.981,204.374C464.011,204.335 464.044,204.309 464.077,204.293C464.111,204.277 464.153,204.27 464.204,204.27L464.627,204.27L463.739,205.365C463.687,205.432 463.633,205.479 463.577,205.508C463.617,205.521 463.653,205.543 463.685,205.568C463.717,205.595 463.749,205.629 463.777,205.672L464.692,206.905L464.26,206.905C464.202,206.905 464.159,206.896 464.13,206.881C464.101,206.864 464.078,206.84 464.058,206.809L463.313,205.836C463.29,205.803 463.262,205.779 463.232,205.766C463.202,205.753 463.159,205.746 463.101,205.746L462.946,205.746L462.946,206.905L462.456,206.905L462.456,204.27L462.946,204.27L462.946,205.375Z" style="fill:white;fill-rule:nonzero;"/>
        </g>
        <g transform="matrix(4.16667,0,0,4.16667,0,0)">
            <path d="M466.381,206.51C466.476,206.51 466.56,206.494 466.635,206.463C466.709,206.431 466.773,206.387 466.823,206.33C466.874,206.273 466.913,206.203 466.941,206.121C466.968,206.04 466.982,205.949 466.982,205.848L466.982,204.27L467.472,204.27L467.472,205.848C467.472,206.005 467.446,206.151 467.397,206.283C467.346,206.416 467.274,206.531 467.18,206.627C467.085,206.725 466.971,206.799 466.836,206.854C466.701,206.907 466.549,206.935 466.381,206.935C466.21,206.935 466.058,206.907 465.923,206.854C465.788,206.799 465.674,206.725 465.579,206.627C465.485,206.531 465.413,206.416 465.362,206.283C465.313,206.151 465.287,206.005 465.287,205.848L465.287,204.27L465.777,204.27L465.777,205.847C465.777,205.948 465.791,206.039 465.819,206.119C465.846,206.201 465.885,206.272 465.937,206.328C465.988,206.387 466.052,206.431 466.126,206.463C466.201,206.494 466.285,206.51 466.381,206.51" style="fill:white;fill-rule:nonzero;"/>
        </g>
        <g transform="matrix(4.16667,0,0,4.16667,0,0)">
            <path d="M470.205,204.451C470.205,204.506 470.189,204.557 470.158,204.603L468.806,206.514L470.174,206.514L470.174,206.905L468.17,206.905L468.17,206.712C468.17,206.687 468.174,206.664 468.183,206.642C468.19,206.619 468.202,206.598 468.215,206.579L469.571,204.66L468.255,204.66L468.255,204.269L470.205,204.269L470.205,204.451Z" style="fill:white;fill-rule:nonzero;"/>
        </g>
        <g transform="matrix(4.16667,0,0,4.16667,0,0)">
            <path d="M471.453,206.905L470.961,206.905L470.961,204.269L471.453,204.269L471.453,206.905ZM471.98,203.514L471.39,204.035C471.365,204.057 471.342,204.07 471.32,204.075C471.299,204.08 471.271,204.082 471.236,204.082L470.91,204.082L471.291,203.588C471.304,203.572 471.315,203.559 471.328,203.547C471.34,203.537 471.354,203.529 471.368,203.525C471.383,203.52 471.398,203.518 471.416,203.516C471.434,203.515 471.455,203.514 471.479,203.514L471.98,203.514Z" style="fill:white;fill-rule:nonzero;"/>
        </g>
    </g>
</svg>
