<?xml version="1.0" encoding="UTF-8" standalone="no"?>
<!DOCTYPE svg PUBLIC "-//W3C//DTD SVG 1.1//EN" "http://www.w3.org/Graphics/SVG/1.1/DTD/svg11.dtd">
<svg width="100%" height="100%" viewBox="0 0 513 107" version="1.1" xmlns="http://www.w3.org/2000/svg" xmlns:xlink="http://www.w3.org/1999/xlink" xml:space="preserve" style="fill-rule:evenodd;clip-rule:evenodd;stroke-linejoin:round;stroke-miterlimit:1.41421;">
    <g transform="matrix(1,0,0,1,-312.5,-293.582)">
        <g transform="matrix(4.16667,0,0,4.16667,0,0)">
            <path d="M98.708,76.557C96.451,72.903 92.422,70.46 87.812,70.46C80.736,70.46 75,76.196 75,83.272C75,90.348 80.736,96.083 87.812,96.083C92.411,96.083 96.432,93.652 98.692,90.013L86.619,83.326L98.708,76.557Z" style="fill:rgb(236,101,58);fill-rule:nonzero;"/>
        </g>
        <g transform="matrix(4.16667,0,0,4.16667,0,0)">
            <path d="M114.382,83.469C114.382,82.787 114.294,82.172 114.117,81.623C113.941,81.074 113.687,80.609 113.355,80.228C113.024,79.846 112.619,79.552 112.139,79.347C111.66,79.142 111.114,79.04 110.502,79.04L108.363,79.04L108.363,87.907L110.502,87.907C111.114,87.907 111.66,87.805 112.139,87.6C112.619,87.395 113.024,87.101 113.355,86.719C113.687,86.338 113.941,85.873 114.117,85.324C114.294,84.775 114.382,84.156 114.382,83.469M117.656,83.469C117.656,84.466 117.485,85.386 117.141,86.228C116.797,87.07 116.313,87.799 115.688,88.414C115.064,89.029 114.311,89.509 113.431,89.852C112.551,90.196 111.574,90.368 110.502,90.368L105.146,90.368L105.146,76.579L110.502,76.579C111.574,76.579 112.551,76.753 113.431,77.1C114.311,77.447 115.064,77.927 115.688,78.538C116.313,79.15 116.797,79.877 117.141,80.719C117.485,81.562 117.656,82.478 117.656,83.469" style="fill:rgb(63,48,88);fill-rule:nonzero;"/>
        </g>
        <g transform="matrix(4.16667,0,0,4.16667,0,0)">
            <path d="M125.672,84.283C125.672,84.05 125.642,83.823 125.582,83.601C125.522,83.381 125.424,83.183 125.289,83.01C125.153,82.837 124.975,82.696 124.754,82.589C124.533,82.482 124.265,82.428 123.95,82.428C123.395,82.428 122.959,82.587 122.644,82.906C122.328,83.224 122.12,83.683 122.019,84.283L125.672,84.283ZM121.981,85.986C122.076,86.806 122.325,87.401 122.729,87.77C123.132,88.139 123.653,88.324 124.291,88.324C124.631,88.324 124.924,88.283 125.171,88.201C125.417,88.119 125.636,88.027 125.828,87.927C126.021,87.825 126.197,87.734 126.358,87.652C126.519,87.57 126.688,87.529 126.864,87.529C127.098,87.529 127.275,87.614 127.395,87.784L128.246,88.835C127.943,89.182 127.617,89.464 127.267,89.682C126.917,89.9 126.557,90.07 126.188,90.193C125.819,90.316 125.45,90.401 125.081,90.449C124.712,90.496 124.36,90.519 124.026,90.519C123.338,90.519 122.693,90.408 122.09,90.183C121.487,89.96 120.961,89.627 120.51,89.185C120.059,88.743 119.702,88.195 119.44,87.538C119.178,86.882 119.047,86.119 119.047,85.248C119.047,84.592 119.159,83.971 119.383,83.384C119.608,82.797 119.929,82.283 120.349,81.841C120.768,81.4 121.276,81.05 121.873,80.791C122.469,80.532 123.142,80.403 123.893,80.403C124.543,80.403 125.137,80.504 125.677,80.705C126.216,80.908 126.68,81.201 127.068,81.586C127.456,81.97 127.759,82.442 127.977,83C128.194,83.559 128.303,84.191 128.303,84.898C128.303,85.119 128.294,85.299 128.275,85.437C128.255,85.576 128.221,85.687 128.171,85.769C128.12,85.851 128.052,85.908 127.967,85.939C127.882,85.97 127.773,85.986 127.641,85.986L121.981,85.986Z" style="fill:rgb(63,48,88);fill-rule:nonzero;"/>
        </g>
        <g transform="matrix(4.16667,0,0,4.16667,0,0)">
            <path d="M130.243,90.368L130.243,80.554L132.06,80.554C132.426,80.554 132.666,80.718 132.779,81.046L132.94,81.576C133.104,81.406 133.275,81.25 133.451,81.108C133.628,80.966 133.819,80.843 134.024,80.739C134.229,80.635 134.45,80.553 134.686,80.493C134.923,80.433 135.183,80.403 135.467,80.403C136.06,80.403 136.551,80.556 136.939,80.862C137.326,81.168 137.621,81.576 137.824,82.087C137.988,81.785 138.188,81.526 138.425,81.311C138.661,81.097 138.916,80.923 139.191,80.791C139.465,80.658 139.756,80.56 140.062,80.497C140.368,80.434 140.672,80.403 140.975,80.403C141.536,80.403 142.035,80.487 142.47,80.654C142.906,80.821 143.27,81.064 143.563,81.382C143.857,81.701 144.079,82.092 144.23,82.556C144.382,83.019 144.457,83.545 144.457,84.131L144.457,90.368L141.524,90.368L141.524,84.131C141.524,83.116 141.088,82.608 140.218,82.608C139.82,82.608 139.491,82.739 139.229,83C138.967,83.263 138.836,83.639 138.836,84.131L138.836,90.368L135.902,90.368L135.902,84.131C135.902,83.57 135.792,83.176 135.571,82.949C135.35,82.722 135.025,82.608 134.597,82.608C134.331,82.608 134.08,82.668 133.844,82.787C133.607,82.908 133.385,83.068 133.177,83.27L133.177,90.368L130.243,90.368Z" style="fill:rgb(63,48,88);fill-rule:nonzero;"/>
        </g>
        <g transform="matrix(4.16667,0,0,4.16667,0,0)">
            <path d="M151.886,86.374C151.3,86.399 150.817,86.45 150.438,86.525C150.06,86.601 149.76,86.696 149.539,86.81C149.318,86.923 149.165,87.052 149.08,87.197C148.995,87.343 148.952,87.5 148.952,87.67C148.952,88.005 149.044,88.24 149.227,88.375C149.41,88.511 149.678,88.579 150.031,88.579C150.41,88.579 150.741,88.513 151.025,88.38C151.309,88.248 151.596,88.033 151.886,87.737L151.886,86.374ZM146.605,81.916C147.199,81.393 147.856,81.003 148.578,80.748C149.301,80.492 150.075,80.365 150.902,80.365C151.495,80.365 152.03,80.461 152.506,80.653C152.982,80.846 153.386,81.114 153.718,81.457C154.049,81.802 154.303,82.21 154.479,82.683C154.656,83.156 154.744,83.674 154.744,84.235L154.744,90.368L153.4,90.368C153.123,90.368 152.913,90.33 152.771,90.254C152.629,90.178 152.511,90.021 152.416,89.781L152.208,89.242C151.962,89.45 151.725,89.633 151.498,89.791C151.271,89.948 151.036,90.082 150.793,90.192C150.55,90.303 150.291,90.385 150.017,90.438C149.742,90.492 149.438,90.519 149.104,90.519C148.656,90.519 148.249,90.46 147.883,90.344C147.517,90.228 147.206,90.055 146.951,89.828C146.695,89.601 146.498,89.319 146.359,88.981C146.22,88.644 146.151,88.254 146.151,87.812C146.151,87.459 146.24,87.101 146.416,86.738C146.593,86.375 146.899,86.044 147.334,85.745C147.769,85.445 148.356,85.194 149.094,84.992C149.832,84.791 150.763,84.677 151.886,84.651L151.886,84.235C151.886,83.661 151.768,83.246 151.531,82.991C151.295,82.735 150.959,82.607 150.523,82.607C150.177,82.607 149.892,82.645 149.672,82.721C149.451,82.797 149.254,82.882 149.08,82.977C148.907,83.071 148.738,83.156 148.574,83.232C148.41,83.308 148.214,83.346 147.987,83.346C147.785,83.346 147.615,83.295 147.476,83.194C147.337,83.093 147.223,82.974 147.136,82.834L146.605,81.916Z" style="fill:rgb(63,48,88);fill-rule:nonzero;"/>
        </g>
        <g transform="matrix(4.16667,0,0,4.16667,0,0)">
            <path d="M163.043,83.185C162.822,82.945 162.583,82.775 162.324,82.674C162.065,82.573 161.794,82.523 161.51,82.523C161.239,82.523 160.989,82.575 160.762,82.679C160.535,82.783 160.338,82.949 160.171,83.176C160.003,83.403 159.873,83.693 159.778,84.046C159.684,84.4 159.636,84.822 159.636,85.314C159.636,86.261 159.786,86.944 160.085,87.363C160.385,87.783 160.813,87.993 161.368,87.993C161.721,87.993 162.026,87.914 162.281,87.756C162.537,87.599 162.791,87.368 163.043,87.065L163.043,83.185ZM165.977,80.554L165.977,89.497C165.977,90.103 165.857,90.664 165.617,91.182C165.377,91.699 165.035,92.144 164.59,92.517C164.146,92.889 163.605,93.18 162.967,93.392C162.33,93.603 161.614,93.709 160.819,93.709C160.365,93.709 159.948,93.676 159.57,93.609C159.191,93.543 158.846,93.453 158.534,93.34C158.221,93.226 157.942,93.094 157.696,92.942C157.45,92.791 157.232,92.63 157.043,92.459L157.725,91.371C157.8,91.245 157.897,91.147 158.013,91.078C158.13,91.008 158.279,90.974 158.462,90.974C158.633,90.974 158.784,91.01 158.917,91.082C159.049,91.155 159.194,91.237 159.352,91.329C159.51,91.42 159.696,91.502 159.911,91.575C160.125,91.647 160.399,91.684 160.734,91.684C161.119,91.684 161.456,91.628 161.747,91.518C162.037,91.408 162.278,91.258 162.471,91.068C162.663,90.879 162.807,90.662 162.901,90.415C162.996,90.169 163.043,89.911 163.043,89.64L163.043,89.195C162.86,89.378 162.68,89.535 162.503,89.668C162.327,89.8 162.143,89.909 161.95,89.994C161.757,90.08 161.549,90.141 161.325,90.179C161.102,90.217 160.848,90.236 160.564,90.236C159.952,90.236 159.401,90.119 158.912,89.886C158.423,89.652 158.008,89.321 157.668,88.892C157.327,88.463 157.065,87.945 156.882,87.34C156.699,86.734 156.608,86.059 156.608,85.314C156.608,84.627 156.709,83.982 156.911,83.379C157.112,82.777 157.398,82.253 157.767,81.808C158.136,81.363 158.579,81.013 159.097,80.758C159.614,80.502 160.185,80.374 160.81,80.374C161.106,80.374 161.374,80.4 161.614,80.45C161.854,80.501 162.073,80.573 162.272,80.668C162.471,80.763 162.655,80.874 162.825,81.004C162.996,81.133 163.16,81.277 163.317,81.435L163.44,81.046C163.554,80.718 163.794,80.554 164.16,80.554L165.977,80.554Z" style="fill:rgb(63,48,88);fill-rule:nonzero;"/>
        </g>
        <g transform="matrix(4.16667,0,0,4.16667,0,0)">
            <path d="M172.952,88.342C173.627,88.342 174.124,88.104 174.443,87.628C174.761,87.152 174.921,86.427 174.921,85.456C174.921,84.484 174.761,83.762 174.443,83.289C174.124,82.815 173.627,82.579 172.952,82.579C172.258,82.579 171.75,82.815 171.429,83.289C171.107,83.762 170.946,84.484 170.946,85.456C170.946,86.427 171.107,87.152 171.429,87.628C171.75,88.104 172.258,88.342 172.952,88.342M172.952,80.402C173.697,80.402 174.375,80.519 174.987,80.752C175.599,80.986 176.124,81.32 176.563,81.756C177.001,82.191 177.342,82.719 177.585,83.341C177.827,83.962 177.949,84.661 177.949,85.437C177.949,86.219 177.827,86.924 177.585,87.552C177.342,88.18 177.001,88.713 176.563,89.151C176.124,89.59 175.599,89.927 174.987,90.164C174.375,90.401 173.697,90.519 172.952,90.519C172.202,90.519 171.518,90.401 170.903,90.164C170.288,89.927 169.758,89.59 169.313,89.151C168.869,88.713 168.525,88.18 168.282,87.552C168.039,86.924 167.917,86.219 167.917,85.437C167.917,84.661 168.039,83.962 168.282,83.341C168.525,82.719 168.869,82.191 169.313,81.756C169.758,81.32 170.288,80.986 170.903,80.752C171.518,80.519 172.202,80.402 172.952,80.402" style="fill:rgb(63,48,88);fill-rule:nonzero;"/>
        </g>
        <g transform="matrix(4.16667,0,0,4.16667,0,0)">
            <path d="M185.851,83.185C185.63,82.945 185.391,82.775 185.132,82.674C184.873,82.573 184.602,82.523 184.318,82.523C184.047,82.523 183.797,82.575 183.57,82.679C183.343,82.783 183.146,82.949 182.979,83.176C182.811,83.403 182.681,83.693 182.586,84.046C182.492,84.4 182.444,84.822 182.444,85.314C182.444,86.261 182.594,86.944 182.893,87.363C183.193,87.783 183.621,87.993 184.176,87.993C184.529,87.993 184.834,87.914 185.089,87.756C185.345,87.599 185.599,87.368 185.851,87.065L185.851,83.185ZM188.785,80.554L188.785,89.497C188.785,90.103 188.665,90.664 188.425,91.182C188.185,91.699 187.843,92.144 187.398,92.517C186.954,92.889 186.413,93.18 185.775,93.392C185.138,93.603 184.422,93.709 183.627,93.709C183.173,93.709 182.756,93.676 182.378,93.609C181.999,93.543 181.654,93.453 181.342,93.34C181.029,93.226 180.75,93.094 180.504,92.942C180.258,92.791 180.04,92.63 179.851,92.459L180.533,91.371C180.608,91.245 180.705,91.147 180.821,91.078C180.938,91.008 181.087,90.974 181.27,90.974C181.441,90.974 181.592,91.01 181.725,91.082C181.857,91.155 182.002,91.237 182.16,91.329C182.318,91.42 182.504,91.502 182.719,91.575C182.933,91.647 183.207,91.684 183.542,91.684C183.927,91.684 184.264,91.628 184.555,91.518C184.845,91.408 185.086,91.258 185.279,91.068C185.471,90.879 185.615,90.662 185.709,90.415C185.804,90.169 185.851,89.911 185.851,89.64L185.851,89.195C185.668,89.378 185.488,89.535 185.311,89.668C185.135,89.8 184.951,89.909 184.758,89.994C184.565,90.08 184.357,90.141 184.133,90.179C183.91,90.217 183.656,90.236 183.372,90.236C182.76,90.236 182.209,90.119 181.72,89.886C181.231,89.652 180.816,89.321 180.476,88.892C180.135,88.463 179.873,87.945 179.69,87.34C179.507,86.734 179.416,86.059 179.416,85.314C179.416,84.627 179.517,83.982 179.719,83.379C179.92,82.777 180.206,82.253 180.575,81.808C180.944,81.363 181.387,81.013 181.905,80.758C182.422,80.502 182.993,80.374 183.618,80.374C183.914,80.374 184.182,80.4 184.422,80.45C184.662,80.501 184.881,80.573 185.08,80.668C185.279,80.763 185.463,80.874 185.633,81.004C185.804,81.133 185.968,81.277 186.125,81.435L186.248,81.046C186.362,80.718 186.602,80.554 186.968,80.554L188.785,80.554Z" style="fill:rgb(63,48,88);fill-rule:nonzero;"/>
        </g>
        <g transform="matrix(4.16667,0,0,4.16667,0,0)">
            <path d="M194.329,77.177C194.295,77.218 194.263,77.251 194.231,77.275C194.2,77.299 194.155,77.311 194.098,77.311C194.042,77.311 193.992,77.298 193.947,77.271C193.903,77.245 193.852,77.215 193.797,77.182C193.742,77.15 193.676,77.12 193.601,77.094C193.527,77.067 193.434,77.054 193.323,77.054C193.185,77.054 193.066,77.079 192.966,77.13C192.866,77.181 192.784,77.253 192.719,77.347C192.653,77.441 192.605,77.556 192.574,77.693C192.542,77.829 192.527,77.983 192.527,78.154C192.527,78.514 192.596,78.79 192.735,78.983C192.873,79.176 193.065,79.273 193.308,79.273C193.439,79.273 193.542,79.256 193.618,79.224C193.694,79.191 193.758,79.155 193.811,79.115C193.865,79.075 193.913,79.038 193.958,79.005C194.003,78.971 194.059,78.954 194.126,78.954C194.216,78.954 194.283,78.987 194.329,79.052L194.655,79.453C194.539,79.586 194.417,79.694 194.289,79.778C194.162,79.861 194.031,79.926 193.896,79.973C193.763,80.02 193.628,80.052 193.493,80.071C193.358,80.089 193.226,80.098 193.099,80.098C192.87,80.098 192.65,80.054 192.442,79.968C192.233,79.881 192.05,79.755 191.891,79.589C191.733,79.424 191.608,79.22 191.515,78.979C191.422,78.738 191.376,78.463 191.376,78.154C191.376,77.884 191.416,77.631 191.497,77.396C191.578,77.161 191.697,76.957 191.855,76.784C192.014,76.612 192.209,76.476 192.442,76.377C192.675,76.279 192.944,76.229 193.25,76.229C193.545,76.229 193.803,76.276 194.025,76.37C194.247,76.464 194.447,76.602 194.626,76.782L194.329,77.177Z" style="fill:rgb(63,48,88);fill-rule:nonzero;"/>
        </g>
        <g transform="matrix(4.16667,0,0,4.16667,0,0)">
            <path d="M198.064,76.735C198.064,76.812 198.051,76.887 198.024,76.96C197.998,77.032 197.962,77.091 197.919,77.137L196.352,79.207L198.028,79.207L198.028,80.039L195.06,80.039L195.06,79.583C195.06,79.537 195.072,79.48 195.096,79.409C195.12,79.339 195.157,79.275 195.205,79.214L196.786,77.119L195.161,77.119L195.161,76.286L198.064,76.286L198.064,76.735Z" style="fill:rgb(63,48,88);fill-rule:nonzero;"/>
        </g>
    </g>
</svg>
