<?xml version="1.0" encoding="UTF-8" standalone="no"?>
<!DOCTYPE svg PUBLIC "-//W3C//DTD SVG 1.1//EN" "http://www.w3.org/Graphics/SVG/1.1/DTD/svg11.dtd">
<svg width="100%" height="100%" viewBox="0 0 513 107" version="1.1" xmlns="http://www.w3.org/2000/svg" xmlns:xlink="http://www.w3.org/1999/xlink" xml:space="preserve" style="fill-rule:evenodd;clip-rule:evenodd;stroke-linejoin:round;stroke-miterlimit:1.41421;">
    <g transform="matrix(1,0,0,1,-1520.83,-293.582)">
        <g transform="matrix(4.16667,0,0,4.16667,0,0)">
            <path d="M388.708,76.557C386.451,72.903 382.422,70.46 377.812,70.46C370.736,70.46 365,76.196 365,83.272C365,90.348 370.736,96.083 377.812,96.083C382.411,96.083 386.432,93.652 388.692,90.013L376.619,83.326L388.708,76.557Z" style="fill:rgb(236,101,58);fill-rule:nonzero;"/>
        </g>
        <g transform="matrix(4.16667,0,0,4.16667,0,0)">
            <path d="M404.647,83.497C404.647,82.778 404.553,82.131 404.364,81.557C404.174,80.983 403.902,80.497 403.549,80.1C403.196,79.702 402.766,79.396 402.258,79.182C401.751,78.967 401.174,78.86 400.531,78.86L398.108,78.86L398.108,88.143L400.531,88.143C401.174,88.143 401.751,88.038 402.258,87.827C402.766,87.615 403.196,87.31 403.549,86.909C403.902,86.508 404.174,86.02 404.364,85.447C404.553,84.872 404.647,84.223 404.647,83.497M407.563,83.497C407.563,84.5 407.393,85.423 407.056,86.265C406.718,87.107 406.243,87.831 405.627,88.437C405.012,89.043 404.272,89.516 403.408,89.856C402.543,90.197 401.584,90.368 400.531,90.368L395.251,90.368L395.251,76.636L400.531,76.636C401.584,76.636 402.543,76.806 403.408,77.147C404.272,77.488 405.012,77.962 405.627,78.571C406.243,79.18 406.718,79.904 407.056,80.743C407.393,81.582 407.563,82.5 407.563,83.497" style="fill:white;fill-rule:nonzero;"/>
        </g>
        <g transform="matrix(4.16667,0,0,4.16667,0,0)">
            <path d="M415.842,84.339C415.842,84.068 415.807,83.809 415.734,83.563C415.661,83.317 415.546,83.099 415.389,82.91C415.231,82.721 415.031,82.571 414.792,82.461C414.553,82.35 414.266,82.295 413.931,82.295C413.307,82.295 412.817,82.471 412.464,82.825C412.111,83.178 411.881,83.683 411.774,84.339L415.842,84.339ZM411.735,85.891C411.817,86.806 412.077,87.475 412.516,87.897C412.954,88.32 413.528,88.531 414.234,88.531C414.594,88.531 414.905,88.489 415.166,88.403C415.428,88.318 415.658,88.224 415.857,88.12C416.055,88.016 416.235,87.921 416.397,87.836C416.557,87.751 416.717,87.708 416.874,87.708C417.076,87.708 417.234,87.784 417.348,87.935L418.104,88.881C417.826,89.203 417.521,89.47 417.186,89.681C416.852,89.893 416.505,90.06 416.145,90.183C415.785,90.306 415.423,90.391 415.057,90.438C414.692,90.485 414.338,90.509 413.997,90.509C413.316,90.509 412.68,90.397 412.09,90.173C411.5,89.949 410.987,89.618 410.547,89.18C410.11,88.741 409.764,88.197 409.512,87.547C409.259,86.898 409.133,86.143 409.133,85.285C409.133,84.623 409.241,83.998 409.459,83.411C409.677,82.825 409.99,82.314 410.401,81.879C410.811,81.443 411.309,81.098 411.897,80.842C412.483,80.587 413.145,80.459 413.883,80.459C414.508,80.459 415.084,80.558 415.611,80.757C416.137,80.956 416.592,81.244 416.973,81.623C417.356,82.002 417.652,82.467 417.863,83.019C418.074,83.571 418.18,84.2 418.18,84.907C418.18,85.102 418.17,85.263 418.152,85.389C418.133,85.516 418.102,85.616 418.057,85.692C418.013,85.768 417.953,85.82 417.877,85.848C417.801,85.877 417.703,85.891 417.584,85.891L411.735,85.891Z" style="fill:white;fill-rule:nonzero;"/>
        </g>
        <g transform="matrix(4.16667,0,0,4.16667,0,0)">
            <path d="M420.271,90.368L420.271,80.611L421.879,80.611C422.208,80.611 422.425,80.763 422.533,81.065L422.684,81.699C422.855,81.523 423.029,81.359 423.209,81.207C423.389,81.055 423.584,80.925 423.791,80.814C424,80.704 424.225,80.618 424.468,80.554C424.71,80.491 424.974,80.459 425.258,80.459C425.857,80.459 426.353,80.619 426.744,80.937C427.135,81.256 427.431,81.68 427.633,82.21C427.791,81.901 427.986,81.635 428.215,81.41C428.446,81.187 428.699,81.005 428.972,80.867C429.248,80.728 429.537,80.625 429.843,80.559C430.15,80.493 430.457,80.459 430.766,80.459C431.315,80.459 431.8,80.541 432.224,80.705C432.646,80.869 433.001,81.111 433.289,81.43C433.576,81.748 433.794,82.138 433.946,82.598C434.097,83.059 434.173,83.582 434.173,84.169L434.173,90.368L431.561,90.368L431.561,84.169C431.561,83.028 431.072,82.456 430.094,82.456C429.873,82.456 429.669,82.493 429.484,82.565C429.297,82.638 429.133,82.746 428.992,82.892C428.849,83.037 428.74,83.217 428.66,83.431C428.582,83.646 428.542,83.892 428.542,84.169L428.542,90.368L425.93,90.368L425.93,84.169C425.93,83.551 425.808,83.111 425.566,82.849C425.323,82.587 424.964,82.456 424.492,82.456C424.189,82.456 423.904,82.527 423.635,82.669C423.367,82.811 423.117,83.009 422.882,83.261L422.882,90.368L420.271,90.368Z" style="fill:white;fill-rule:nonzero;"/>
        </g>
        <g transform="matrix(4.16667,0,0,4.16667,0,0)">
            <path d="M441.811,86.289C441.174,86.32 440.644,86.375 440.221,86.455C439.798,86.533 439.462,86.636 439.212,86.762C438.962,86.888 438.787,87.032 438.684,87.192C438.578,87.353 438.527,87.529 438.527,87.718C438.527,88.096 438.633,88.365 438.844,88.522C439.055,88.68 439.349,88.759 439.729,88.759C440.164,88.759 440.541,88.682 440.859,88.527C441.178,88.372 441.496,88.131 441.811,87.803L441.811,86.289ZM436.493,81.964C437.067,81.447 437.7,81.06 438.395,80.805C439.087,80.549 439.839,80.421 440.647,80.421C441.227,80.421 441.746,80.516 442.203,80.705C442.661,80.894 443.049,81.158 443.368,81.496C443.686,81.833 443.931,82.235 444.102,82.702C444.272,83.169 444.357,83.68 444.357,84.235L444.357,90.368L443.164,90.368C442.918,90.368 442.731,90.333 442.602,90.264C442.472,90.194 442.366,90.049 442.284,89.828L442.077,89.204C441.83,89.418 441.592,89.607 441.361,89.771C441.131,89.935 440.893,90.073 440.647,90.183C440.4,90.293 440.137,90.377 439.857,90.434C439.577,90.491 439.262,90.519 438.914,90.519C438.486,90.519 438.095,90.462 437.741,90.349C437.388,90.235 437.084,90.066 436.828,89.842C436.573,89.619 436.375,89.339 436.236,89.005C436.097,88.67 436.029,88.286 436.029,87.85C436.029,87.491 436.12,87.131 436.303,86.771C436.486,86.412 436.799,86.085 437.245,85.792C437.69,85.498 438.282,85.256 439.024,85.063C439.765,84.871 440.693,84.762 441.811,84.737L441.811,84.235C441.811,83.623 441.681,83.174 441.423,82.887C441.164,82.6 440.791,82.456 440.306,82.456C439.947,82.456 439.647,82.498 439.407,82.584C439.167,82.669 438.957,82.76 438.777,82.858C438.597,82.956 438.429,83.047 438.272,83.133C438.114,83.218 437.931,83.26 437.722,83.26C437.539,83.26 437.387,83.215 437.263,83.123C437.14,83.032 437.037,82.923 436.955,82.797L436.493,81.964Z" style="fill:white;fill-rule:nonzero;"/>
        </g>
        <g transform="matrix(4.16667,0,0,4.16667,0,0)">
            <path d="M452.911,83.156C452.672,82.872 452.404,82.672 452.111,82.555C451.818,82.439 451.511,82.38 451.189,82.38C450.873,82.38 450.586,82.439 450.328,82.555C450.068,82.672 449.846,82.853 449.66,83.099C449.474,83.345 449.33,83.655 449.23,84.027C449.129,84.399 449.078,84.841 449.078,85.352C449.078,85.857 449.121,86.289 449.206,86.648C449.291,87.008 449.416,87.304 449.58,87.538C449.744,87.771 449.944,87.942 450.181,88.049C450.418,88.156 450.69,88.21 451,88.21C451.403,88.21 451.754,88.118 452.05,87.935C452.346,87.752 452.633,87.49 452.911,87.15L452.911,83.156ZM455.514,80.611L455.514,89.582C455.514,90.181 455.4,90.733 455.173,91.238C454.945,91.743 454.617,92.18 454.189,92.549C453.76,92.918 453.238,93.206 452.623,93.415C452.008,93.623 451.314,93.727 450.545,93.727C450.109,93.727 449.707,93.694 449.338,93.628C448.97,93.561 448.632,93.473 448.326,93.363C448.019,93.252 447.746,93.121 447.502,92.97C447.26,92.819 447.043,92.657 446.854,92.487L447.46,91.512C447.529,91.393 447.616,91.301 447.721,91.238C447.824,91.175 447.959,91.143 448.123,91.143C448.28,91.143 448.426,91.183 448.557,91.262C448.69,91.341 448.838,91.427 449.002,91.522C449.166,91.616 449.363,91.703 449.594,91.782C449.824,91.861 450.116,91.901 450.47,91.901C450.873,91.901 451.228,91.842 451.534,91.725C451.84,91.609 452.096,91.449 452.301,91.247C452.506,91.046 452.658,90.812 452.76,90.547C452.86,90.282 452.911,90.002 452.911,89.705L452.911,89.099C452.722,89.302 452.533,89.473 452.344,89.615C452.154,89.757 451.957,89.875 451.752,89.97C451.547,90.065 451.324,90.134 451.084,90.178C450.845,90.222 450.58,90.244 450.289,90.244C449.683,90.244 449.14,90.131 448.657,89.904C448.174,89.677 447.764,89.35 447.427,88.924C447.09,88.498 446.83,87.984 446.65,87.382C446.471,86.779 446.381,86.103 446.381,85.352C446.381,84.664 446.48,84.021 446.68,83.421C446.878,82.822 447.16,82.301 447.526,81.86C447.892,81.418 448.334,81.07 448.851,80.814C449.369,80.558 449.943,80.43 450.574,80.43C451.166,80.43 451.664,80.53 452.064,80.729C452.465,80.927 452.822,81.194 453.139,81.529L453.262,81.065C453.362,80.762 453.58,80.611 453.914,80.611L455.514,80.611Z" style="fill:white;fill-rule:nonzero;"/>
        </g>
        <g transform="matrix(4.16667,0,0,4.16667,0,0)">
            <path d="M462.545,88.551C463.289,88.551 463.842,88.294 464.201,87.78C464.561,87.265 464.74,86.501 464.74,85.485C464.74,84.475 464.561,83.714 464.201,83.199C463.842,82.685 463.289,82.428 462.545,82.428C461.781,82.428 461.221,82.685 460.86,83.199C460.501,83.714 460.32,84.475 460.32,85.485C460.32,86.501 460.501,87.265 460.86,87.78C461.221,88.294 461.781,88.551 462.545,88.551M462.545,80.459C463.277,80.459 463.942,80.576 464.541,80.81C465.141,81.043 465.655,81.376 466.084,81.808C466.514,82.24 466.845,82.765 467.078,83.384C467.312,84.002 467.428,84.699 467.428,85.475C467.428,86.251 467.312,86.95 467.078,87.572C466.845,88.193 466.514,88.721 466.084,89.156C465.655,89.592 465.141,89.926 464.541,90.16C463.942,90.393 463.277,90.51 462.545,90.51C461.807,90.51 461.137,90.393 460.533,90.16C459.932,89.926 459.416,89.592 458.986,89.156C458.558,88.721 458.225,88.193 457.988,87.572C457.752,86.95 457.633,86.251 457.633,85.475C457.633,84.699 457.752,84.002 457.988,83.384C458.225,82.765 458.558,82.24 458.986,81.808C459.416,81.376 459.932,81.043 460.533,80.81C461.137,80.576 461.807,80.459 462.545,80.459" style="fill:white;fill-rule:nonzero;"/>
        </g>
        <g transform="matrix(4.16667,0,0,4.16667,0,0)">
            <path d="M475.586,83.156C475.346,82.872 475.08,82.672 474.786,82.555C474.492,82.439 474.186,82.38 473.863,82.38C473.548,82.38 473.261,82.439 473.002,82.555C472.744,82.672 472.522,82.853 472.335,83.099C472.148,83.345 472.006,83.655 471.904,84.027C471.804,84.399 471.753,84.841 471.753,85.352C471.753,85.857 471.796,86.289 471.881,86.648C471.967,87.008 472.091,87.304 472.255,87.538C472.419,87.771 472.619,87.942 472.856,88.049C473.092,88.156 473.365,88.21 473.674,88.21C474.078,88.21 474.428,88.118 474.725,87.935C475.022,87.752 475.309,87.49 475.586,87.15L475.586,83.156ZM478.189,80.611L478.189,89.582C478.189,90.181 478.074,90.733 477.848,91.238C477.621,91.743 477.293,92.18 476.863,92.549C476.435,92.918 475.912,93.206 475.297,93.415C474.682,93.623 473.99,93.727 473.221,93.727C472.785,93.727 472.383,93.694 472.014,93.628C471.645,93.561 471.307,93.473 471.001,93.363C470.695,93.252 470.42,93.121 470.178,92.97C469.935,92.819 469.719,92.657 469.529,92.487L470.135,91.512C470.204,91.393 470.291,91.301 470.395,91.238C470.499,91.175 470.633,91.143 470.797,91.143C470.955,91.143 471.1,91.183 471.232,91.262C471.365,91.341 471.514,91.427 471.678,91.522C471.842,91.616 472.039,91.703 472.27,91.782C472.499,91.861 472.791,91.901 473.145,91.901C473.548,91.901 473.902,91.842 474.209,91.725C474.516,91.609 474.771,91.449 474.976,91.247C475.181,91.046 475.334,90.812 475.435,90.547C475.535,90.282 475.586,90.002 475.586,89.705L475.586,89.099C475.397,89.302 475.207,89.473 475.018,89.615C474.828,89.757 474.631,89.875 474.427,89.97C474.222,90.065 473.999,90.134 473.76,90.178C473.52,90.222 473.254,90.244 472.965,90.244C472.359,90.244 471.815,90.131 471.332,89.904C470.85,89.677 470.44,89.35 470.102,88.924C469.764,88.498 469.506,87.984 469.326,87.382C469.147,86.779 469.057,86.103 469.057,85.352C469.057,84.664 469.155,84.021 469.354,83.421C469.553,82.822 469.835,82.301 470.201,81.86C470.566,81.418 471.009,81.07 471.525,80.814C472.043,80.558 472.617,80.43 473.248,80.43C473.842,80.43 474.338,80.53 474.738,80.729C475.14,80.927 475.498,81.194 475.813,81.529L475.936,81.065C476.037,80.762 476.254,80.611 476.589,80.611L478.189,80.611Z" style="fill:white;fill-rule:nonzero;"/>
        </g>
        <g transform="matrix(4.16667,0,0,4.16667,0,0)">
            <path d="M484.329,77.177C484.296,77.218 484.263,77.251 484.231,77.275C484.2,77.299 484.155,77.311 484.098,77.311C484.042,77.311 483.992,77.298 483.947,77.271C483.903,77.245 483.852,77.215 483.798,77.182C483.742,77.15 483.677,77.12 483.601,77.094C483.527,77.067 483.434,77.054 483.323,77.054C483.185,77.054 483.066,77.079 482.967,77.13C482.866,77.181 482.784,77.253 482.719,77.347C482.653,77.441 482.605,77.556 482.574,77.693C482.543,77.829 482.527,77.983 482.527,78.154C482.527,78.514 482.597,78.79 482.735,78.983C482.874,79.176 483.065,79.273 483.308,79.273C483.439,79.273 483.542,79.256 483.618,79.224C483.694,79.191 483.759,79.155 483.811,79.115C483.865,79.075 483.914,79.038 483.958,79.005C484.003,78.971 484.059,78.954 484.127,78.954C484.216,78.954 484.283,78.987 484.329,79.052L484.655,79.453C484.539,79.586 484.417,79.694 484.29,79.778C484.162,79.861 484.031,79.926 483.896,79.973C483.763,80.02 483.629,80.052 483.493,80.071C483.358,80.089 483.226,80.098 483.099,80.098C482.87,80.098 482.65,80.054 482.442,79.968C482.233,79.881 482.05,79.755 481.891,79.589C481.733,79.424 481.608,79.22 481.516,78.979C481.423,78.738 481.376,78.463 481.376,78.154C481.376,77.884 481.417,77.631 481.497,77.396C481.578,77.161 481.697,76.957 481.855,76.784C482.014,76.612 482.209,76.476 482.442,76.377C482.675,76.279 482.944,76.229 483.251,76.229C483.545,76.229 483.804,76.276 484.025,76.37C484.247,76.464 484.447,76.602 484.626,76.782L484.329,77.177Z" style="fill:white;fill-rule:nonzero;"/>
        </g>
        <g transform="matrix(4.16667,0,0,4.16667,0,0)">
            <path d="M488.065,76.735C488.065,76.812 488.051,76.887 488.025,76.96C487.999,77.032 487.963,77.091 487.919,77.137L486.353,79.207L488.029,79.207L488.029,80.039L485.061,80.039L485.061,79.583C485.061,79.537 485.073,79.48 485.097,79.409C485.121,79.339 485.158,79.275 485.206,79.214L486.787,77.119L485.162,77.119L485.162,76.286L488.065,76.286L488.065,76.735Z" style="fill:white;fill-rule:nonzero;"/>
        </g>
    </g>
</svg>
