<?xml version="1.0" encoding="UTF-8"?>
<svg width="350px" height="126px" viewBox="0 0 350 126" version="1.1" xmlns="http://www.w3.org/2000/svg" xmlns:xlink="http://www.w3.org/1999/xlink">
    <!-- Generator: Sketch 54.1 (76490) - https://sketchapp.com -->
    <title>Group 3</title>
    <desc>Created with Sketch.</desc>
    <g id="Page-1" stroke="none" stroke-width="1" fill="none" fill-rule="evenodd">
        <g id="Artboard-Copy-2" transform="translate(-372.000000, -211.000000)">
            <g id="Group-3" transform="translate(372.000000, 211.000000)">
                <polyline id="Fill-1" fill="#345C9A" points="17.7536232 20.6387422 24.2583895 18.5990338 28.6549845 32.1338825 57.9238204 22.9936316 60.0241546 29.4202504 24.3445972 40.5797101 17.7536232 20.6387422"></polyline>
                <polyline id="Fill-2" fill="#D62731" points="43.6481222 85.3864734 37.0811906 86.2522583 38.9858069 100.71035 24.5169082 102.601678 25.3751453 109.16979 39.8466214 107.283615 41.7409285 121.73913 48.3052828 120.873346 46.4083984 106.417831 60.8695652 104.521349 60.0139054 97.958391 45.5501612 99.8471419 43.6481222 85.3864734"></polyline>
                <path d="M23.0420816,61.7149758 C23.8719682,61.7619505 24.7226669,61.8898259 25.5941779,62.0803341 C26.4578843,62.2630132 27.3267937,62.5265931 28.1957031,62.8789028 C29.0724171,63.2129447 29.938725,63.6618134 30.7842207,64.2098507 C31.642724,64.7552784 32.4856182,65.4390202 33.3259109,66.2480278 C34.4965972,67.3780286 35.4097326,68.5523944 36.0523093,69.7685155 C36.694886,70.997685 37.0643026,72.2190254 37.1657621,73.4429755 C37.2750262,74.6564868 37.105927,75.8517302 36.6766754,77.0078281 C36.2474237,78.1795842 35.5528165,79.2626104 34.5954552,80.2595165 C33.6797183,81.2146673 32.7587784,81.9166771 31.8300339,82.3524973 C30.9064924,82.801366 29.9985601,83.0753847 29.1010339,83.2058698 C28.2139138,83.3337452 27.3476059,83.3572325 26.5047117,83.2685026 C25.6644191,83.1823825 24.8735554,83.0884332 24.1399253,82.9892645 C23.4036936,82.8953153 22.7246956,82.8587794 22.1081341,82.85356 C21.4915726,82.8692183 20.9504553,83.0258004 20.4951884,83.3259161 L17.4435993,85.4423842 L13.4788749,81.6217808 L15.9633315,78.1926327 C16.4498167,77.4932326 17.0299568,77.0130475 17.6907442,76.7703453 C18.3489301,76.5250333 19.0539435,76.4206452 19.8031827,76.4232549 C20.552422,76.4336937 21.325075,76.5093751 22.1289463,76.650299 C22.9406221,76.7886132 23.7340873,76.8695139 24.524951,76.8982206 C25.3158147,76.9243177 26.0832646,76.8408072 26.8246993,76.6581281 C27.5713371,76.4676199 28.2503351,76.0578967 28.8747012,75.4002518 C29.5953237,74.6512674 29.9231159,73.8083338 29.8528747,72.8975479 C29.7904381,71.9763231 29.3247651,71.0942439 28.4610587,70.2591394 C27.8002713,69.6249819 27.1837098,69.1630646 26.6087727,68.8733878 C26.0338356,68.5889303 25.5031245,68.3671056 25.0244439,68.2366205 C24.5457632,68.0956966 24.1191131,67.9834795 23.7496965,67.8921399 C23.385483,67.7981906 23.078503,67.6337794 22.8391627,67.4119548 C22.3084515,66.884795 22.1341493,66.2793442 22.311053,65.5616762 L23.0420816,61.7149758 Z M5.48178633,86.9534015 C5.91363952,86.5019231 6.39752321,86.1652716 6.93603893,85.9408372 C7.47455466,85.7137932 8.03908563,85.6041857 8.60361661,85.5963566 C9.17335063,85.5885275 9.73788161,85.6929156 10.2972095,85.9121305 C10.859139,86.1287357 11.374241,86.4575582 11.8503201,86.9194754 C12.3133916,87.3709538 12.6645975,87.8667971 12.8987348,88.4174442 C13.1406766,88.9733107 13.2707529,89.5422256 13.2889635,90.1241891 C13.3175803,90.6931041 13.2239254,91.2567997 13.023608,91.8126662 C12.8180875,92.3607035 12.5059045,92.8591566 12.0714497,93.310635 C11.6421981,93.7595037 11.1453068,94.0987649 10.5989865,94.3310284 C10.0552677,94.5711209 9.49593976,94.6885575 8.91579963,94.6859478 C8.34346408,94.6781187 7.77893311,94.5711209 7.22480823,94.351906 C6.66548031,94.1170328 6.16078442,93.7908201 5.69771292,93.3393417 C5.22423533,92.8800342 4.86782638,92.3868005 4.61547843,91.8413729 C4.37353658,91.2881161 4.24866337,90.7270302 4.22785117,90.1633347 C4.21744507,89.59181 4.30849845,89.0202853 4.519222,88.4591994 C4.72734401,87.9085523 5.04473009,87.4048799 5.48178633,86.9534015 L5.48178633,86.9534015 Z" id="Fill-3" fill="#F1B237"></path>
                <path d="M182.757061,35.2224186 C182.298066,35.5865356 181.97316,36.0109021 181.792656,36.4798008 L175.29195,54.876874 C174.979937,55.6732161 174.685974,56.5638618 174.417797,57.5173766 C174.198615,58.2744255 173.997482,59.0786262 173.811821,59.9090223 C173.592638,59.0760066 173.363141,58.2718059 173.128487,57.5121375 C172.831945,56.5533836 172.525089,55.6653574 172.220812,54.8821131 L165.668533,36.4719422 C165.444193,35.9454134 165.108972,35.5079492 164.670607,35.1726473 C164.232241,34.8321063 163.646894,34.6618357 162.935194,34.6618357 L156.400966,34.6618357 L170.041876,69.2319874 L170.080555,69.3236715 L177.383213,69.3236715 L190.982865,34.8635408 L191.062802,34.6618357 L184.484737,34.6618357 C183.801403,34.6618357 183.218634,34.8504431 182.757061,35.2224186" id="Fill-4" fill="#312B47"></path>
                <polyline id="Fill-5" fill="#312B47" points="202.764149 34.6618357 194.444444 34.6618357 194.444444 69.3236715 215.57971 69.3236715 215.57971 62.6595459 202.764149 62.6595459 202.764149 34.6618357"></polyline>
                <path d="M236.51089,44.5977746 C236.722399,43.937649 236.928751,43.2172737 237.122205,42.4549858 C237.336294,43.1936978 237.547804,43.8983558 237.764473,44.561101 C238.027571,45.3731603 238.277771,46.0830573 238.507337,46.6724552 L241.57681,55.8880189 L232.721766,55.8880189 L235.762867,46.7274657 C235.992432,46.1406873 236.240054,45.4203121 236.51089,44.5977746 Z M245.435577,67.5135651 C245.657405,68.0400938 245.997884,68.4775581 246.431221,68.81286 C246.872297,69.153401 247.457818,69.3236715 248.172309,69.3236715 L254.468599,69.3236715 L241.290498,34.7561394 L241.256966,34.6618357 L233.018396,34.6618357 L219.881566,69.124586 L219.806763,69.3236715 L226.149482,69.3236715 C226.830441,69.3236715 227.413383,69.1376837 227.877673,68.7604691 C228.334225,68.3963521 228.661807,67.9746052 228.844944,67.5030869 L230.807859,61.6117274 L243.467503,61.6117274 L245.435577,67.5135651 L245.435577,67.5135651 Z" id="Fill-6" fill="#312B47"></path>
                <path d="M238.846935,32.9478799 C239.067297,32.9324569 239.277165,32.8964698 239.473917,32.8527712 C239.675915,32.8039316 239.870043,32.7268165 240.051055,32.6291373 C240.23469,32.5314581 240.431441,32.3926508 240.622946,32.2127154 L248.254286,25.6167989 L248.550725,25.3623188 L240.074665,25.3623188 C239.731006,25.3623188 239.40571,25.3726009 239.10927,25.3854534 C238.823325,25.4034469 238.563613,25.449716 238.340627,25.5191197 C238.107149,25.5936643 237.892034,25.7144781 237.700529,25.8712789 C237.509024,26.0255092 237.314896,26.2311496 237.118144,26.4933412 L232.650571,32.74481 L232.487923,32.9710145 L238.112396,32.9710145 C238.369484,32.9710145 238.61608,32.9607325 238.846935,32.9478799" id="Fill-7" fill="#312B47"></path>
                <path d="M276.105638,62.1382562 C274.942196,62.6385895 273.59656,62.895305 272.110373,62.895305 L266.959474,62.895305 L266.959474,41.0875827 L272.110373,41.0875827 C273.59656,41.0875827 274.942196,41.3442982 276.105638,41.8446315 C277.266477,42.3423453 278.263342,43.0705792 279.0676,44.0005181 C279.866653,44.9278374 280.493923,46.0804378 280.920779,47.4268845 C281.355443,48.7733313 281.574076,50.3057658 281.574076,51.9796559 C281.574076,53.6692632 281.355443,55.2095564 280.920779,56.5586227 C280.493923,57.9024499 279.866653,59.0550503 279.0676,59.9849892 C278.260739,60.9175476 277.263875,61.6431619 276.105638,62.1382562 Z M279.418975,68.0322352 C281.607912,67.1677849 283.502735,65.949696 285.056594,64.4094028 C286.610453,62.8743487 287.831156,61.0223295 288.690073,58.9135948 C289.543784,56.8022405 289.975845,54.4708444 289.975845,51.9796559 C289.975845,49.5041847 289.543784,47.1806472 288.690073,45.0719125 C287.831156,42.9631778 286.610453,41.1137781 285.056594,39.5813436 C283.497529,38.0462895 281.600104,36.8334396 279.418975,35.9663698 C277.235244,35.0993 274.775618,34.6618357 272.110373,34.6618357 L258.695652,34.6618357 L258.695652,69.3236715 L272.110373,69.3236715 C274.775618,69.3236715 277.232641,68.8888268 279.418975,68.0322352 L279.418975,68.0322352 Z" id="Fill-8" fill="#312B47"></path>
                <path d="M318.969747,52.9934203 C318.969747,53.543525 318.985532,54.138162 319.017104,54.761614 C319.040782,55.217415 319.074984,55.6915529 319.124972,56.1787885 L303.028845,35.9375548 C302.797322,35.665122 302.600001,35.4529387 302.423728,35.2852878 C302.2343,35.1176368 302.036979,34.9866595 301.839658,34.9002145 C301.639706,34.8032912 301.408182,34.7404221 301.155612,34.706368 C300.918827,34.6749335 300.624161,34.6618357 300.258459,34.6618357 L295.89372,34.6618357 L295.89372,69.3236715 L303.252476,69.3236715 L303.252476,50.7510887 C303.252476,50.2533749 303.239321,49.7058898 303.215642,49.1295896 C303.199857,48.7157013 303.170916,48.2860957 303.131452,47.8460119 L319.098663,67.9536488 C319.524876,68.4513626 319.956351,68.81286 320.395719,69.0171846 C320.832456,69.2241287 321.377062,69.3236715 322.008489,69.3236715 L326.328502,69.3236715 L326.328502,34.6618357 L318.969747,34.6618357 L318.969747,52.9934203" id="Fill-9" fill="#312B47"></path>
                <polygon id="Fill-10" fill="#312B47" points="334.782609 69.3236715 343.236715 69.3236715 343.236715 34.6618357 334.782609 34.6618357"></polygon>
                <path d="M341.52394,25.3623188 C341.180281,25.3623188 340.854985,25.3726009 340.558546,25.3854534 C340.2726,25.4034469 340.010265,25.449716 339.789903,25.5191197 C339.556424,25.5936643 339.341309,25.7144781 339.149804,25.8712789 C338.960923,26.0255092 338.764171,26.2311496 338.567419,26.4933412 L334.099846,32.74481 L333.937198,32.9710145 L339.561671,32.9710145 C339.81876,32.9710145 340.065355,32.9607325 340.29621,32.9478799 C340.516572,32.9324569 340.72644,32.8964698 340.923192,32.8527712 C341.12519,32.8039316 341.319319,32.7268165 341.50033,32.6291373 C341.683965,32.5314581 341.880717,32.3926508 342.072222,32.2127154 L349.703561,25.6167989 L350,25.3623188 L341.52394,25.3623188" id="Fill-11" fill="#312B47"></path>
                <path d="M182.701644,96.1877477 C181.979167,95.4735064 181.138468,94.8721782 180.203189,94.4100221 C179.283674,93.9557436 178.327378,93.551357 177.357946,93.2126175 C176.43843,92.8870075 175.484761,92.5719011 174.523211,92.2830535 C173.616831,92.0125871 172.794522,91.7053583 172.085181,91.3823742 C171.383723,91.0567642 170.813623,90.6707588 170.390646,90.2296097 C169.972923,89.7989642 169.768003,89.268535 169.768003,88.6068114 C169.768003,87.569586 170.122673,86.7398057 170.818877,86.1332257 C171.520336,85.521394 172.613246,85.2089134 174.068708,85.2089134 C174.909407,85.2089134 175.671292,85.3244525 176.338597,85.5476529 C177.00853,85.7708533 177.607528,86.0255644 178.125084,86.3065343 C178.653149,86.5875042 179.126042,86.8448411 179.543765,87.0732933 C180.476416,87.5800896 181.348642,87.5091906 181.879334,87.1205593 C182.152562,86.9262437 182.41528,86.6268925 182.66749,86.2225059 L184.656271,82.5042497 L184.711442,82.4018401 L184.627372,82.3256893 C183.999474,81.75062 183.284879,81.2306944 182.504605,80.7816677 C181.716449,80.3273892 180.859986,79.936132 179.961488,79.6131479 C179.052481,79.2875379 178.085676,79.0380786 177.084718,78.8726477 C176.086387,78.7072168 175.03814,78.6231884 173.971502,78.6231884 C172.066791,78.6231884 170.353865,78.9172878 168.880013,79.4949829 C167.403534,80.0726781 166.13723,80.8604443 165.115255,81.8320225 C164.098533,82.8062267 163.313004,83.9274805 162.787567,85.1695251 C162.26213,86.4141957 161.994157,87.7035063 161.994157,89.0085722 C161.994157,90.6287446 162.220095,92.0125871 162.669344,93.1207115 C163.118593,94.2340877 163.712337,95.1741553 164.440068,95.9120296 C165.162544,96.6551556 166.003244,97.2617356 166.928014,97.7186399 C167.844902,98.1650408 168.798571,98.5510462 169.765375,98.8609009 C170.721671,99.1628779 171.670086,99.4490996 172.586974,99.6985589 C173.485472,99.9480182 174.2999,100.239492 175.011868,100.565102 C175.708072,100.890712 176.275545,101.30035 176.698522,101.783513 C177.113617,102.256173 177.326419,102.88376 177.326419,103.647893 C177.326419,104.979218 176.937596,105.9613 176.175711,106.570506 C175.400691,107.184963 174.294646,107.494818 172.886473,107.494818 C171.832971,107.494818 170.910829,107.345142 170.146317,107.056295 C169.363416,106.759569 168.667211,106.428708 168.076094,106.074213 C167.469214,105.711841 166.925386,105.380979 166.444611,105.081628 C165.556622,104.522314 164.60558,104.454041 163.854205,104.903067 C163.528434,105.097383 163.263088,105.338965 163.058167,105.627812 L160.628019,109.461607 L160.714716,109.545636 C161.397785,110.230992 162.21484,110.855953 163.131728,111.412642 C164.053871,111.966704 165.046948,112.455119 166.087314,112.85688 C167.135561,113.261266 168.231098,113.576373 169.342398,113.796947 C170.458953,114.017522 171.570253,114.130435 172.647399,114.130435 C174.607281,114.130435 176.388514,113.828458 177.943808,113.237633 C179.488594,112.641557 180.812696,111.809151 181.87408,110.764047 C182.932836,109.72157 183.752518,108.482151 184.306855,107.085179 C184.863819,105.690833 185.144928,104.165193 185.144928,102.55815 C185.144928,101.111286 184.918989,99.8534862 184.472368,98.8215126 C184.025746,97.7947907 183.429374,96.9072408 182.701644,96.1877477" id="Fill-12" fill="#312B47"></path>
                <polyline id="Fill-13" fill="#312B47" points="200.228955 78.6231884 191.908213 78.6231884 191.908213 113.285024 213.043478 113.285024 213.043478 106.618783 200.228955 106.618783 200.228955 78.6231884"></polyline>
                <polygon id="Fill-14" fill="#312B47" points="218.115942 113.285024 226.570048 113.285024 226.570048 78.6231884 218.115942 78.6231884"></polygon>
                <path d="M253.422104,91.0205638 C253.177148,91.5418141 252.813665,91.9582905 252.342191,92.2542768 C251.862815,92.5581212 251.27018,92.7729078 250.582723,92.8933978 C249.874194,93.0165072 249.078746,93.0793715 248.212182,93.0793715 L244.18753,93.0793715 L244.18753,84.8860501 L248.733701,84.8860501 C249.623971,84.8860501 250.398347,84.9541532 251.038393,85.095598 C251.670538,85.2291848 252.194691,85.4596874 252.60295,85.7713899 C253.000674,86.0857116 253.306211,86.5048074 253.501122,87.0181996 C253.701301,87.5394499 253.804024,88.2100031 253.804024,89.0036656 C253.804024,89.8130442 253.674962,90.4914554 253.422104,91.0205638 Z M254.491481,104.206363 C254.359785,104.714517 254.106927,105.178141 253.743444,105.58676 C253.382595,105.990139 252.871612,106.325416 252.226298,106.579493 C251.570448,106.844047 250.717053,106.975014 249.681917,106.975014 L244.18753,106.975014 L244.18753,98.7057316 L249.634506,98.7057316 C250.630134,98.7057316 251.462457,98.8000282 252.107771,98.9833826 C252.745183,99.1667369 253.266702,99.4260524 253.651256,99.7560903 C254.030543,100.083509 254.307106,100.489508 254.465142,100.96361 C254.620544,101.450809 254.70483,102.00873 254.70483,102.616419 C254.70483,103.148146 254.633714,103.685113 254.491481,104.206363 Z M256.577557,95.3215337 C257.444122,94.978399 258.207963,94.5750194 258.853277,94.1297302 C259.606582,93.6006219 260.233458,93.0138878 260.712834,92.3852443 C261.19221,91.7539813 261.555693,91.0650927 261.779578,90.3369139 C262.003462,89.6087351 262.114087,88.8465047 262.114087,88.0633196 C262.114087,86.6331554 261.869132,85.3208619 261.384488,84.1604907 C260.894576,82.9948807 260.099128,81.9916703 259.024482,81.1744336 C257.947203,80.365055 256.551218,79.725934 254.8655,79.2858835 C253.195586,78.845833 251.130581,78.6231884 248.733701,78.6231884 L235.869565,78.6231884 L235.869565,113.285024 L249.821516,113.285024 C251.897056,113.285024 253.772417,113.015231 255.400189,112.486123 C257.017424,111.957015 258.402874,111.207881 259.514394,110.264916 C260.623281,109.32195 261.479309,108.19825 262.056141,106.920008 C262.632973,105.652243 262.922705,104.25875 262.922705,102.781438 C262.922705,100.80121 262.361677,99.1667369 261.250157,97.9173078 C260.217655,96.7595559 258.64783,95.8873129 256.577557,95.3215337 L256.577557,95.3215337 Z" id="Fill-15" fill="#312B47"></path>
                <g id="Group-19" transform="translate(0.000000, 45.652174)">
                    <path d="M288.047797,33.4334854 C287.748455,33.5452362 287.49857,33.6829755 287.27992,33.8519011 C287.06127,34.0260243 286.871253,34.2183396 286.704662,34.4314457 C286.545881,34.6315575 286.407923,34.8420648 286.290789,35.0655663 L281.509125,44.9827966 C281.105664,45.7468599 280.746453,46.4771381 280.441905,47.1528404 C280.189416,47.7141931 279.960355,48.270348 279.759926,48.8187064 C279.546482,48.28854 279.301802,47.7375828 279.031093,47.1736312 C278.690103,46.4745393 278.320481,45.7364645 277.927431,44.9879943 L273.098913,35.0577697 C272.825601,34.5457953 272.476802,34.1169843 272.065532,33.7843308 C271.641247,33.4438808 271.06599,33.2749553 270.342363,33.2749553 L263.098284,33.2749553 L275.58996,54.593362 L275.58996,67.6656021 L283.802346,67.6656021 L283.802346,54.593362 L296.16127,33.4958579 L296.294022,33.2749553 L289.003089,33.2749553 C288.656894,33.2749553 288.334125,33.3269324 288.047797,33.4334854" id="Fill-16" fill="#312B47"></path>
                    <path d="M27.708667,5.76867508 C27.6019451,5.16574074 27.61496,4.58879495 27.7451087,4.03264001 C27.8804634,3.47648506 28.1069222,2.97230721 28.4296911,2.51490875 C28.75246,2.062708 29.161127,1.67547862 29.6556922,1.35581947 C30.1502574,1.03356146 30.7125,0.817856504 31.3450229,0.706105743 C31.9619279,0.594354983 32.5580092,0.602151548 33.1332666,0.732094292 C33.708524,0.859438182 34.229119,1.07774199 34.7002574,1.38960458 C35.1687929,1.70406602 35.5644451,2.09649311 35.882008,2.57468241 C36.2021739,3.047674 36.4130149,3.58563697 36.5197368,4.1885713 C36.6290618,4.78890678 36.6186499,5.36845142 36.4885011,5.93500179 C36.3583524,6.50155216 36.1240847,7.01092772 35.7935069,7.46312847 C35.4629291,7.92052693 35.0490561,8.30515745 34.5544908,8.61442118 C34.0573227,8.92888263 33.502889,9.13679102 32.883381,9.24854178 C32.2508581,9.36289139 31.646968,9.36289139 31.0743135,9.24074521 C30.501659,9.11859903 29.983667,8.90289408 29.5229405,8.58843264 C29.062214,8.2791689 28.6717677,7.8815441 28.3516018,7.39555824 C28.0340389,6.90697352 27.817992,6.3664117 27.708667,5.76867508 Z M13.8894737,8.24798264 C13.7827517,7.64764716 13.7957666,7.06810252 13.9285183,6.51194758 C14.058667,5.95579263 14.2877288,5.45161478 14.6104977,4.99421632 C14.9332666,4.54201557 15.3419336,4.15738504 15.8364989,3.83772589 C16.3284611,3.51286903 16.8933066,3.29716407 17.5258295,3.18541331 C18.1453375,3.07626141 18.7414188,3.08145912 19.3140732,3.21140186 C19.8893307,3.33874575 20.4125286,3.55964842 20.8810641,3.871511 C21.3495995,4.18337359 21.7452517,4.57839953 22.0628146,5.05398998 C22.3829805,5.52958043 22.5964245,6.06494453 22.7031465,6.66787887 C22.8124714,7.26821435 22.7994565,7.84775899 22.6667048,8.41690821 C22.539159,8.98085972 22.3074943,9.49023528 21.9743135,9.94243604 C21.6437357,10.3998345 21.2298627,10.784465 20.7352975,11.0963276 C20.2381293,11.410789 19.6836957,11.6160986 19.0667906,11.7304482 C18.4342677,11.842199 17.8277746,11.842199 17.2551201,11.7200528 C16.6824657,11.6005055 16.1644737,11.3822016 15.7037471,11.0703391 C15.2430206,10.7584765 14.8525744,10.3608517 14.5324085,9.87486581 C14.2122426,9.38887994 13.9987986,8.85091698 13.8894737,8.24798264 Z M0.0728832952,10.7272902 C-0.0338386728,10.1269547 -0.0208237986,9.55000895 0.109324943,8.99125514 C0.242076659,8.4351002 0.468535469,7.93092235 0.793907323,7.47612274 C1.11407323,7.02132313 1.52274027,6.63669261 2.01470252,6.31703346 C2.50926773,5.99477545 3.07411327,5.77647164 3.70923913,5.66472088 C4.32614416,5.55556897 4.9222254,5.56076668 5.49748284,5.69070943 C6.07274027,5.82065217 6.59333524,6.04155484 7.06187071,6.35081857 C7.53300915,6.66268116 7.92605835,7.0577071 8.24362128,7.53329755 C8.56378719,8.00888799 8.77723112,8.5442521 8.88655606,9.14978529 C8.99327803,9.74752192 8.98026316,10.3270666 8.85011442,10.8962158 C8.71996568,11.4627661 8.48830092,11.9695429 8.15512014,12.4269413 C7.82714531,12.8791421 7.41327231,13.2637726 6.91610412,13.5756352 C6.4215389,13.8900966 5.86450229,14.098005 5.24759725,14.2097558 C4.61507437,14.3215065 4.00858124,14.3215065 3.43592677,14.2019592 C2.86327231,14.079813 2.34528032,13.8641081 1.88715675,13.5496466 C1.42382723,13.237784 1.03598398,12.8401592 0.713215103,12.3541734 C0.395652174,11.8681875 0.182208238,11.3302245 0.0728832952,10.7272902 L0.0728832952,10.7272902 Z" id="Fill-18" fill="#9AB1D1"></path>
                </g>
                <path d="M133.574879,7.53268548 C133.574879,7.53268548 121.902094,5.828057 114.034523,12.5318864 C108.387742,3.42489575 99.5331524,0 99.5331524,0 C99.5331524,0 91.1798643,3.09908756 85.0863276,11.7629791 C76.4888825,5.29894449 65.0966184,7.77508678 65.0966184,7.77508678 C65.0966184,7.77508678 68.9407932,18.2087684 72.909644,31.1290182 L72.9460078,31.2801932 L79.9668218,29.1637432 C79.592794,27.5320958 75.5200466,16.1288089 75.2888766,15.4693731 C82.2525474,17.3538477 86.6629588,22.5667789 86.6629588,22.5667789 L86.6733485,22.5459271 C86.6733485,22.5459271 92.2759736,12.5475252 99.2396444,8.31723162 C106.844877,12.5058218 112.016331,23.7527207 112.016331,23.7527207 C112.016331,23.7527207 116.909862,18.0445611 123.969637,15.670071 C121.863133,22.931684 120.904687,28.009079 120.907284,28.0481759 C120.930661,28.0403565 124.216391,27.2896945 128.395633,27.2584169 C130.751489,17.557152 133.574879,7.53268548 133.574879,7.53268548" id="Fill-20" fill="#2D2A47"></path>
                <path d="M81.4248696,125.966184 C80.8983234,125.966184 80.566314,125.953182 80.4755301,125.947981 L76.9323671,125.73995 L77.0024004,122.185219 C77.0049942,122.12281 77.1243101,115.90008 77.0024004,109.773565 C77.0024004,109.773565 81.0539528,110.293643 84.3714531,109.968595 C84.4596431,113.177474 84.4337049,116.004096 84.4181419,118.396453 C88.8613617,117.858173 96.29526,115.793464 99.4908506,108.202931 L100.388314,106.068012 L102.694223,105.948394 C111.482097,105.490726 115.564775,100.914042 117.307825,97.9287965 C109.303285,92.86324 106.216635,88.1799406 106.216635,88.1799406 L108.405822,85.7459771 C108.452511,85.691369 113.61422,79.8144913 115.479179,71.8599034 L122.651101,73.5423546 C121.188185,79.8014894 118.158599,84.8982505 116.073165,87.8652936 C119.839396,91.4408276 126.811594,94.8941433 126.811594,94.8941433 C126.811594,94.8941433 123.730132,110.699304 105.295828,113.138468 C98.8838959,125.115857 85.1885075,125.966184 81.4248696,125.966184" id="Fill-21" fill="#2D2A47"></path>
                <path d="M65.0325699,92.6508897 L64.8784469,88.7775893 L68.7602575,88.7984556 C68.8177272,88.7984556 74.4810957,88.7775893 79.1648686,86.5344659 C81.259897,85.5302769 82.602596,84.0461638 83.044067,82.2386236 C83.5299464,80.2745865 82.9239033,77.9688642 81.3852852,75.9239703 C78.1069054,71.5524878 67.7545394,73.065292 61.8482312,75.7700816 L60.7040636,76.2969548 L59.4736916,76.0152602 C53.7058329,74.7006855 49.5418987,71.8785232 47.0994404,67.6296301 C43.0452209,60.571616 45.5791081,52.3111835 45.691435,51.9616736 L46.326213,49.948079 L48.3846698,49.4707632 C48.4369149,49.4551135 50.550229,48.9595398 58.0682985,47.0163689 C62.36807,45.9078486 64.306363,43.1717596 66.7383723,40.6078173 C69.8965884,37.2796481 73.4440305,34.3557628 80.9986715,32.7960095 C90.875607,30.7589404 106.165135,30.5137618 119.202899,33.6880423 L116.671624,41.1920727 C107.314527,38.7455032 97.7066535,38.5290157 88.1013924,39.3167172 C80.5754862,39.9348803 76.2652657,41.7632867 72.4670472,45.3183766 C69.4498928,48.1431472 66.5633512,52.4833302 59.9282239,54.1891473 C56.2893529,55.1307375 53.8939152,55.7384675 52.3788074,56.1166685 C52.1019084,58.1172217 52.0104795,61.317585 53.5569344,63.9780338 C54.7846941,66.0933513 56.9476412,67.6087638 59.9961426,68.5007966 C67.924336,65.2873919 81.3252033,63.4928931 87.3255527,71.4768476 C90.199033,75.3084155 91.2674453,79.8729109 90.2538904,84.001823 C89.2769071,87.9794547 86.4791821,91.2502417 82.3727175,93.2142788 C79.2876446,94.6931753 76.001428,95.4417526 73.4231324,95.8199536 C74.3217481,97.4136146 75.8551417,99.1455146 83.6919062,99.1455146 C91.5286708,99.1455146 94.504029,96.2607535 97.2495089,92.9925748 L102.936388,97.7552997 C98.8064127,102.666697 95.2432971,106.521739 82.5921469,106.521739 C68.0340507,106.521739 65.2519993,98.1387173 65.0325699,92.6508897" id="Fill-22" fill="#2D2A47"></path>
                <path d="M79.5667226,55.7971014 L76.0869565,48.9972011 C76.3688149,48.843088 83.0622939,45.3309327 89.6135266,49.0323497 L85.9994167,55.7592491 C83.0333178,54.080228 79.6009671,55.7781753 79.5667226,55.7971014" id="Fill-23" fill="#2D2A47"></path>
                <path d="M124.765287,64.2512077 L120.328749,58.2500983 C131.279229,52.8255712 131.026465,43.3778961 129.633629,38.7316257 C124.736324,38.2145116 117.432494,39.512468 112.419338,49.7745978 L105.676329,46.6046882 C111.400383,34.8713688 121.674192,29.3796168 133.169694,31.8695213 L134.939043,32.2573569 L135.726298,33.8604107 C139.825816,42.2040471 138.669947,56.7375395 124.765287,64.2512077" id="Fill-24" fill="#2D2A47"></path>
                <path d="M116.891186,125.120773 C110.691737,125.120773 104.505317,123.549036 98.9130435,120.442235 L102.493558,113.930003 C109.039593,117.568575 116.604536,118.587585 123.708235,116.871771 C123.215719,115.305273 122.717991,113.58946 122.248928,111.344495 L121.563575,108.043846 L124.763627,107.032695 C132.28427,104.656752 135.966415,99.6193341 137.6368,96.3213052 C129.269237,91.3205608 126.663332,86.9825656 126.663332,86.9825656 C126.663332,86.9825656 131.752665,82.7650704 136.891511,75.7105891 C133.167672,73.1984289 129.529828,69.6751176 127.554552,67.0712727 C127.554552,67.0712727 128.982588,66.3299366 130.775451,64.9206121 C132.649097,63.4457985 133.441292,62.5603865 133.441292,62.5603865 C135.424386,65.1773292 139.79449,69.1066726 143.135261,70.7910512 L146.614145,72.5330601 C146.614145,72.5330601 144.089022,79.9830952 137.03223,87.2864349 C140.505902,90.2151055 147.101449,92.9577872 147.101449,92.9577872 C147.101449,92.9577872 143.051872,107.252739 130.249058,112.900515 C130.546131,113.950959 130.853628,114.899241 131.166337,115.876338 C131.41911,116.654348 131.669276,117.429738 131.916838,118.2549 L132.912293,121.597462 L129.662729,122.812939 C125.534975,124.355861 121.209172,125.120773 116.891186,125.120773" id="Fill-25" fill="#2D2A47"></path>
                <path d="M61.9450759,87.0772947 C56.397834,87.0772947 52.4381424,84.2937614 50.7246377,82.143335 L56.4713074,77.3055435 C56.8649149,77.7676848 60.5412091,81.6731797 67.9593987,77.8157689 C72.9765825,75.1951871 77.5581739,74.5754369 81.5677225,75.9565182 C86.5114329,77.6528173 88.5529438,81.7479771 88.7681159,82.2101184 L82.0452996,85.4825064 C81.6280756,84.6837766 79.0171458,80.5779315 71.3575436,84.5662378 C67.8806772,86.382747 64.7160728,87.0772947 61.9450759,87.0772947" id="Fill-26" fill="#2D2A47"></path>
            </g>
        </g>
    </g>
</svg>