<?xml version="1.0" encoding="UTF-8" standalone="no"?><!DOCTYPE svg PUBLIC "-//W3C//DTD SVG 1.1//EN" "http://www.w3.org/Graphics/SVG/1.1/DTD/svg11.dtd"><svg width="100%" height="100%" viewBox="0 0 172 80" version="1.1" xmlns="http://www.w3.org/2000/svg" xmlns:xlink="http://www.w3.org/1999/xlink" xml:space="preserve" style="fill-rule:evenodd;clip-rule:evenodd;stroke-linejoin:round;stroke-miterlimit:1.41421;"><g><path d="M89.94,65.882c-4.089,-0.509 -7.298,-2.569 -9.627,-6.179c-2.33,-3.61 -3.494,-8.472 -3.494,-14.583c0,-6.216 1.164,-11.141 3.494,-14.774c2.329,-3.632 5.538,-5.719 9.627,-6.258l0,1.866c-2.876,0.523 -5.063,2.358 -6.561,5.504c-1.498,3.146 -2.247,7.716 -2.247,13.706c0,5.707 0.733,10.145 2.202,13.314c1.469,3.167 3.67,5.022 6.606,5.561l0,1.843Z" style="fill:#ef4136;fill-rule:nonzero;"/><path d="M0,64.039c2.936,-0.539 5.138,-2.394 6.606,-5.561c1.469,-3.169 2.202,-7.607 2.202,-13.314c0,-5.99 -0.749,-10.561 -2.247,-13.706c-1.497,-3.145 -3.685,-4.981 -6.561,-5.504l0,-1.866c4.09,0.539 7.299,2.626 9.628,6.258c2.329,3.633 3.494,8.558 3.494,14.774c0,6.111 -1.165,10.973 -3.494,14.583c-2.329,3.609 -5.538,5.67 -9.628,6.179l0,-1.843l0,0Z" style="fill:#ef4136;fill-rule:nonzero;"/></g><path d="M47.365,41.587l-12.95,0l0,-1.773c0.412,-0.035 0.863,-0.07 1.355,-0.107c0.492,-0.035 0.901,-0.107 1.224,-0.215c0.502,-0.16 0.873,-0.443 1.115,-0.847c0.24,-0.402 0.361,-0.926 0.361,-1.57l0,-13.621c0,-1.882 -0.443,-3.332 -1.332,-4.354c-0.89,-1.02 -1.972,-1.531 -3.245,-1.531c-0.952,0 -1.821,0.148 -2.612,0.443c-0.79,0.295 -1.489,0.658 -2.101,1.088c-0.592,0.412 -1.063,0.855 -1.413,1.331c-0.35,0.475 -0.605,0.855 -0.768,1.141l0,15.233c0,0.609 0.125,1.111 0.377,1.504c0.25,0.395 0.625,0.7 1.128,0.915c0.377,0.18 0.783,0.312 1.223,0.402c0.438,0.09 0.891,0.152 1.356,0.188l0,1.773l-12.975,0l0,-1.773c0.412,-0.035 0.836,-0.07 1.275,-0.107c0.438,-0.035 0.819,-0.105 1.142,-0.213c0.502,-0.162 0.873,-0.443 1.115,-0.847c0.242,-0.403 0.363,-0.926 0.363,-1.568l0,-16.343c0,-0.61 -0.131,-1.169 -0.391,-1.679c-0.26,-0.508 -0.621,-0.924 -1.088,-1.246c-0.34,-0.215 -0.743,-0.372 -1.208,-0.472c-0.467,-0.098 -0.967,-0.164 -1.504,-0.201l0,-1.771l8.812,-0.593l0.375,0.378l0,3.733l0.135,0c0.43,-0.43 0.967,-0.943 1.612,-1.546c0.645,-0.6 1.252,-1.086 1.826,-1.463c0.663,-0.43 1.45,-0.787 2.364,-1.074c0.913,-0.287 1.942,-0.431 3.089,-0.431c2.544,0 4.428,0.794 5.655,2.378c1.226,1.585 1.84,3.695 1.84,6.327l0,13.782c0,0.627 0.107,1.133 0.322,1.518c0.215,0.385 0.583,0.685 1.103,0.899c0.43,0.18 0.801,0.305 1.115,0.377c0.312,0.072 0.746,0.125 1.304,0.16l0,1.775l0.001,0Z" style="fill-rule:nonzero;"/><path d="M72.462,3.223c0,0.806 -0.215,1.487 -0.645,2.042c-0.43,0.555 -1.085,0.832 -1.962,0.832c-0.555,0 -1.043,-0.115 -1.464,-0.349c-0.422,-0.232 -0.811,-0.546 -1.17,-0.94c-0.357,-0.393 -0.688,-0.842 -0.992,-1.343c-0.305,-0.502 -0.565,-0.904 -0.78,-1.209c-1.199,0.054 -2.127,0.889 -2.78,2.507c-0.654,1.617 -0.98,4.195 -0.98,7.734l0,2.708l5.127,0l0,2.579l-5.127,0l0,19.021c0,0.627 0.121,1.139 0.363,1.531c0.24,0.395 0.621,0.69 1.142,0.888c0.43,0.16 1.002,0.291 1.719,0.389c0.717,0.1 1.335,0.166 1.855,0.201l0,1.773l-13.971,0l0,-1.773c0.412,-0.035 0.836,-0.07 1.275,-0.107c0.438,-0.035 0.818,-0.107 1.142,-0.215c0.502,-0.16 0.873,-0.443 1.115,-0.847c0.242,-0.403 0.361,-0.926 0.361,-1.57l0,-19.291l-4.98,0l0,-2.579l4.981,0l0,-1.689c0,-4.022 1.043,-7.281 3.13,-9.775c2.087,-2.495 4.697,-3.741 7.831,-3.741c1.595,0 2.794,0.313 3.602,0.939c0.804,0.628 1.208,1.389 1.208,2.284Z" style="fill-rule:nonzero;"/><path d="M47.365,75.6l-12.95,0l0,-1.774c0.412,-0.035 0.863,-0.07 1.355,-0.107c0.492,-0.035 0.901,-0.107 1.224,-0.215c0.502,-0.16 0.873,-0.443 1.115,-0.846c0.24,-0.402 0.361,-0.926 0.361,-1.571l0,-13.621c0,-1.881 -0.443,-3.331 -1.332,-4.353c-0.89,-1.021 -1.972,-1.532 -3.245,-1.532c-0.952,0 -1.821,0.148 -2.612,0.443c-0.79,0.295 -1.489,0.659 -2.101,1.089c-0.592,0.412 -1.063,0.855 -1.413,1.33c-0.35,0.475 -0.605,0.856 -0.768,1.142l0,15.232c0,0.61 0.125,1.112 0.377,1.505c0.25,0.395 0.625,0.699 1.128,0.914c0.377,0.18 0.783,0.312 1.223,0.402c0.438,0.09 0.891,0.152 1.356,0.188l0,1.774l-12.975,0l0,-1.774c0.412,-0.035 0.836,-0.07 1.275,-0.107c0.438,-0.035 0.819,-0.105 1.142,-0.213c0.502,-0.162 0.873,-0.443 1.115,-0.846c0.242,-0.403 0.363,-0.926 0.363,-1.569l0,-16.343c0,-0.609 -0.131,-1.168 -0.391,-1.678c-0.26,-0.508 -0.621,-0.925 -1.088,-1.247c-0.34,-0.215 -0.743,-0.371 -1.208,-0.471c-0.467,-0.098 -0.967,-0.164 -1.504,-0.201l0,-1.772l8.812,-0.592l0.375,0.377l0,3.734l0.135,0c0.43,-0.43 0.967,-0.944 1.612,-1.546c0.645,-0.6 1.252,-1.086 1.826,-1.463c0.663,-0.431 1.45,-0.788 2.364,-1.075c0.913,-0.285 1.942,-0.43 3.089,-0.43c2.544,0 4.428,0.793 5.655,2.378c1.226,1.584 1.84,3.694 1.84,6.326l0,13.782c0,0.628 0.107,1.134 0.322,1.519c0.215,0.385 0.583,0.684 1.103,0.898c0.43,0.18 0.801,0.305 1.115,0.377c0.312,0.072 0.746,0.125 1.304,0.16l0,1.776l0.001,0Z" style="fill-rule:nonzero;"/><path d="M72.128,75.6l-21.44,0l0,-1.424l15.015,-22.89l-3.714,0c-1.562,0 -2.782,0.027 -3.661,0.08c-0.88,0.055 -1.687,0.234 -2.423,0.537c-0.502,0.197 -0.974,0.763 -1.413,1.694c-0.439,0.93 -0.822,2.149 -1.145,3.653l-1.637,0l0,-8.14l20.256,0l0,1.103l-15.229,23.21c0.645,0.018 1.353,0.031 2.122,0.041c0.77,0.008 1.602,0.014 2.497,0.014c0.717,0 1.463,-0.01 2.243,-0.027c0.777,-0.018 1.775,-0.062 2.995,-0.135c0.715,-0.035 1.256,-0.277 1.623,-0.725c0.368,-0.448 0.649,-0.957 0.847,-1.532c0.197,-0.52 0.434,-1.234 0.711,-2.148c0.277,-0.913 0.525,-1.8 0.74,-2.659l1.613,0l0,9.348Z" style="fill-rule:nonzero;"/><g><g><path d="M108.473,27.62c-0.113,0.004 -0.288,0.037 -0.524,0.098c-0.236,0.061 -0.405,0.125 -0.507,0.189c-0.146,0.102 -0.245,0.297 -0.296,0.587c-0.051,0.289 -0.076,0.654 -0.076,1.1l0,6.342l-0.531,0l-5.251,-7.088l0,4.47c0,0.501 0.031,0.886 0.095,1.153c0.063,0.27 0.16,0.461 0.29,0.574c0.094,0.09 0.287,0.174 0.58,0.25c0.293,0.078 0.486,0.119 0.58,0.123l0,0.434l-3.554,0l0,-0.434c0.109,-0.008 0.295,-0.049 0.556,-0.119c0.26,-0.072 0.423,-0.135 0.488,-0.193c0.143,-0.113 0.24,-0.287 0.293,-0.521c0.053,-0.234 0.079,-0.633 0.079,-1.2l0,-4.267c0,-0.188 -0.032,-0.375 -0.098,-0.562c-0.066,-0.187 -0.152,-0.332 -0.263,-0.435c-0.146,-0.133 -0.345,-0.248 -0.595,-0.344c-0.25,-0.096 -0.453,-0.148 -0.607,-0.156l0,-0.434l2.476,0l4.87,6.607l0,-4.121c0,-0.504 -0.033,-0.893 -0.098,-1.162c-0.065,-0.271 -0.159,-0.452 -0.282,-0.542c-0.113,-0.076 -0.3,-0.152 -0.559,-0.225c-0.258,-0.074 -0.454,-0.115 -0.589,-0.123l0,-0.434l3.522,0l0,0.433l0.001,0Z" style="fill-rule:nonzero;"/><path d="M114.353,35.74c-0.192,0.07 -0.36,0.125 -0.505,0.168c-0.145,0.043 -0.309,0.064 -0.491,0.064c-0.317,0 -0.571,-0.074 -0.76,-0.223c-0.189,-0.148 -0.311,-0.365 -0.363,-0.65l-0.037,0c-0.265,0.293 -0.548,0.518 -0.853,0.672c-0.303,0.154 -0.668,0.232 -1.095,0.232c-0.452,0 -0.823,-0.139 -1.114,-0.416c-0.292,-0.275 -0.438,-0.639 -0.438,-1.086c0,-0.232 0.032,-0.439 0.098,-0.623c0.066,-0.182 0.164,-0.349 0.294,-0.495c0.102,-0.121 0.236,-0.23 0.402,-0.326c0.167,-0.096 0.324,-0.172 0.471,-0.229c0.183,-0.07 0.554,-0.197 1.113,-0.385c0.56,-0.188 0.939,-0.334 1.134,-0.439l0,-0.604c0,-0.055 -0.012,-0.156 -0.034,-0.307c-0.022,-0.151 -0.069,-0.294 -0.144,-0.427c-0.081,-0.152 -0.196,-0.283 -0.345,-0.395c-0.149,-0.112 -0.359,-0.168 -0.633,-0.168c-0.187,0 -0.36,0.031 -0.521,0.094c-0.161,0.064 -0.273,0.131 -0.339,0.199c0,0.082 0.02,0.201 0.059,0.359c0.038,0.161 0.058,0.308 0.058,0.44c0,0.143 -0.064,0.273 -0.192,0.391c-0.128,0.119 -0.306,0.178 -0.534,0.178c-0.203,0 -0.353,-0.072 -0.448,-0.217c-0.095,-0.145 -0.144,-0.307 -0.144,-0.484c0,-0.189 0.066,-0.368 0.198,-0.538c0.132,-0.172 0.305,-0.324 0.516,-0.459c0.184,-0.113 0.405,-0.211 0.665,-0.289c0.261,-0.08 0.516,-0.119 0.764,-0.119c0.342,0 0.641,0.023 0.895,0.07c0.255,0.047 0.485,0.146 0.693,0.303c0.207,0.15 0.365,0.354 0.473,0.613c0.107,0.258 0.162,0.591 0.162,0.999c0,0.58 -0.007,1.098 -0.019,1.547c-0.012,0.45 -0.019,0.94 -0.019,1.474c0,0.16 0.027,0.285 0.083,0.379c0.055,0.094 0.139,0.174 0.253,0.238c0.062,0.037 0.157,0.057 0.29,0.061c0.132,0.004 0.268,0.006 0.407,0.006l0,0.392Zm-2.132,-3.223c-0.346,0.104 -0.648,0.203 -0.91,0.301c-0.261,0.098 -0.503,0.221 -0.727,0.367c-0.203,0.139 -0.364,0.303 -0.481,0.493c-0.118,0.189 -0.178,0.414 -0.178,0.676c0,0.338 0.089,0.588 0.266,0.746c0.177,0.158 0.402,0.238 0.675,0.238c0.289,0 0.543,-0.07 0.764,-0.211c0.22,-0.141 0.405,-0.307 0.556,-0.498l0.035,-2.112Z" style="fill-rule:nonzero;"/><path d="M121.336,35.74l-2.106,0.135l-0.092,-0.086l0,-0.561l-0.049,-0.012c-0.211,0.234 -0.473,0.428 -0.783,0.58c-0.311,0.15 -0.631,0.225 -0.96,0.225c-0.341,0 -0.673,-0.076 -0.991,-0.229c-0.319,-0.152 -0.597,-0.367 -0.832,-0.645c-0.24,-0.279 -0.43,-0.617 -0.57,-1.012c-0.14,-0.396 -0.21,-0.831 -0.21,-1.308c0,-0.436 0.075,-0.85 0.226,-1.24c0.151,-0.39 0.357,-0.733 0.622,-1.026c0.247,-0.271 0.551,-0.49 0.911,-0.652c0.359,-0.162 0.727,-0.244 1.101,-0.244c0.28,0 0.556,0.035 0.826,0.107c0.271,0.07 0.503,0.162 0.698,0.271l0,-2.099c0,-0.172 -0.029,-0.328 -0.086,-0.469c-0.057,-0.141 -0.137,-0.248 -0.238,-0.32c-0.113,-0.078 -0.268,-0.133 -0.461,-0.168c-0.193,-0.035 -0.401,-0.061 -0.625,-0.076l0,-0.379l2.467,-0.135l0.091,0.092l0,8.114c0,0.143 0.028,0.264 0.083,0.363c0.055,0.099 0.135,0.184 0.241,0.254c0.077,0.049 0.189,0.078 0.336,0.092c0.146,0.012 0.28,0.02 0.402,0.023l0,0.405l-0.001,0Zm-2.21,-1.054l0,-3.522c-0.033,-0.107 -0.086,-0.221 -0.159,-0.343c-0.073,-0.123 -0.164,-0.234 -0.273,-0.336c-0.118,-0.102 -0.256,-0.188 -0.415,-0.254c-0.158,-0.066 -0.343,-0.1 -0.554,-0.1c-0.244,0 -0.469,0.062 -0.674,0.188c-0.205,0.127 -0.388,0.309 -0.546,0.545c-0.15,0.228 -0.269,0.519 -0.356,0.87c-0.087,0.352 -0.131,0.742 -0.131,1.168c0,0.342 0.032,0.652 0.098,0.933c0.066,0.28 0.175,0.537 0.329,0.777c0.142,0.229 0.324,0.412 0.546,0.551c0.222,0.137 0.484,0.207 0.789,0.207c0.325,0 0.594,-0.072 0.807,-0.215c0.213,-0.143 0.393,-0.299 0.539,-0.469Z" style="fill-rule:nonzero;"/><path d="M127.686,35.74c-0.192,0.07 -0.36,0.125 -0.505,0.168c-0.145,0.043 -0.309,0.064 -0.491,0.064c-0.317,0 -0.571,-0.074 -0.76,-0.223c-0.189,-0.148 -0.311,-0.365 -0.363,-0.65l-0.037,0c-0.265,0.293 -0.548,0.518 -0.853,0.672c-0.303,0.154 -0.668,0.232 -1.095,0.232c-0.452,0 -0.823,-0.139 -1.114,-0.416c-0.292,-0.275 -0.438,-0.639 -0.438,-1.086c0,-0.232 0.032,-0.439 0.098,-0.623c0.065,-0.182 0.164,-0.349 0.294,-0.495c0.102,-0.121 0.236,-0.23 0.402,-0.326c0.167,-0.096 0.324,-0.172 0.471,-0.229c0.183,-0.07 0.554,-0.197 1.113,-0.385c0.559,-0.188 0.939,-0.334 1.134,-0.439l0,-0.604c0,-0.055 -0.012,-0.156 -0.034,-0.307c-0.022,-0.151 -0.069,-0.294 -0.144,-0.427c-0.081,-0.152 -0.196,-0.283 -0.345,-0.395c-0.15,-0.112 -0.359,-0.168 -0.633,-0.168c-0.187,0 -0.36,0.031 -0.521,0.094c-0.161,0.064 -0.273,0.131 -0.339,0.199c0,0.082 0.02,0.201 0.059,0.359c0.038,0.161 0.058,0.308 0.058,0.44c0,0.143 -0.064,0.273 -0.192,0.391c-0.128,0.119 -0.306,0.178 -0.534,0.178c-0.203,0 -0.353,-0.072 -0.448,-0.217c-0.095,-0.145 -0.144,-0.307 -0.144,-0.484c0,-0.189 0.066,-0.368 0.198,-0.538c0.132,-0.172 0.305,-0.324 0.516,-0.459c0.184,-0.113 0.405,-0.211 0.665,-0.289c0.261,-0.08 0.516,-0.119 0.764,-0.119c0.342,0 0.641,0.023 0.895,0.07c0.255,0.047 0.485,0.146 0.693,0.303c0.207,0.15 0.365,0.354 0.473,0.613c0.107,0.258 0.162,0.591 0.162,0.999c0,0.58 -0.007,1.098 -0.019,1.547c-0.012,0.45 -0.019,0.94 -0.019,1.474c0,0.16 0.027,0.285 0.083,0.379c0.055,0.094 0.139,0.174 0.253,0.238c0.062,0.037 0.157,0.057 0.29,0.061c0.132,0.004 0.268,0.006 0.407,0.006l0,0.392Zm-2.132,-3.223c-0.346,0.104 -0.649,0.203 -0.91,0.301c-0.261,0.098 -0.503,0.221 -0.727,0.367c-0.203,0.139 -0.364,0.303 -0.481,0.493c-0.118,0.189 -0.178,0.414 -0.178,0.676c0,0.338 0.089,0.588 0.266,0.746c0.177,0.158 0.402,0.238 0.675,0.238c0.289,0 0.543,-0.07 0.763,-0.211c0.221,-0.141 0.406,-0.307 0.557,-0.498l0.035,-2.112Z" style="fill-rule:nonzero;"/><path d="M130.887,36.01c-0.872,0 -1.554,-0.289 -2.046,-0.867c-0.492,-0.578 -0.738,-1.354 -0.738,-2.325c0,-0.424 0.066,-0.82 0.198,-1.188c0.132,-0.369 0.324,-0.703 0.577,-1.005c0.24,-0.289 0.541,-0.523 0.903,-0.699c0.362,-0.178 0.758,-0.266 1.185,-0.266c0.59,0 1.07,0.141 1.44,0.424c0.37,0.283 0.556,0.668 0.556,1.157c0,0.203 -0.049,0.385 -0.146,0.541c-0.097,0.156 -0.259,0.234 -0.482,0.234c-0.24,0 -0.426,-0.061 -0.559,-0.182c-0.132,-0.123 -0.198,-0.258 -0.198,-0.408c0,-0.182 0.024,-0.371 0.073,-0.563c0.049,-0.193 0.077,-0.334 0.086,-0.424c-0.073,-0.125 -0.182,-0.209 -0.326,-0.252c-0.144,-0.043 -0.299,-0.064 -0.466,-0.064c-0.194,0 -0.38,0.043 -0.557,0.125c-0.178,0.084 -0.35,0.238 -0.516,0.461c-0.15,0.206 -0.271,0.48 -0.365,0.825c-0.093,0.346 -0.14,0.76 -0.14,1.24c0,0.756 0.167,1.374 0.503,1.853c0.335,0.479 0.775,0.717 1.32,0.717c0.394,0 0.724,-0.096 0.99,-0.287c0.266,-0.193 0.513,-0.48 0.74,-0.865l0.391,0.256c-0.269,0.48 -0.623,0.861 -1.063,1.141c-0.438,0.28 -0.892,0.421 -1.36,0.421Zm1.953,-9.378l-1.459,2.144c-0.069,0.09 -0.128,0.152 -0.177,0.191c-0.049,0.039 -0.161,0.059 -0.336,0.059c-0.183,0 -0.304,-0.023 -0.363,-0.066c-0.059,-0.045 -0.121,-0.115 -0.187,-0.209l-1.446,-2.118l0.293,-0.195l1.679,1.666l1.703,-1.666l0.293,0.194Z" style="fill-rule:nonzero;"/><path d="M140.411,35.852l-2.942,0l0,-0.404c0.094,-0.008 0.196,-0.016 0.308,-0.023c0.112,-0.008 0.205,-0.025 0.278,-0.049c0.113,-0.037 0.198,-0.102 0.253,-0.193c0.055,-0.09 0.083,-0.209 0.083,-0.355l0,-3.097c0,-0.426 -0.102,-0.756 -0.304,-0.989c-0.201,-0.232 -0.447,-0.348 -0.737,-0.348c-0.216,0 -0.413,0.033 -0.593,0.1c-0.18,0.068 -0.339,0.15 -0.478,0.248c-0.135,0.094 -0.241,0.196 -0.321,0.304c-0.079,0.107 -0.138,0.193 -0.174,0.26l0,3.46c0,0.139 0.028,0.254 0.085,0.342c0.058,0.09 0.143,0.16 0.257,0.209c0.085,0.039 0.178,0.07 0.277,0.092c0.1,0.02 0.202,0.033 0.309,0.041l0,0.404l-2.949,0l0,-0.404c0.094,-0.008 0.19,-0.016 0.29,-0.023c0.1,-0.007 0.187,-0.025 0.259,-0.049c0.114,-0.037 0.199,-0.102 0.254,-0.191c0.055,-0.092 0.082,-0.211 0.082,-0.357l0,-3.714c0,-0.139 -0.029,-0.267 -0.088,-0.382c-0.06,-0.115 -0.142,-0.211 -0.248,-0.283c-0.077,-0.049 -0.168,-0.084 -0.274,-0.107c-0.105,-0.021 -0.22,-0.037 -0.342,-0.045l0,-0.406l2.002,-0.135l0.087,0.086l0,0.848l0.03,0c0.098,-0.098 0.22,-0.215 0.366,-0.352c0.146,-0.135 0.285,-0.246 0.415,-0.332c0.15,-0.098 0.33,-0.18 0.537,-0.244c0.207,-0.064 0.441,-0.098 0.702,-0.098c0.578,0 1.007,0.18 1.285,0.541c0.279,0.359 0.418,0.839 0.418,1.439l0,3.132c0,0.143 0.025,0.256 0.074,0.344c0.049,0.088 0.132,0.156 0.25,0.205c0.098,0.041 0.182,0.068 0.253,0.086c0.071,0.016 0.17,0.027 0.296,0.035l0,0.404Z" style="fill-rule:nonzero;"/><path d="M144.12,35.852l-2.907,0l0,-0.404c0.094,-0.008 0.19,-0.016 0.29,-0.023c0.1,-0.007 0.187,-0.025 0.26,-0.049c0.114,-0.037 0.198,-0.102 0.253,-0.191c0.056,-0.092 0.083,-0.211 0.083,-0.357l0,-3.714c0,-0.129 -0.03,-0.249 -0.089,-0.356c-0.059,-0.109 -0.142,-0.199 -0.247,-0.271c-0.077,-0.049 -0.189,-0.092 -0.336,-0.125c-0.146,-0.035 -0.28,-0.057 -0.403,-0.064l0,-0.405l2.125,-0.135l0.085,0.086l0,4.908c0,0.143 0.027,0.26 0.082,0.354c0.055,0.094 0.141,0.164 0.258,0.209c0.089,0.035 0.176,0.066 0.262,0.088c0.085,0.022 0.18,0.037 0.285,0.045l0,0.404l-0.001,0Zm-0.227,-8.916c0,0.154 -0.035,0.281 -0.106,0.379c-0.072,0.098 -0.177,0.201 -0.315,0.311c-0.203,0.164 -0.469,0.371 -0.797,0.624c-0.327,0.252 -0.681,0.527 -1.059,0.824l-0.231,-0.195c0.365,-0.541 0.621,-0.923 0.766,-1.146c0.145,-0.223 0.3,-0.467 0.467,-0.736c0.126,-0.207 0.248,-0.348 0.366,-0.424c0.118,-0.074 0.254,-0.113 0.409,-0.113c0.146,0 0.267,0.051 0.359,0.15c0.094,0.1 0.141,0.209 0.141,0.326Z" style="fill-rule:nonzero;"/><path d="M152.362,27.132c0,0.184 -0.049,0.338 -0.146,0.465c-0.098,0.125 -0.247,0.189 -0.447,0.189c-0.126,0 -0.237,-0.027 -0.332,-0.08c-0.096,-0.053 -0.185,-0.125 -0.266,-0.213c-0.082,-0.09 -0.157,-0.191 -0.226,-0.307c-0.069,-0.113 -0.129,-0.205 -0.178,-0.273c-0.272,0.012 -0.483,0.201 -0.632,0.568c-0.149,0.367 -0.223,0.954 -0.223,1.759l0,0.615l1.551,0l0,0.586l-1.551,0l0,4.322c0,0.143 0.027,0.26 0.083,0.35c0.055,0.088 0.141,0.156 0.259,0.201c0.098,0.035 0.229,0.066 0.391,0.088c0.163,0.021 0.304,0.037 0.421,0.045l0,0.404l-3.175,0l0,-0.404c0.094,-0.008 0.19,-0.016 0.29,-0.023c0.1,-0.007 0.187,-0.025 0.26,-0.049c0.114,-0.037 0.198,-0.102 0.253,-0.193c0.056,-0.09 0.083,-0.209 0.083,-0.355l0,-4.385l-1.19,0l0,-0.586l1.19,0l0,-0.385c0,-0.914 0.236,-1.655 0.712,-2.222c0.474,-0.566 1.067,-0.85 1.779,-0.85c0.362,0 0.636,0.072 0.818,0.215c0.184,0.141 0.276,0.315 0.276,0.518Z" style="fill-rule:nonzero;"/><path d="M157.624,32.78c0,0.422 -0.066,0.839 -0.201,1.249c-0.135,0.408 -0.327,0.756 -0.575,1.041c-0.281,0.324 -0.607,0.566 -0.978,0.727c-0.371,0.158 -0.786,0.236 -1.246,0.236c-0.385,0 -0.749,-0.072 -1.095,-0.217c-0.347,-0.143 -0.654,-0.354 -0.923,-0.631c-0.265,-0.273 -0.476,-0.605 -0.633,-0.998c-0.157,-0.393 -0.235,-0.833 -0.235,-1.321c0,-0.941 0.274,-1.709 0.822,-2.31c0.548,-0.598 1.266,-0.896 2.154,-0.896c0.844,0 1.539,0.283 2.087,0.852c0.549,0.567 0.823,1.323 0.823,2.268Zm-1.264,0.012c0,-0.305 -0.031,-0.627 -0.092,-0.967c-0.062,-0.34 -0.153,-0.629 -0.275,-0.863c-0.131,-0.255 -0.302,-0.456 -0.514,-0.608c-0.212,-0.154 -0.471,-0.23 -0.776,-0.23c-0.315,0 -0.583,0.078 -0.805,0.232c-0.223,0.154 -0.403,0.367 -0.542,0.636c-0.13,0.248 -0.222,0.531 -0.274,0.85c-0.054,0.316 -0.08,0.623 -0.08,0.92c0,0.391 0.032,0.752 0.095,1.085c0.063,0.332 0.164,0.627 0.303,0.889c0.139,0.26 0.313,0.465 0.523,0.613c0.21,0.148 0.47,0.223 0.78,0.223c0.51,0 0.913,-0.246 1.211,-0.738c0.297,-0.494 0.446,-1.174 0.446,-2.042Z" style="fill-rule:nonzero;"/><path d="M164.908,35.852l-2.942,0l0,-0.404c0.094,-0.008 0.196,-0.016 0.308,-0.023c0.112,-0.008 0.205,-0.025 0.278,-0.049c0.114,-0.037 0.199,-0.102 0.254,-0.193c0.055,-0.09 0.083,-0.209 0.083,-0.355l0,-3.097c0,-0.426 -0.102,-0.756 -0.305,-0.989c-0.201,-0.232 -0.447,-0.348 -0.737,-0.348c-0.216,0 -0.413,0.033 -0.593,0.1c-0.18,0.068 -0.339,0.15 -0.478,0.248c-0.135,0.094 -0.241,0.196 -0.321,0.304c-0.079,0.107 -0.138,0.193 -0.174,0.26l0,3.46c0,0.139 0.028,0.254 0.085,0.342c0.058,0.09 0.143,0.16 0.257,0.209c0.085,0.039 0.178,0.07 0.277,0.092c0.1,0.02 0.202,0.033 0.309,0.041l0,0.404l-2.949,0l0,-0.404c0.094,-0.008 0.19,-0.016 0.29,-0.023c0.1,-0.007 0.187,-0.025 0.259,-0.049c0.114,-0.037 0.199,-0.102 0.254,-0.191c0.055,-0.092 0.082,-0.211 0.082,-0.357l0,-3.714c0,-0.139 -0.029,-0.267 -0.088,-0.382c-0.06,-0.115 -0.142,-0.211 -0.248,-0.283c-0.077,-0.049 -0.168,-0.084 -0.274,-0.107c-0.105,-0.021 -0.22,-0.037 -0.342,-0.045l0,-0.406l2.003,-0.135l0.086,0.086l0,0.848l0.03,0c0.098,-0.098 0.22,-0.215 0.366,-0.352c0.146,-0.135 0.285,-0.246 0.415,-0.332c0.15,-0.098 0.33,-0.18 0.537,-0.244c0.207,-0.064 0.441,-0.098 0.702,-0.098c0.578,0 1.007,0.18 1.285,0.541c0.279,0.359 0.418,0.839 0.418,1.439l0,3.132c0,0.143 0.025,0.256 0.074,0.344c0.049,0.088 0.132,0.156 0.25,0.205c0.098,0.041 0.182,0.068 0.253,0.086c0.071,0.016 0.17,0.027 0.296,0.035l0,0.404Z" style="fill-rule:nonzero;"/><path d="M171.999,35.74l-2.106,0.135l-0.092,-0.086l0,-0.561l-0.049,-0.012c-0.211,0.234 -0.473,0.428 -0.783,0.58c-0.311,0.15 -0.631,0.225 -0.96,0.225c-0.342,0 -0.673,-0.076 -0.991,-0.229c-0.319,-0.152 -0.597,-0.367 -0.832,-0.645c-0.24,-0.279 -0.43,-0.617 -0.57,-1.012c-0.14,-0.396 -0.21,-0.831 -0.21,-1.308c0,-0.436 0.075,-0.85 0.226,-1.24c0.151,-0.39 0.357,-0.733 0.622,-1.026c0.247,-0.271 0.551,-0.49 0.911,-0.652c0.359,-0.162 0.726,-0.244 1.101,-0.244c0.28,0 0.556,0.035 0.826,0.107c0.271,0.07 0.503,0.162 0.698,0.271l0,-2.099c0,-0.172 -0.029,-0.328 -0.086,-0.469c-0.057,-0.141 -0.137,-0.248 -0.238,-0.32c-0.113,-0.078 -0.268,-0.133 -0.461,-0.168c-0.193,-0.035 -0.401,-0.061 -0.625,-0.076l0,-0.379l2.467,-0.135l0.091,0.092l0,8.114c0,0.143 0.028,0.264 0.083,0.363c0.055,0.099 0.135,0.184 0.241,0.254c0.077,0.049 0.189,0.078 0.336,0.092c0.146,0.012 0.28,0.02 0.402,0.023l0,0.405l-0.001,0Zm-2.21,-1.054l0,-3.522c-0.033,-0.107 -0.086,-0.221 -0.159,-0.343c-0.073,-0.123 -0.164,-0.234 -0.273,-0.336c-0.118,-0.102 -0.256,-0.188 -0.415,-0.254c-0.158,-0.066 -0.343,-0.1 -0.554,-0.1c-0.244,0 -0.47,0.062 -0.675,0.188c-0.204,0.127 -0.387,0.309 -0.545,0.545c-0.15,0.228 -0.269,0.519 -0.356,0.87c-0.087,0.352 -0.131,0.742 -0.131,1.168c0,0.342 0.032,0.652 0.098,0.933c0.066,0.28 0.175,0.537 0.329,0.777c0.142,0.229 0.324,0.412 0.545,0.551c0.222,0.137 0.485,0.207 0.79,0.207c0.325,0 0.594,-0.072 0.807,-0.215c0.213,-0.143 0.393,-0.299 0.539,-0.469Z" style="fill-rule:nonzero;"/></g><g><path d="M105.848,49.357l-2.942,0l0,-0.404c0.094,-0.008 0.196,-0.016 0.308,-0.023c0.112,-0.008 0.205,-0.025 0.279,-0.049c0.113,-0.037 0.198,-0.102 0.253,-0.193c0.055,-0.09 0.083,-0.209 0.083,-0.355l0,-3.097c0,-0.426 -0.102,-0.756 -0.304,-0.989c-0.202,-0.232 -0.448,-0.348 -0.738,-0.348c-0.216,0 -0.413,0.033 -0.593,0.1c-0.18,0.068 -0.339,0.15 -0.478,0.248c-0.135,0.094 -0.241,0.196 -0.321,0.304c-0.079,0.107 -0.138,0.193 -0.174,0.26l0,3.46c0,0.139 0.028,0.254 0.085,0.342c0.058,0.09 0.143,0.16 0.257,0.209c0.085,0.039 0.178,0.07 0.277,0.092c0.1,0.02 0.202,0.033 0.309,0.041l0,0.404l-2.949,0l0,-0.404c0.094,-0.008 0.19,-0.016 0.29,-0.023c0.1,-0.007 0.187,-0.025 0.259,-0.049c0.114,-0.037 0.199,-0.102 0.254,-0.191c0.055,-0.092 0.082,-0.211 0.082,-0.357l0,-3.714c0,-0.139 -0.029,-0.266 -0.088,-0.382c-0.06,-0.115 -0.142,-0.211 -0.248,-0.283c-0.077,-0.049 -0.168,-0.084 -0.274,-0.107c-0.105,-0.021 -0.22,-0.037 -0.342,-0.045l0,-0.406l2.003,-0.135l0.086,0.086l0,0.848l0.03,0c0.098,-0.098 0.22,-0.215 0.366,-0.352c0.146,-0.135 0.285,-0.246 0.415,-0.332c0.15,-0.098 0.33,-0.18 0.537,-0.244c0.207,-0.064 0.441,-0.098 0.702,-0.098c0.578,0 1.007,0.18 1.285,0.541c0.279,0.359 0.418,0.839 0.418,1.439l0,3.132c0,0.143 0.025,0.256 0.074,0.344c0.049,0.088 0.132,0.156 0.25,0.205c0.098,0.041 0.182,0.068 0.253,0.086c0.071,0.016 0.17,0.027 0.296,0.035l0,0.404Z" style="fill-rule:nonzero;"/><path d="M111.694,47.941c-0.253,0.479 -0.591,0.861 -1.014,1.146c-0.424,0.285 -0.91,0.428 -1.459,0.428c-0.485,0 -0.91,-0.086 -1.273,-0.256c-0.364,-0.172 -0.665,-0.404 -0.9,-0.697c-0.236,-0.293 -0.412,-0.635 -0.528,-1.025c-0.116,-0.39 -0.174,-0.804 -0.174,-1.239c0,-0.391 0.062,-0.773 0.187,-1.15c0.124,-0.377 0.306,-0.715 0.546,-1.017c0.232,-0.289 0.52,-0.523 0.863,-0.699c0.344,-0.178 0.729,-0.266 1.158,-0.266c0.439,0 0.815,0.068 1.129,0.207c0.314,0.139 0.567,0.328 0.763,0.568c0.188,0.227 0.327,0.497 0.418,0.806c0.092,0.311 0.139,0.645 0.139,1.008l0,0.402l-3.987,0c0,0.396 0.037,0.754 0.112,1.077c0.075,0.322 0.194,0.605 0.357,0.852c0.159,0.236 0.366,0.422 0.622,0.559c0.258,0.137 0.563,0.205 0.917,0.205c0.362,0 0.675,-0.084 0.937,-0.254c0.263,-0.17 0.517,-0.477 0.761,-0.918l0.426,0.263Zm-1.35,-2.296c0,-0.229 -0.02,-0.471 -0.059,-0.73c-0.038,-0.26 -0.101,-0.477 -0.186,-0.653c-0.094,-0.186 -0.222,-0.338 -0.385,-0.455c-0.163,-0.117 -0.372,-0.178 -0.629,-0.178c-0.428,0 -0.783,0.178 -1.065,0.533c-0.283,0.356 -0.437,0.851 -0.461,1.483l2.785,0Z" style="fill-rule:nonzero;"/><path d="M117.138,49.357l-4.872,0l0,-0.324l3.412,-5.201l-0.844,0c-0.354,0 -0.633,0.006 -0.833,0.018c-0.199,0.012 -0.383,0.053 -0.551,0.121c-0.113,0.045 -0.221,0.174 -0.32,0.386c-0.101,0.213 -0.187,0.488 -0.261,0.83l-0.372,0l0,-1.851l4.605,0l0,0.252l-3.462,5.275c0.146,0.004 0.307,0.006 0.482,0.008c0.176,0.002 0.364,0.004 0.568,0.004c0.162,0 0.332,-0.002 0.509,-0.006c0.178,-0.004 0.404,-0.016 0.681,-0.031c0.163,-0.008 0.286,-0.062 0.369,-0.164c0.083,-0.102 0.147,-0.219 0.192,-0.348c0.045,-0.119 0.099,-0.281 0.161,-0.488c0.063,-0.209 0.119,-0.41 0.168,-0.605l0.367,0l0,2.124l0.001,0Z" style="fill-rule:nonzero;"/><path d="M123.635,49.245c-0.191,0.07 -0.359,0.125 -0.504,0.168c-0.145,0.043 -0.309,0.064 -0.491,0.064c-0.317,0 -0.572,-0.074 -0.761,-0.223c-0.189,-0.148 -0.311,-0.365 -0.363,-0.65l-0.037,0c-0.265,0.293 -0.548,0.518 -0.852,0.672c-0.303,0.154 -0.668,0.232 -1.096,0.232c-0.452,0 -0.823,-0.139 -1.114,-0.416c-0.291,-0.275 -0.437,-0.639 -0.437,-1.086c0,-0.232 0.032,-0.439 0.098,-0.623c0.065,-0.182 0.163,-0.348 0.293,-0.495c0.102,-0.121 0.236,-0.23 0.402,-0.326c0.167,-0.096 0.324,-0.172 0.471,-0.229c0.183,-0.07 0.555,-0.197 1.114,-0.385c0.559,-0.188 0.938,-0.334 1.133,-0.439l0,-0.604c0,-0.055 -0.012,-0.156 -0.034,-0.307c-0.022,-0.151 -0.069,-0.294 -0.144,-0.427c-0.081,-0.152 -0.196,-0.283 -0.345,-0.395c-0.149,-0.112 -0.358,-0.168 -0.632,-0.168c-0.187,0 -0.36,0.031 -0.521,0.094c-0.161,0.064 -0.274,0.131 -0.34,0.199c0,0.082 0.02,0.201 0.059,0.359c0.038,0.161 0.058,0.308 0.058,0.44c0,0.143 -0.064,0.273 -0.192,0.391c-0.128,0.119 -0.306,0.178 -0.534,0.178c-0.203,0 -0.353,-0.072 -0.448,-0.217c-0.095,-0.145 -0.144,-0.307 -0.144,-0.484c0,-0.188 0.066,-0.368 0.198,-0.538c0.132,-0.172 0.305,-0.324 0.516,-0.459c0.184,-0.113 0.405,-0.211 0.666,-0.289c0.261,-0.08 0.516,-0.119 0.764,-0.119c0.342,0 0.64,0.023 0.894,0.07c0.255,0.047 0.485,0.146 0.693,0.303c0.207,0.15 0.366,0.354 0.474,0.613c0.107,0.259 0.162,0.591 0.162,0.999c0,0.58 -0.007,1.098 -0.019,1.547c-0.012,0.45 -0.019,0.94 -0.019,1.474c0,0.16 0.027,0.285 0.083,0.379c0.055,0.094 0.139,0.174 0.253,0.238c0.062,0.037 0.157,0.057 0.29,0.061c0.132,0.004 0.268,0.006 0.406,0.006l0,0.392Zm-2.132,-3.223c-0.346,0.104 -0.648,0.203 -0.909,0.301c-0.261,0.098 -0.503,0.221 -0.727,0.367c-0.203,0.139 -0.365,0.303 -0.482,0.493c-0.118,0.189 -0.178,0.414 -0.178,0.676c0,0.338 0.089,0.588 0.266,0.746c0.178,0.158 0.403,0.238 0.676,0.238c0.289,0 0.543,-0.07 0.763,-0.211c0.22,-0.141 0.405,-0.307 0.556,-0.498l0.035,-2.112Zm0.489,-5.581c0,0.154 -0.035,0.281 -0.106,0.379c-0.071,0.098 -0.176,0.201 -0.314,0.311c-0.203,0.164 -0.469,0.371 -0.797,0.624c-0.327,0.252 -0.681,0.527 -1.059,0.824l-0.232,-0.195c0.366,-0.541 0.622,-0.923 0.767,-1.146c0.145,-0.223 0.3,-0.467 0.467,-0.736c0.126,-0.207 0.248,-0.348 0.366,-0.424c0.118,-0.074 0.254,-0.113 0.409,-0.113c0.146,0 0.267,0.051 0.359,0.15c0.093,0.1 0.14,0.209 0.14,0.326Z" style="fill-rule:nonzero;"/><path d="M129.973,43.708c-0.184,0.033 -0.357,0.1 -0.522,0.199c-0.165,0.099 -0.306,0.275 -0.424,0.528c-0.24,0.545 -0.488,1.113 -0.745,1.705c-0.256,0.592 -0.522,1.216 -0.8,1.866c-0.082,0.188 -0.168,0.408 -0.26,0.666c-0.092,0.256 -0.176,0.502 -0.254,0.738l-0.476,0c-0.387,-0.957 -0.742,-1.828 -1.068,-2.616c-0.325,-0.787 -0.664,-1.594 -1.014,-2.42c-0.082,-0.189 -0.213,-0.335 -0.394,-0.439c-0.182,-0.104 -0.363,-0.17 -0.547,-0.197l0,-0.404l2.786,0l0,0.428c-0.122,0.004 -0.274,0.029 -0.458,0.076c-0.183,0.047 -0.274,0.111 -0.274,0.191c0,0.014 0.011,0.045 0.03,0.096c0.021,0.051 0.041,0.107 0.062,0.174c0.166,0.415 0.401,0.995 0.706,1.737c0.305,0.744 0.552,1.345 0.742,1.8c0.146,-0.35 0.331,-0.783 0.553,-1.306c0.223,-0.52 0.462,-1.102 0.719,-1.744c0.04,-0.109 0.079,-0.211 0.115,-0.307c0.037,-0.096 0.056,-0.192 0.056,-0.29c0,-0.07 -0.034,-0.133 -0.102,-0.188c-0.066,-0.055 -0.147,-0.102 -0.24,-0.143c-0.094,-0.041 -0.186,-0.07 -0.275,-0.092c-0.089,-0.02 -0.162,-0.033 -0.22,-0.043l0,-0.391l2.304,0l0,0.376Z" style="fill-rule:nonzero;"/><path d="M133.544,49.357l-2.907,0l0,-0.404c0.094,-0.008 0.19,-0.016 0.29,-0.023c0.1,-0.007 0.187,-0.025 0.26,-0.049c0.114,-0.037 0.198,-0.102 0.253,-0.191c0.056,-0.092 0.083,-0.211 0.083,-0.357l0,-3.714c0,-0.129 -0.03,-0.248 -0.089,-0.356c-0.059,-0.109 -0.142,-0.199 -0.247,-0.271c-0.077,-0.049 -0.189,-0.092 -0.336,-0.125c-0.146,-0.035 -0.28,-0.057 -0.402,-0.064l0,-0.405l2.124,-0.135l0.085,0.086l0,4.908c0,0.143 0.027,0.26 0.082,0.354c0.055,0.094 0.141,0.164 0.258,0.209c0.09,0.035 0.177,0.066 0.262,0.088c0.085,0.022 0.18,0.037 0.285,0.045l0,0.404l-0.001,0Zm-0.765,-8.47c0,0.232 -0.076,0.436 -0.229,0.607c-0.152,0.175 -0.341,0.261 -0.564,0.261c-0.208,0 -0.388,-0.082 -0.54,-0.249c-0.153,-0.164 -0.229,-0.352 -0.229,-0.564c0,-0.223 0.076,-0.418 0.229,-0.586c0.152,-0.166 0.332,-0.25 0.54,-0.25c0.231,0 0.422,0.078 0.57,0.236c0.149,0.156 0.223,0.338 0.223,0.545Z" style="fill-rule:nonzero;"/><path d="M138.293,46.406c0.168,0.146 0.296,0.316 0.385,0.508c0.09,0.192 0.135,0.425 0.135,0.702c0,0.557 -0.209,1.014 -0.627,1.367c-0.417,0.353 -0.957,0.531 -1.62,0.531c-0.35,0 -0.673,-0.062 -0.969,-0.189c-0.295,-0.127 -0.505,-0.242 -0.632,-0.348l-0.121,0.396l-0.458,0l-0.062,-2.094l0.422,0c0.032,0.16 0.102,0.346 0.207,0.559c0.105,0.211 0.234,0.402 0.385,0.574c0.158,0.18 0.349,0.332 0.571,0.453c0.222,0.123 0.471,0.184 0.748,0.184c0.391,0 0.691,-0.088 0.903,-0.266c0.211,-0.18 0.317,-0.434 0.317,-0.766c0,-0.17 -0.034,-0.318 -0.101,-0.441c-0.067,-0.125 -0.166,-0.234 -0.296,-0.326c-0.135,-0.094 -0.3,-0.18 -0.495,-0.255c-0.195,-0.076 -0.413,-0.15 -0.653,-0.223c-0.19,-0.057 -0.403,-0.135 -0.639,-0.236c-0.233,-0.1 -0.434,-0.215 -0.601,-0.35c-0.18,-0.143 -0.326,-0.318 -0.439,-0.525c-0.114,-0.207 -0.171,-0.451 -0.171,-0.732c0,-0.492 0.183,-0.911 0.549,-1.253c0.366,-0.342 0.857,-0.512 1.473,-0.512c0.235,0 0.477,0.031 0.723,0.092c0.246,0.061 0.446,0.135 0.602,0.219l0.141,-0.316l0.44,0l0.091,1.935l-0.422,0c-0.086,-0.432 -0.27,-0.786 -0.553,-1.058c-0.282,-0.271 -0.627,-0.408 -1.034,-0.408c-0.334,0 -0.596,0.084 -0.788,0.252c-0.191,0.168 -0.287,0.371 -0.287,0.61c0,0.184 0.031,0.336 0.095,0.457c0.062,0.123 0.157,0.227 0.284,0.312c0.123,0.08 0.276,0.158 0.461,0.229c0.186,0.07 0.414,0.152 0.688,0.24c0.268,0.086 0.521,0.186 0.76,0.301c0.236,0.114 0.432,0.239 0.588,0.377Z" style="fill-rule:nonzero;"/><path d="M142.39,49.357l-2.937,0l0,-0.404c0.094,-0.008 0.193,-0.016 0.3,-0.027c0.105,-0.01 0.192,-0.025 0.262,-0.045c0.114,-0.037 0.199,-0.102 0.257,-0.193c0.057,-0.092 0.085,-0.211 0.085,-0.357l0,-6.978c0,-0.146 -0.031,-0.283 -0.095,-0.412c-0.062,-0.129 -0.146,-0.229 -0.247,-0.303c-0.073,-0.049 -0.207,-0.094 -0.402,-0.135c-0.195,-0.039 -0.353,-0.064 -0.471,-0.072l0,-0.391l2.266,-0.135l0.086,0.092l0,8.261c0,0.143 0.026,0.26 0.079,0.352c0.053,0.092 0.139,0.162 0.256,0.211c0.09,0.039 0.179,0.07 0.266,0.092c0.088,0.02 0.187,0.033 0.297,0.041l0,0.403l-0.002,0Z" style="fill-rule:nonzero;"/><path d="M148.244,47.941c-0.252,0.479 -0.59,0.861 -1.013,1.146c-0.424,0.285 -0.911,0.428 -1.46,0.428c-0.484,0 -0.909,-0.086 -1.272,-0.256c-0.364,-0.172 -0.665,-0.404 -0.901,-0.697c-0.236,-0.293 -0.412,-0.635 -0.528,-1.025c-0.116,-0.39 -0.174,-0.804 -0.174,-1.239c0,-0.391 0.062,-0.773 0.187,-1.15c0.124,-0.377 0.306,-0.715 0.546,-1.017c0.233,-0.289 0.521,-0.523 0.864,-0.699c0.344,-0.178 0.729,-0.266 1.157,-0.266c0.439,0 0.815,0.068 1.13,0.207c0.314,0.139 0.567,0.328 0.763,0.568c0.188,0.227 0.327,0.497 0.418,0.806c0.092,0.311 0.138,0.645 0.138,1.008l0,0.402l-3.986,0c0,0.396 0.037,0.754 0.112,1.077c0.075,0.322 0.194,0.605 0.357,0.852c0.159,0.236 0.366,0.422 0.622,0.559c0.257,0.137 0.562,0.205 0.916,0.205c0.363,0 0.676,-0.084 0.938,-0.254c0.263,-0.17 0.517,-0.477 0.761,-0.918l0.425,0.263Zm-1.349,-2.296c0,-0.229 -0.02,-0.471 -0.059,-0.73c-0.038,-0.26 -0.101,-0.477 -0.186,-0.653c-0.094,-0.186 -0.223,-0.338 -0.386,-0.455c-0.163,-0.117 -0.372,-0.178 -0.629,-0.178c-0.427,0 -0.782,0.178 -1.064,0.533c-0.283,0.356 -0.437,0.851 -0.461,1.483l2.785,0Zm0.213,-5.204c0,0.154 -0.035,0.281 -0.106,0.379c-0.071,0.098 -0.176,0.201 -0.314,0.311c-0.203,0.164 -0.47,0.371 -0.797,0.624c-0.328,0.252 -0.681,0.527 -1.06,0.824l-0.231,-0.195c0.366,-0.541 0.621,-0.923 0.766,-1.146c0.145,-0.223 0.3,-0.467 0.467,-0.736c0.126,-0.207 0.248,-0.348 0.366,-0.424c0.118,-0.074 0.255,-0.113 0.41,-0.113c0.146,0 0.267,0.051 0.36,0.15c0.093,0.099 0.139,0.209 0.139,0.326Z" style="fill-rule:nonzero;"/></g><g><path d="M104.004,62.862l-4.872,0l0,-0.324l3.412,-5.201l-0.844,0c-0.354,0 -0.632,0.006 -0.832,0.018c-0.2,0.012 -0.384,0.053 -0.552,0.121c-0.113,0.045 -0.221,0.174 -0.32,0.386c-0.101,0.213 -0.187,0.488 -0.261,0.83l-0.372,0l0,-1.851l4.605,0l0,0.252l-3.462,5.275c0.146,0.004 0.308,0.006 0.483,0.008c0.175,0.002 0.363,0.004 0.567,0.004c0.162,0 0.332,-0.002 0.509,-0.006c0.178,-0.004 0.404,-0.016 0.681,-0.031c0.163,-0.008 0.286,-0.062 0.369,-0.164c0.083,-0.102 0.147,-0.219 0.192,-0.348c0.045,-0.119 0.099,-0.281 0.161,-0.488c0.064,-0.209 0.12,-0.41 0.169,-0.605l0.366,0l0,2.124l0.001,0Zm-0.421,-9.22l-1.46,2.144c-0.069,0.09 -0.128,0.152 -0.177,0.191c-0.049,0.039 -0.161,0.059 -0.336,0.059c-0.183,0 -0.304,-0.023 -0.363,-0.066c-0.059,-0.045 -0.121,-0.115 -0.186,-0.209l-1.447,-2.118l0.293,-0.195l1.679,1.667l1.703,-1.667l0.294,0.194Z" style="fill-rule:nonzero;"/><path d="M111.404,62.75l-1.965,0.135l-0.092,-0.086l0,-0.762l-0.036,0c-0.098,0.102 -0.208,0.211 -0.329,0.326c-0.122,0.115 -0.264,0.221 -0.422,0.314c-0.183,0.109 -0.359,0.193 -0.53,0.25c-0.171,0.057 -0.412,0.086 -0.725,0.086c-0.532,0 -0.938,-0.174 -1.217,-0.521c-0.278,-0.347 -0.417,-0.854 -0.417,-1.516l0,-2.878c0,-0.146 -0.028,-0.27 -0.083,-0.37c-0.056,-0.1 -0.137,-0.186 -0.243,-0.26c-0.073,-0.049 -0.166,-0.084 -0.276,-0.105c-0.11,-0.023 -0.228,-0.039 -0.351,-0.047l0,-0.402l2.01,-0.146l0.091,0.086l0,4.182c0,0.436 0.098,0.764 0.293,0.982c0.195,0.221 0.43,0.33 0.702,0.33c0.224,0 0.424,-0.035 0.599,-0.104c0.175,-0.069 0.321,-0.15 0.44,-0.244c0.109,-0.084 0.206,-0.176 0.29,-0.271c0.083,-0.096 0.147,-0.184 0.192,-0.264l0,-3.409c0,-0.135 -0.029,-0.254 -0.086,-0.358c-0.057,-0.103 -0.137,-0.191 -0.238,-0.266c-0.073,-0.049 -0.183,-0.078 -0.327,-0.088c-0.144,-0.01 -0.307,-0.02 -0.485,-0.027l0,-0.402l2.191,-0.146l0.092,0.086l0,4.775c0,0.139 0.029,0.256 0.086,0.354c0.057,0.098 0.137,0.18 0.238,0.25c0.073,0.045 0.16,0.074 0.262,0.088c0.103,0.014 0.214,0.023 0.336,0.027l0,0.401Z" style="fill-rule:nonzero;"/><path d="M116.813,57.615c0,0.21 -0.051,0.394 -0.153,0.554c-0.102,0.16 -0.258,0.242 -0.47,0.242c-0.228,0 -0.401,-0.061 -0.521,-0.178c-0.12,-0.119 -0.181,-0.248 -0.181,-0.391c0,-0.091 0.008,-0.173 0.021,-0.245c0.015,-0.074 0.027,-0.146 0.04,-0.221c-0.191,0 -0.415,0.078 -0.671,0.232c-0.257,0.154 -0.475,0.376 -0.653,0.661l0,3.503c0,0.143 0.027,0.26 0.082,0.35c0.055,0.088 0.142,0.156 0.26,0.201c0.102,0.039 0.232,0.07 0.394,0.092c0.16,0.02 0.3,0.033 0.418,0.041l0,0.404l-3.175,0l0,-0.404c0.094,-0.008 0.19,-0.016 0.29,-0.023c0.1,-0.007 0.187,-0.025 0.259,-0.049c0.114,-0.037 0.199,-0.102 0.254,-0.191c0.055,-0.092 0.082,-0.211 0.082,-0.357l0,-3.714c0,-0.125 -0.029,-0.25 -0.088,-0.372c-0.06,-0.123 -0.142,-0.221 -0.248,-0.293c-0.077,-0.049 -0.168,-0.084 -0.274,-0.107c-0.105,-0.021 -0.22,-0.037 -0.342,-0.045l0,-0.402l2.002,-0.135l0.087,0.086l0,0.848l0.03,0c0.252,-0.33 0.533,-0.58 0.842,-0.75c0.31,-0.172 0.593,-0.258 0.849,-0.258c0.257,0 0.465,0.084 0.626,0.252c0.159,0.166 0.24,0.39 0.24,0.669Z" style="fill-rule:nonzero;"/><path d="M124.182,62.862l-2.942,0l0,-0.404c0.094,-0.008 0.196,-0.016 0.308,-0.023c0.112,-0.008 0.205,-0.025 0.278,-0.049c0.113,-0.037 0.198,-0.102 0.253,-0.193c0.055,-0.09 0.083,-0.209 0.083,-0.355l0,-3.097c0,-0.426 -0.102,-0.756 -0.304,-0.989c-0.201,-0.232 -0.447,-0.348 -0.737,-0.348c-0.216,0 -0.413,0.033 -0.593,0.1c-0.18,0.068 -0.339,0.15 -0.478,0.248c-0.135,0.095 -0.241,0.196 -0.321,0.304c-0.079,0.107 -0.139,0.193 -0.175,0.26l0,3.46c0,0.139 0.028,0.254 0.086,0.342c0.058,0.09 0.143,0.16 0.257,0.209c0.085,0.039 0.178,0.07 0.277,0.092c0.1,0.02 0.202,0.033 0.309,0.041l0,0.404l-2.949,0l0,-0.404c0.094,-0.008 0.19,-0.016 0.29,-0.023c0.1,-0.007 0.187,-0.025 0.259,-0.049c0.114,-0.037 0.199,-0.102 0.254,-0.191c0.055,-0.092 0.082,-0.211 0.082,-0.357l0,-3.714c0,-0.139 -0.029,-0.266 -0.088,-0.382c-0.06,-0.115 -0.142,-0.211 -0.248,-0.283c-0.077,-0.049 -0.168,-0.084 -0.274,-0.107c-0.105,-0.021 -0.22,-0.037 -0.342,-0.045l0,-0.406l2.002,-0.135l0.086,0.086l0,0.848l0.03,0c0.099,-0.098 0.221,-0.215 0.367,-0.352c0.146,-0.135 0.285,-0.246 0.415,-0.332c0.15,-0.098 0.33,-0.18 0.537,-0.244c0.207,-0.064 0.441,-0.098 0.702,-0.098c0.577,0 1.007,0.18 1.285,0.541c0.279,0.359 0.418,0.839 0.418,1.439l0,3.132c0,0.143 0.025,0.256 0.074,0.344c0.049,0.088 0.132,0.156 0.25,0.205c0.098,0.041 0.182,0.068 0.253,0.086c0.071,0.016 0.17,0.027 0.296,0.035l0,0.404Z" style="fill-rule:nonzero;"/><path d="M130.576,62.75c-0.191,0.07 -0.36,0.125 -0.505,0.168c-0.145,0.043 -0.309,0.064 -0.491,0.064c-0.317,0 -0.571,-0.074 -0.76,-0.223c-0.189,-0.148 -0.311,-0.365 -0.363,-0.65l-0.037,0c-0.265,0.293 -0.548,0.518 -0.853,0.672c-0.303,0.154 -0.668,0.232 -1.095,0.232c-0.452,0 -0.823,-0.139 -1.114,-0.416c-0.291,-0.275 -0.438,-0.639 -0.438,-1.086c0,-0.232 0.032,-0.439 0.099,-0.623c0.065,-0.182 0.163,-0.348 0.293,-0.495c0.102,-0.121 0.236,-0.23 0.402,-0.326c0.167,-0.096 0.324,-0.172 0.471,-0.229c0.183,-0.07 0.554,-0.197 1.113,-0.385c0.56,-0.188 0.939,-0.334 1.134,-0.439l0,-0.604c0,-0.055 -0.012,-0.156 -0.034,-0.307c-0.022,-0.151 -0.069,-0.293 -0.144,-0.427c-0.081,-0.152 -0.196,-0.283 -0.345,-0.395c-0.149,-0.112 -0.359,-0.168 -0.633,-0.168c-0.187,0 -0.36,0.031 -0.521,0.094c-0.161,0.064 -0.273,0.131 -0.339,0.199c0,0.082 0.02,0.201 0.059,0.359c0.038,0.161 0.058,0.308 0.058,0.44c0,0.143 -0.064,0.273 -0.192,0.391c-0.128,0.119 -0.306,0.178 -0.534,0.178c-0.203,0 -0.353,-0.072 -0.448,-0.217c-0.095,-0.145 -0.144,-0.307 -0.144,-0.484c0,-0.188 0.066,-0.368 0.198,-0.538c0.132,-0.172 0.305,-0.324 0.516,-0.459c0.184,-0.113 0.405,-0.211 0.665,-0.289c0.261,-0.08 0.516,-0.119 0.764,-0.119c0.343,0 0.641,0.023 0.895,0.07c0.255,0.047 0.485,0.146 0.693,0.303c0.207,0.15 0.365,0.354 0.473,0.613c0.107,0.259 0.162,0.591 0.162,0.999c0,0.58 -0.007,1.098 -0.019,1.547c-0.012,0.45 -0.019,0.94 -0.019,1.474c0,0.16 0.027,0.285 0.083,0.379c0.055,0.094 0.139,0.174 0.253,0.238c0.062,0.037 0.157,0.057 0.29,0.061c0.132,0.004 0.269,0.006 0.407,0.006l0,0.392Zm-2.132,-3.223c-0.346,0.104 -0.648,0.203 -0.91,0.301c-0.261,0.098 -0.503,0.221 -0.727,0.367c-0.203,0.139 -0.364,0.304 -0.481,0.493c-0.118,0.189 -0.178,0.414 -0.178,0.676c0,0.338 0.089,0.588 0.266,0.746c0.177,0.158 0.402,0.238 0.675,0.238c0.289,0 0.543,-0.07 0.764,-0.211c0.22,-0.141 0.405,-0.307 0.556,-0.498l0.035,-2.112Z" style="fill-rule:nonzero;"/><path d="M134.187,62.862l-2.937,0l0,-0.404c0.094,-0.008 0.193,-0.016 0.3,-0.027c0.105,-0.01 0.192,-0.025 0.262,-0.045c0.114,-0.037 0.199,-0.102 0.257,-0.193c0.057,-0.092 0.085,-0.211 0.085,-0.357l0,-6.978c0,-0.146 -0.031,-0.283 -0.095,-0.412c-0.062,-0.129 -0.146,-0.229 -0.247,-0.303c-0.073,-0.049 -0.207,-0.094 -0.402,-0.135c-0.195,-0.039 -0.353,-0.064 -0.471,-0.072l0,-0.391l2.266,-0.135l0.086,0.092l0,8.261c0,0.143 0.026,0.26 0.079,0.352c0.053,0.092 0.139,0.162 0.256,0.211c0.09,0.039 0.179,0.07 0.266,0.092c0.088,0.02 0.187,0.033 0.297,0.041l0,0.403l-0.002,0Z" style="fill-rule:nonzero;"/><path d="M137.904,62.862l-2.907,0l0,-0.404c0.094,-0.008 0.19,-0.016 0.29,-0.023c0.1,-0.007 0.187,-0.025 0.26,-0.049c0.114,-0.037 0.199,-0.102 0.254,-0.191c0.056,-0.092 0.083,-0.211 0.083,-0.357l0,-3.714c0,-0.129 -0.03,-0.248 -0.089,-0.356c-0.059,-0.109 -0.143,-0.199 -0.248,-0.271c-0.077,-0.049 -0.189,-0.092 -0.336,-0.125c-0.146,-0.035 -0.28,-0.057 -0.402,-0.064l0,-0.405l2.125,-0.135l0.085,0.086l0,4.908c0,0.143 0.027,0.26 0.082,0.354c0.055,0.094 0.141,0.164 0.258,0.209c0.089,0.035 0.176,0.066 0.261,0.088c0.085,0.022 0.18,0.037 0.285,0.045l0,0.404l-0.001,0Zm-0.764,-8.47c0,0.232 -0.076,0.436 -0.229,0.607c-0.152,0.175 -0.341,0.261 -0.564,0.261c-0.208,0 -0.388,-0.082 -0.54,-0.249c-0.154,-0.164 -0.23,-0.352 -0.23,-0.564c0,-0.223 0.076,-0.418 0.23,-0.586c0.152,-0.166 0.332,-0.25 0.54,-0.25c0.231,0 0.422,0.078 0.57,0.236c0.149,0.156 0.223,0.338 0.223,0.545Z" style="fill-rule:nonzero;"/><path d="M142.653,59.911c0.167,0.146 0.295,0.316 0.384,0.508c0.09,0.192 0.135,0.425 0.135,0.702c0,0.557 -0.209,1.014 -0.626,1.367c-0.417,0.353 -0.957,0.531 -1.621,0.531c-0.35,0 -0.673,-0.062 -0.968,-0.189c-0.295,-0.127 -0.505,-0.242 -0.632,-0.348l-0.121,0.396l-0.458,0l-0.062,-2.094l0.422,0c0.032,0.16 0.102,0.346 0.207,0.559c0.105,0.211 0.234,0.402 0.385,0.574c0.158,0.18 0.349,0.332 0.57,0.453c0.222,0.123 0.471,0.184 0.748,0.184c0.392,0 0.692,-0.088 0.904,-0.266c0.211,-0.18 0.317,-0.434 0.317,-0.766c0,-0.17 -0.034,-0.318 -0.101,-0.441c-0.067,-0.125 -0.166,-0.234 -0.296,-0.326c-0.135,-0.094 -0.3,-0.18 -0.495,-0.254c-0.195,-0.077 -0.414,-0.151 -0.654,-0.224c-0.19,-0.057 -0.403,-0.135 -0.638,-0.236c-0.233,-0.1 -0.434,-0.215 -0.601,-0.35c-0.18,-0.143 -0.326,-0.318 -0.439,-0.525c-0.114,-0.207 -0.171,-0.451 -0.171,-0.732c0,-0.492 0.183,-0.911 0.549,-1.253c0.366,-0.342 0.856,-0.512 1.472,-0.512c0.236,0 0.478,0.031 0.724,0.092c0.246,0.061 0.446,0.135 0.602,0.219l0.141,-0.316l0.439,0l0.091,1.935l-0.421,0c-0.086,-0.432 -0.27,-0.785 -0.553,-1.058c-0.282,-0.271 -0.627,-0.408 -1.035,-0.408c-0.334,0 -0.596,0.084 -0.787,0.252c-0.191,0.168 -0.287,0.371 -0.287,0.61c0,0.184 0.031,0.336 0.095,0.457c0.062,0.123 0.157,0.227 0.283,0.312c0.123,0.08 0.276,0.158 0.461,0.229c0.186,0.07 0.414,0.152 0.689,0.24c0.268,0.086 0.521,0.186 0.76,0.301c0.236,0.114 0.433,0.239 0.588,0.377Z" style="fill-rule:nonzero;"/><path d="M147.772,62.598c-0.265,0.111 -0.515,0.203 -0.75,0.277c-0.236,0.076 -0.525,0.113 -0.868,0.113c-0.505,0 -0.859,-0.127 -1.065,-0.381c-0.205,-0.254 -0.308,-0.613 -0.308,-1.078l0,-4.078l-1.088,0l0,-0.586l1.112,0l0,-1.874l1.11,0l0,1.874l1.729,0l0,0.586l-1.716,0l0,3.365c0,0.252 0.009,0.463 0.027,0.631c0.019,0.17 0.062,0.316 0.131,0.443c0.065,0.117 0.163,0.207 0.293,0.268c0.132,0.062 0.307,0.092 0.526,0.092c0.102,0 0.251,-0.01 0.448,-0.027c0.197,-0.017 0.337,-0.041 0.418,-0.07l0,0.445l0.001,0Z" style="fill-rule:nonzero;"/><path d="M151.45,62.862l-2.907,0l0,-0.404c0.094,-0.008 0.19,-0.016 0.29,-0.023c0.1,-0.007 0.187,-0.025 0.26,-0.049c0.115,-0.037 0.199,-0.102 0.254,-0.191c0.056,-0.092 0.083,-0.211 0.083,-0.357l0,-3.714c0,-0.129 -0.03,-0.248 -0.089,-0.356c-0.059,-0.109 -0.142,-0.199 -0.248,-0.271c-0.077,-0.049 -0.189,-0.092 -0.336,-0.125c-0.146,-0.035 -0.28,-0.057 -0.402,-0.064l0,-0.405l2.125,-0.135l0.085,0.086l0,4.908c0,0.143 0.027,0.26 0.082,0.354c0.055,0.094 0.141,0.164 0.258,0.209c0.089,0.035 0.176,0.066 0.261,0.088c0.085,0.022 0.18,0.037 0.285,0.045l0,0.404l-0.001,0Zm-0.764,-8.47c0,0.232 -0.076,0.436 -0.229,0.607c-0.152,0.175 -0.341,0.261 -0.564,0.261c-0.208,0 -0.388,-0.082 -0.54,-0.249c-0.153,-0.164 -0.23,-0.352 -0.23,-0.564c0,-0.223 0.077,-0.418 0.23,-0.586c0.152,-0.166 0.332,-0.25 0.54,-0.25c0.231,0 0.422,0.078 0.57,0.236c0.149,0.156 0.223,0.338 0.223,0.545Z" style="fill-rule:nonzero;"/><path d="M158.686,62.862l-1.816,0c-0.318,-0.461 -0.658,-0.951 -1.021,-1.477c-0.362,-0.523 -0.739,-1.036 -1.131,-1.53l-0.502,0.467l0,1.429c0,0.146 0.026,0.268 0.08,0.363c0.053,0.096 0.138,0.166 0.257,0.211c0.098,0.039 0.191,0.07 0.281,0.092c0.089,0.02 0.192,0.033 0.311,0.041l0,0.404l-2.948,0l0,-0.404c0.093,-0.008 0.189,-0.016 0.29,-0.027c0.102,-0.01 0.187,-0.025 0.255,-0.045c0.113,-0.037 0.198,-0.102 0.255,-0.193c0.057,-0.091 0.085,-0.211 0.085,-0.357l0,-7.001c0,-0.152 -0.032,-0.293 -0.095,-0.426c-0.063,-0.133 -0.146,-0.232 -0.247,-0.303c-0.086,-0.064 -0.219,-0.107 -0.4,-0.127c-0.181,-0.021 -0.326,-0.035 -0.436,-0.043l0,-0.391l2.228,-0.135l0.085,0.092l0,6.369c0.318,-0.318 0.662,-0.658 1.03,-1.021c0.369,-0.365 0.679,-0.689 0.932,-0.973c0.032,-0.037 0.068,-0.086 0.106,-0.146c0.039,-0.059 0.059,-0.107 0.059,-0.145c0,-0.109 -0.089,-0.191 -0.266,-0.244c-0.178,-0.053 -0.347,-0.09 -0.51,-0.111l0,-0.391l2.648,0l0,0.379c-0.342,0.102 -0.644,0.229 -0.906,0.381c-0.264,0.154 -0.464,0.292 -0.603,0.413c-0.098,0.082 -0.236,0.215 -0.415,0.396c-0.18,0.184 -0.43,0.424 -0.752,0.719c0.334,0.412 0.71,0.904 1.127,1.48c0.417,0.575 0.723,0.99 0.914,1.246c0.179,0.24 0.34,0.396 0.482,0.471c0.143,0.072 0.35,0.117 0.622,0.133l0,0.404l0.001,0Z" style="fill-rule:nonzero;"/><path d="M158.859,64.827c0,-0.203 0.056,-0.369 0.168,-0.498c0.112,-0.127 0.251,-0.191 0.418,-0.191c0.13,0 0.242,0.023 0.336,0.072c0.094,0.049 0.178,0.111 0.251,0.188c0.061,0.061 0.126,0.143 0.195,0.248c0.069,0.105 0.124,0.191 0.165,0.262c0.203,-0.111 0.446,-0.396 0.729,-0.859c0.283,-0.463 0.487,-0.869 0.613,-1.22c-0.386,-0.963 -0.736,-1.826 -1.049,-2.587c-0.313,-0.762 -0.641,-1.549 -0.983,-2.361c-0.077,-0.189 -0.208,-0.335 -0.391,-0.439c-0.184,-0.104 -0.366,-0.17 -0.55,-0.197l0,-0.404l2.749,0l0,0.428c-0.122,0.004 -0.269,0.029 -0.439,0.076c-0.17,0.047 -0.257,0.102 -0.257,0.162c0,0.023 0.01,0.064 0.027,0.121c0.019,0.059 0.04,0.117 0.064,0.179c0.154,0.402 0.39,0.982 0.706,1.74c0.316,0.76 0.562,1.366 0.736,1.821c0.184,-0.434 0.375,-0.885 0.572,-1.351c0.198,-0.467 0.419,-1.016 0.663,-1.65c0.028,-0.076 0.069,-0.184 0.122,-0.32c0.054,-0.135 0.08,-0.252 0.08,-0.351c0,-0.105 -0.093,-0.205 -0.278,-0.297c-0.185,-0.092 -0.36,-0.146 -0.527,-0.168l0,-0.391l2.235,0l0,0.379c-0.123,0.021 -0.283,0.092 -0.482,0.211c-0.199,0.119 -0.348,0.289 -0.445,0.511c-0.484,1.123 -0.915,2.146 -1.291,3.071c-0.377,0.924 -0.663,1.604 -0.858,2.039c-0.257,0.569 -0.485,1.015 -0.688,1.333c-0.201,0.32 -0.397,0.572 -0.589,0.754c-0.187,0.172 -0.356,0.287 -0.51,0.346c-0.152,0.059 -0.31,0.088 -0.474,0.088c-0.317,0 -0.566,-0.074 -0.748,-0.225c-0.179,-0.152 -0.27,-0.324 -0.27,-0.52Z" style="fill-rule:nonzero;"/></g></g></svg>